<svg xmlns="http://www.w3.org/2000/svg" viewBox="0 0 30 30"><defs><style>.cls-1{fill:none;stroke:#3e1d43;stroke-miterlimit:10;}.cls-2{fill:#3e1d43;}</style></defs><g id="Camada_2" data-name="Camada 2"><g id="Layer_2" data-name="Layer 2"><path class="cls-1" d="M29.5,15A14.5,14.5,0,1,1,15,.5,14.5,14.5,0,0,1,29.5,15Z"/><g id="Linkedin"><path class="cls-2" d="M7.28,10.44h3.53V21.8H7.28ZM9.05,4.8A2,2,0,1,1,7,6.85a2,2,0,0,1,2.05-2"/><path class="cls-2" d="M13,10.44h3.38V12h.05a3.69,3.69,0,0,1,3.33-1.83c3.58,0,4.24,2.35,4.24,5.41V21.8H20.5V16.28c0-1.32,0-3-1.84-3s-2.11,1.44-2.11,2.92V21.8H13Z"/></g></g></g></svg>