<svg xmlns="http://www.w3.org/2000/svg" xmlns:xlink="http://www.w3.org/1999/xlink" viewBox="0 0 154.19 41.55"><defs><style>.cls-1{fill:#c03a51;}.cls-2{fill:#3e1d43;}.cls-3{fill:url(#linear-gradient);}.cls-4{fill:url(#linear-gradient-2);}.cls-5{fill:url(#linear-gradient-3);}.cls-6{fill:url(#linear-gradient-4);}.cls-7{fill:url(#linear-gradient-5);}.cls-8{fill:url(#linear-gradient-6);}.cls-9{fill:url(#linear-gradient-7);}.cls-10{fill:url(#linear-gradient-8);}.cls-11{fill:url(#linear-gradient-9);}.cls-12{fill:url(#linear-gradient-10);}</style><linearGradient id="linear-gradient" x1="16.93" y1="29.61" x2="19.67" y2="29.61" gradientUnits="userSpaceOnUse"><stop offset="0" stop-color="#b84740"/><stop offset="1" stop-color="#b43b4d"/></linearGradient><linearGradient id="linear-gradient-2" x1="12.83" y1="25.83" x2="15.58" y2="25.83" xlink:href="#linear-gradient"/><linearGradient id="linear-gradient-3" x1="8.67" y1="22.16" x2="11.41" y2="22.16" xlink:href="#linear-gradient"/><linearGradient id="linear-gradient-4" x1="4.54" y1="20.19" x2="7.25" y2="20.19" xlink:href="#linear-gradient"/><linearGradient id="linear-gradient-5" x1="21.1" y1="25.85" x2="23.84" y2="25.85" xlink:href="#linear-gradient"/><linearGradient id="linear-gradient-6" x1="25.26" y1="22.18" x2="28" y2="22.18" xlink:href="#linear-gradient"/><linearGradient id="linear-gradient-7" x1="29.43" y1="20.21" x2="32.13" y2="20.21" xlink:href="#linear-gradient"/><linearGradient id="linear-gradient-8" x1="0.44" y1="9.28" x2="36.17" y2="9.28" gradientUnits="userSpaceOnUse"><stop offset="0" stop-color="#4f2554"/><stop offset="1" stop-color="#3c1b41"/></linearGradient><linearGradient id="linear-gradient-9" x1="0" y1="20.14" x2="3.04" y2="20.14" xlink:href="#linear-gradient-8"/><linearGradient id="linear-gradient-10" x1="33.65" y1="20.14" x2="36.68" y2="20.14" xlink:href="#linear-gradient-8"/></defs><g id="Camada_2" data-name="Camada 2"><g id="Layer_2" data-name="Layer 2"><path class="cls-1" d="M42.93,29.59a.44.44,0,0,1-.51-.5V12a.45.45,0,0,1,.51-.5h1.44c.36,0,.53.17.53.5v7a3.68,3.68,0,0,1,1.62-1,5,5,0,0,1,2-.38,5,5,0,0,1,3.5,1.3,4.88,4.88,0,0,1,1.42,3.74v6.47a.44.44,0,0,1-.51.5H51.44a.44.44,0,0,1-.5-.5V23.3c0-2.34-1.28-3.41-2.9-3.41a4.07,4.07,0,0,0-2.77,1.24l-.37.41v7.55c0,.34-.17.5-.53.5Z"/><path class="cls-1" d="M65.07,19.31a5.61,5.61,0,0,1,1.4,4.52c0,.65-.07.77-.5.77l-8.35,0a3.58,3.58,0,0,0,3.67,2.95,4.92,4.92,0,0,0,2.79-.87.48.48,0,0,1,.73.1l.75,1c.19.26.17.48-.08.65a6.74,6.74,0,0,1-4.19,1.42A6.13,6.13,0,0,1,55,23.66a6,6,0,0,1,1.71-4.3A5.6,5.6,0,0,1,61,17.58,5.41,5.41,0,0,1,65.07,19.31ZM57.64,22.6l6.37,0a3,3,0,0,0-3.09-2.7A3.33,3.33,0,0,0,57.64,22.6Z"/><path class="cls-1" d="M82.69,29.59a.44.44,0,0,1-.5-.5V18.35a.44.44,0,0,1,.5-.51h1.38a.44.44,0,0,1,.5.51v.46a3.2,3.2,0,0,1,1.31-.89,3.6,3.6,0,0,1,1.49-.34,3.8,3.8,0,0,1,2.61,1c.29.34.36.6.22.8-.32.43-.58.82-.85,1.13s-.41.32-.62.12a2.65,2.65,0,0,0-1.81-.72,2.79,2.79,0,0,0-2,.92l-.24.31v7.94c0,.34-.17.5-.53.5Z"/><path class="cls-2" d="M105.11,29.11l-.29-.24V29a.51.51,0,0,1-.58.57H101.9a.51.51,0,0,1-.58-.57V12.08a.51.51,0,0,1,.58-.58h2.34a.51.51,0,0,1,.58.58v6.1c.17-.17.31-.36,1.4-.75a5.62,5.62,0,0,1,1.71-.26A5.54,5.54,0,0,1,112.18,19a6.46,6.46,0,0,1,1.71,4.51A6.26,6.26,0,0,1,112.11,28a5.79,5.79,0,0,1-4.32,1.88A4.59,4.59,0,0,1,105.11,29.11Zm5.31-5.6a3,3,0,0,0-3-3.21,3.45,3.45,0,0,0-2.32.95l-.29.31v3.81c.12.2.29.48,1.18,1a2.73,2.73,0,0,0,1.43.39A3,3,0,0,0,110.42,23.51Z"/><path class="cls-2" d="M126.12,19.07a6.39,6.39,0,0,1,1.47,4.78c-.07.7-.12.87-.58.87H119.1a3,3,0,0,0,3,2,5,5,0,0,0,2.61-.68.49.49,0,0,1,.72.12l1.18,1.67a.4.4,0,0,1-.07.65,6.79,6.79,0,0,1-4.44,1.37A6.57,6.57,0,0,1,117.34,28a6,6,0,0,1-1.91-4.52,6.3,6.3,0,0,1,6.37-6.34A5.48,5.48,0,0,1,126.12,19.07Zm-7,3.09,4.95,0a2.3,2.3,0,0,0-2.37-1.86A2.7,2.7,0,0,0,119.15,22.16Z"/><path class="cls-1" d="M95.6,17.4V14.63c0-.36-.17-.53-.51-.53H93.62c-.34,0-.51.17-.51.53V17.4Z"/><path class="cls-1" d="M100.18,27.5l-.82-.83c-.26-.24-.48-.24-.7,0a1.84,1.84,0,0,1-1.42.75,1.67,1.67,0,0,1-1.64-1.84v-5.5h2.68a.44.44,0,0,0,.5-.5V18.35a.44.44,0,0,0-.5-.51H91.93a.44.44,0,0,0-.5.51v1.26a.44.44,0,0,0,.5.5h1.18v5.55a4,4,0,0,0,1.11,2.92A3.73,3.73,0,0,0,97,29.74a3.63,3.63,0,0,0,3.07-1.38C100.4,28,100.43,27.71,100.18,27.5Z"/><path class="cls-2" d="M149,17V14.44a.51.51,0,0,0-.58-.58H146a.51.51,0,0,0-.58.58V17Z"/><path class="cls-2" d="M154,27.25l-1.47-1.44c-.27-.27-.51-.27-.73,0a3.51,3.51,0,0,1-.36.43,1.72,1.72,0,0,1-1.11.53c-.84,0-1.42-.67-1.42-1.93V20.47h2.85c.36,0,.55-.19.55-.58V18c0-.39-.19-.58-.55-.58h-7.48a.51.51,0,0,0-.58.58v1.85a.51.51,0,0,0,.58.58h1.11V25a4.76,4.76,0,0,0,1.35,3.57,4.65,4.65,0,0,0,3.4,1.3,4.24,4.24,0,0,0,3.88-2C154.23,27.64,154.23,27.42,154,27.25Z"/><path class="cls-1" d="M80.12,18.35a.45.45,0,0,0-.5-.51H78.24a.45.45,0,0,0-.51.51v1a5,5,0,0,0-1.63-1.32,5.32,5.32,0,0,0-2.49-.56,5.45,5.45,0,0,0-2.87.78,5.55,5.55,0,0,0-2.06,2.18,6.72,6.72,0,0,0-.76,3.22A6.93,6.93,0,0,0,68.68,27a5.6,5.6,0,0,0,2,2.23,5.3,5.3,0,0,0,2.84.8,5.35,5.35,0,0,0,2.5-.57,5,5,0,0,0,1.66-1.35v1a.44.44,0,0,0,.51.5h1.45c.25,0,.41-.08.48-.25Zm-3,7.57a3.6,3.6,0,0,1-1.35,1.41,3.55,3.55,0,0,1-3.58,0,3.66,3.66,0,0,1-1.35-1.43,4.43,4.43,0,0,1-.52-2.19,4.27,4.27,0,0,1,.52-2.16,3.52,3.52,0,0,1,3.14-1.85,3.51,3.51,0,0,1,1.79.48,3.64,3.64,0,0,1,1.35,1.4,4.89,4.89,0,0,1,0,4.35Z"/><path class="cls-2" d="M140,19.16a5.68,5.68,0,0,0-1.86-1.38,6.29,6.29,0,0,0-2.79-.58,6.7,6.7,0,0,0-3.24.8,6,6,0,0,0-2.31,2.25,6.38,6.38,0,0,0-.85,3.32,6.55,6.55,0,0,0,.85,3.35,6,6,0,0,0,2.3,2.31,6.78,6.78,0,0,0,6,.23,5.62,5.62,0,0,0,1.9-1.41l.56-4Zm-1.64,6.28a3.13,3.13,0,0,1-1.21,1.21,3.29,3.29,0,0,1-3.2,0,3.14,3.14,0,0,1-1.22-1.23,3.69,3.69,0,0,1-.46-1.88,3.49,3.49,0,0,1,.46-1.84,3.14,3.14,0,0,1,1.21-1.19,3.28,3.28,0,0,1,1.6-.4,3.32,3.32,0,0,1,1.61.41,3.24,3.24,0,0,1,1.21,1.2,4,4,0,0,1,0,3.73Z"/><path class="cls-2" d="M142.45,18.17a.63.63,0,0,0-.71-.71H139.8a.63.63,0,0,0-.71.71V28.88a.63.63,0,0,0,.71.71h2a.65.65,0,0,0,.67-.35Z"/><path class="cls-3" d="M19.18,17.68H17.45a.48.48,0,0,0-.49.48l0,12.8,0,10.1a.48.48,0,0,0,.49.49h1.73a.47.47,0,0,0,.49-.49V18.16A.47.47,0,0,0,19.18,17.68Z"/><path class="cls-4" d="M15.09,14.48H13.36a.48.48,0,0,0-.49.49l0,13,0,8.74a.48.48,0,0,0,.49.48h1.73a.47.47,0,0,0,.49-.48V15A.47.47,0,0,0,15.09,14.48Z"/><path class="cls-5" d="M10.93,12H9.19a.48.48,0,0,0-.48.49l0,14.59,0,4.69a.47.47,0,0,0,.48.48h1.74a.46.46,0,0,0,.48-.48V12.52A.46.46,0,0,0,10.93,12Z"/><path class="cls-6" d="M6.76,12.8H5a.48.48,0,0,0-.49.48V27.1a.48.48,0,0,0,.49.49H6.76a.47.47,0,0,0,.49-.49V13.28A.47.47,0,0,0,6.76,12.8Z"/><path class="cls-7" d="M21.58,14.5h1.74a.48.48,0,0,1,.48.49l0,13,0,8.75a.47.47,0,0,1-.48.48H21.58a.46.46,0,0,1-.48-.48V15A.46.46,0,0,1,21.58,14.5Z"/><path class="cls-8" d="M25.75,12.05h1.73a.47.47,0,0,1,.48.48l0,14.6,0,4.69a.47.47,0,0,1-.48.48H25.75a.47.47,0,0,1-.49-.48V12.53A.47.47,0,0,1,25.75,12.05Z"/><path class="cls-9" d="M29.91,12.81h1.74a.48.48,0,0,1,.48.49V27.12a.48.48,0,0,1-.48.49H29.91a.47.47,0,0,1-.48-.49V13.3A.47.47,0,0,1,29.91,12.81Z"/><path class="cls-10" d="M18.31,0A17.76,17.76,0,0,0,.44,17.61a1,1,0,0,0,1.93,0A15.84,15.84,0,0,1,18.31,1.9,15.84,15.84,0,0,1,34.25,17.61a1,1,0,0,0,1.92,0A17.76,17.76,0,0,0,18.31,0Z"/><path class="cls-11" d="M2.55,16.5H.48A.47.47,0,0,0,0,17V23.3a.47.47,0,0,0,.48.48H2.55A.47.47,0,0,0,3,23.3V17A.47.47,0,0,0,2.55,16.5Z"/><path class="cls-12" d="M36.2,16.5H34.13a.47.47,0,0,0-.48.48V23.3a.47.47,0,0,0,.48.48H36.2a.46.46,0,0,0,.48-.48V17A.46.46,0,0,0,36.2,16.5Z"/></g></g></svg>