<svg xmlns="http://www.w3.org/2000/svg" viewBox="0 0 1289.26 358.04"><defs><style>.cls-1,.cls-2{fill:none;stroke-miterlimit:10;}.cls-1{stroke:#a5a5a5;stroke-width:0.75px;}.cls-2{stroke:#c03a51;stroke-linecap:round;stroke-width:6px;}</style></defs><g id="Camada_2" data-name="Camada 2"><g id="Layer_2" data-name="Layer 2"><path class="cls-1" d="M3,78.56c33.76,0,33.76,159.77,67.53,159.77S104.29,78.56,138.06,78.56s33.77,159.77,67.54,159.77S239.37.38,273.14.38s33.77,238,67.53,238S374.44,46.27,408.21,46.27,442,309.72,475.74,309.72,509.51,78.56,543.28,78.56s33.77,159.77,67.54,159.77S644.59,78.56,678.36,78.56,712.13,338,745.91,338,779.68,44.57,813.45,44.57,847.21,238.33,881,238.33,914.75,14,948.52,14s33.77,224.36,67.54,224.36,33.78-159.77,67.55-159.77,33.77,159.77,67.54,159.77,33.78-159.77,67.55-159.77,33.78,159.77,67.56,159.77"/><path class="cls-1" d="M3,87.62c33.76,0,33.76,152.07,67.53,152.07S104.29,87.62,138.06,87.62s33.77,153.43,67.54,153.43S239.37,9.44,273.14,9.44s33.77,231.38,67.53,231.38S374.44,55.33,408.21,55.33,442,318.78,475.74,318.78,509.51,87.62,543.28,87.62s33.77,159.77,67.54,159.77S644.59,87.62,678.36,87.62s33.77,253.6,67.55,253.6S779.68,53.63,813.45,53.63,847.21,247.39,881,247.39,914.75,23,948.52,23s33.77,224.35,67.54,224.35,33.78-159.77,67.55-159.77,33.77,159.77,67.54,159.77,33.78-159.77,67.55-159.77,33.78,159.77,67.56,159.77"/><path class="cls-1" d="M3,96.69c33.76,0,33.76,144.36,67.53,144.36S104.29,96.69,138.06,96.69s33.77,147.08,67.54,147.08S239.37,18.5,273.14,18.5s33.77,224.82,67.53,224.82S374.44,64.4,408.21,64.4,442,327.85,475.74,327.85,509.51,96.69,543.28,96.69s33.77,159.77,67.54,159.77S644.59,96.69,678.36,96.69s33.77,247.7,67.55,247.7S779.68,62.7,813.45,62.7,847.21,256.46,881,256.46,914.75,32.1,948.52,32.1s33.77,224.36,67.54,224.36,33.78-159.77,67.55-159.77,33.77,159.77,67.54,159.77,33.78-159.77,67.55-159.77,33.78,159.77,67.56,159.77"/><path class="cls-1" d="M3,105.75c33.76,0,33.76,136.66,67.53,136.66s33.76-136.66,67.53-136.66,33.77,140.74,67.54,140.74S239.37,27.57,273.14,27.57s33.77,218.24,67.53,218.24S374.44,73.46,408.21,73.46,442,336.91,475.74,336.91s33.77-231.16,67.54-231.16,33.77,159.78,67.54,159.78,33.77-159.78,67.54-159.78,33.77,241.81,67.55,241.81,33.77-275.8,67.54-275.8S847.21,265.53,881,265.53,914.75,41.17,948.52,41.17s33.77,224.36,67.54,224.36,33.78-159.78,67.55-159.78,33.77,159.78,67.54,159.78,33.78-159.78,67.55-159.78,33.78,159.78,67.56,159.78"/><path class="cls-1" d="M3,114.82c33.76,0,33.76,129,67.53,129s33.76-129,67.53-129,33.77,134.39,67.54,134.39S239.37,36.64,273.14,36.64,306.91,248.3,340.67,248.3,374.44,82.53,408.21,82.53,442,346,475.74,346s33.77-231.16,67.54-231.16,33.77,159.77,67.54,159.77,33.77-159.77,67.54-159.77,33.77,235.91,67.55,235.91,33.77-269.9,67.54-269.9S847.21,274.59,881,274.59,914.75,50.23,948.52,50.23s33.77,224.36,67.54,224.36,33.78-159.77,67.55-159.77,33.77,159.77,67.54,159.77,33.78-159.77,67.55-159.77,33.78,159.77,67.56,159.77"/><path class="cls-2" d="M3,123.89c33.76,0,33.76,121.24,67.53,121.24s33.76-121.24,67.53-121.24,33.77,128,67.54,128S239.37,45.7,273.14,45.7s33.77,205.1,67.53,205.1S374.44,91.59,408.21,91.59,442,355,475.74,355s33.77-231.15,67.54-231.15,33.77,159.77,67.54,159.77,33.77-159.77,67.54-159.77,33.77,230,67.55,230,33.77-264,67.54-264S847.21,283.66,881,283.66,914.75,59.3,948.52,59.3s33.77,224.36,67.54,224.36,33.78-159.77,67.55-159.77,33.77,159.77,67.54,159.77,33.78-159.77,67.55-159.77,33.78,159.77,67.56,159.77"/></g></g></svg>