<svg xmlns="http://www.w3.org/2000/svg" viewBox="0 0 67.61 125.83"><defs><style>.cls-1{fill:#fff;}.cls-2{fill:none;stroke:#fff;stroke-linecap:round;stroke-linejoin:round;stroke-width:3.8px;}</style></defs><g id="Camada_2" data-name="Camada 2"><g id="Layer_2" data-name="Layer 2"><path class="cls-1" d="M35.5,91.25H11.06A4.87,4.87,0,0,1,6.2,86.39V4.86A4.87,4.87,0,0,1,11.06,0h36.4a4.87,4.87,0,0,1,4.86,4.86v70.9a1.5,1.5,0,0,1-3,0V4.86A1.86,1.86,0,0,0,47.46,3H11.06A1.86,1.86,0,0,0,9.2,4.86V86.39a1.86,1.86,0,0,0,1.86,1.86H35.5a1.5,1.5,0,0,1,0,3Z"/><path class="cls-1" d="M50.82,12.36H7.7a1.5,1.5,0,1,1,0-3H50.82a1.5,1.5,0,0,1,0,3Z"/><path class="cls-1" d="M34.35,81.9H7.7a1.5,1.5,0,0,1,0-3H34.35a1.5,1.5,0,0,1,0,3Z"/><path class="cls-1" d="M34.91,7.72H23.6a1.5,1.5,0,0,1,0-3H34.91a1.5,1.5,0,0,1,0,3Z"/><path class="cls-1" d="M34.12,125.83a1.5,1.5,0,0,1-1.5-1.5v-.28a79.51,79.51,0,0,0-5.32-29c-.68-1.74-1.36-3.29-2-4.62a1.5,1.5,0,0,1,2.67-1.35c.72,1.41,1.44,3,2.16,4.88a82.64,82.64,0,0,1,5.52,30.09v.28A1.5,1.5,0,0,1,34.12,125.83Z"/><path class="cls-1" d="M64.74,125.83a1.5,1.5,0,0,1-1.5-1.5v-4.06c0-4.5.12-9,.36-13.27.59-10.41,1-23,1-25C64.34,58.67,50.09,48.14,50,48a1.5,1.5,0,0,1,1.74-2.44c.64.46,15.63,11.45,15.92,36.34,0,2.07-.42,14.78-1,25.24-.24,4.25-.36,8.65-.36,13.1v4.06A1.51,1.51,0,0,1,64.74,125.83Z"/><path class="cls-1" d="M48.85,111.9a1.34,1.34,0,0,1-.48-.08c-9.87-3.28-13-11.59-13.93-16.25a22.38,22.38,0,0,1-.21-7.25,12,12,0,0,0-3.15-9.95,11.76,11.76,0,0,0-5.71-3.23c-2.92-.74-8.09-2.75-9.9-7.75a6.13,6.13,0,0,1,1.24-6.29c1.12-1.16,3.24-2.43,7-1.83a29.88,29.88,0,0,0,4.79.42,15.6,15.6,0,0,1,10.15,3.72L60.78,82.26a1.5,1.5,0,1,1-1.94,2.29L36.67,65.7a12.59,12.59,0,0,0-8.16-3,33.55,33.55,0,0,1-5.31-.46c-2-.31-3.42,0-4.33,1a3.09,3.09,0,0,0-.58,3.18c1.34,3.71,5.47,5.27,7.82,5.87a14.69,14.69,0,0,1,7.16,4.08,15,15,0,0,1,2.41,3.39,15.33,15.33,0,0,1,1.53,9A18.8,18.8,0,0,0,37.38,95c1,4.92,3.92,11.35,11.94,14a1.5,1.5,0,0,1-.47,2.92Z"/><path class="cls-1" d="M19.47,69.39a5.77,5.77,0,0,1-3.55-1.33,1.5,1.5,0,0,1,1.94-2.29,2.45,2.45,0,0,0,2.24.48,1.62,1.62,0,0,0,.8-.9A10.34,10.34,0,0,1,26,59.78a1.5,1.5,0,0,1,1.31,2.7,7.42,7.42,0,0,0-3.57,4A4.61,4.61,0,0,1,21.35,69,4.5,4.5,0,0,1,19.47,69.39Z"/><path class="cls-1" d="M6.18,56.43a8.09,8.09,0,0,1-1.51-.13A5.52,5.52,0,0,1,.2,52.13a5.62,5.62,0,0,1,2-5.89L6.78,42.7a1.5,1.5,0,0,1,1.84,2.37L4.07,48.61a2.68,2.68,0,0,0-1,2.8,2.54,2.54,0,0,0,2.07,1.94,7.35,7.35,0,0,0,2.29,0,1.5,1.5,0,1,1,.45,3A11.75,11.75,0,0,1,6.18,56.43Z"/><path class="cls-1" d="M6.18,68.15a9,9,0,0,1-2-.22A5.44,5.44,0,0,1,.14,63.74,5.68,5.68,0,0,1,2.21,58l4.57-3.55a1.5,1.5,0,0,1,1.84,2.37L4.05,60.34a2.72,2.72,0,0,0-1,2.76A2.42,2.42,0,0,0,4.89,65a6.9,6.9,0,0,0,2.58,0,1.5,1.5,0,1,1,.45,3A11.75,11.75,0,0,1,6.18,68.15Z"/><path class="cls-1" d="M6.18,79.86a9.27,9.27,0,0,1-1.52-.12A5.52,5.52,0,0,1,.2,75.57a5.64,5.64,0,0,1,2-5.9l4.55-3.53a1.5,1.5,0,0,1,1.84,2.37L4.07,72a2.69,2.69,0,0,0-1,2.8,2.53,2.53,0,0,0,2.07,1.94,7.06,7.06,0,0,0,2.29,0,1.5,1.5,0,1,1,.45,3A11.71,11.71,0,0,1,6.18,79.86Z"/><path class="cls-1" d="M34,51.42a4.5,4.5,0,1,1-4.5-4.5A4.5,4.5,0,0,1,34,51.42Z"/><path class="cls-2" d="M20,45.21s3.86-4,9.18-4A12.5,12.5,0,0,1,39,46.06"/><path class="cls-2" d="M15.94,39.46c.94-.6,5-5.49,12.86-5.49A19.73,19.73,0,0,1,43,39.63"/><path class="cls-2" d="M13.28,32.94c.78-.6,5.83-6.17,16.29-6.17A24.43,24.43,0,0,1,45.69,32.6"/></g></g></svg>