<svg xmlns="http://www.w3.org/2000/svg" viewBox="0 0 77.59 46.29"><defs><style>.cls-1{fill:#fff;}</style></defs><g id="Camada_2" data-name="Camada 2"><g id="Layer_2" data-name="Layer 2"><path class="cls-1" d="M74.43,6.31a3.16,3.16,0,1,1,3.16-3.15A3.15,3.15,0,0,1,74.43,6.31Z"/><path class="cls-1" d="M50.67,6.31a3.16,3.16,0,1,1,3.16-3.15A3.15,3.15,0,0,1,50.67,6.31Z"/><path class="cls-1" d="M26.91,6.31a3.16,3.16,0,1,1,3.16-3.15A3.15,3.15,0,0,1,26.91,6.31Z"/><path class="cls-1" d="M3.16,6.31A3.16,3.16,0,1,1,6.31,3.16,3.15,3.15,0,0,1,3.16,6.31Z"/><path class="cls-1" d="M74.43,26.3a3.16,3.16,0,1,1,3.16-3.15A3.15,3.15,0,0,1,74.43,26.3Z"/><path class="cls-1" d="M50.67,26.3a3.16,3.16,0,1,1,3.16-3.15A3.15,3.15,0,0,1,50.67,26.3Z"/><path class="cls-1" d="M26.91,26.3a3.16,3.16,0,1,1,3.16-3.15A3.15,3.15,0,0,1,26.91,26.3Z"/><path class="cls-1" d="M3.16,26.3a3.16,3.16,0,1,1,3.15-3.15A3.15,3.15,0,0,1,3.16,26.3Z"/><path class="cls-1" d="M74.43,46.29a3.16,3.16,0,1,1,3.16-3.15A3.15,3.15,0,0,1,74.43,46.29Z"/><path class="cls-1" d="M50.67,46.29a3.16,3.16,0,1,1,3.16-3.15A3.15,3.15,0,0,1,50.67,46.29Z"/><path class="cls-1" d="M26.91,46.29a3.16,3.16,0,1,1,3.16-3.15A3.15,3.15,0,0,1,26.91,46.29Z"/><path class="cls-1" d="M3.16,46.29a3.16,3.16,0,1,1,3.15-3.15A3.15,3.15,0,0,1,3.16,46.29Z"/></g></g></svg>