<svg xmlns="http://www.w3.org/2000/svg" xmlns:xlink="http://www.w3.org/1999/xlink" viewBox="0 0 589.14 318.13"><defs><style>.cls-1{fill:url(#linear-gradient);}</style><linearGradient id="linear-gradient" y1="159.06" x2="589.14" y2="159.06" gradientUnits="userSpaceOnUse"><stop offset="0" stop-color="#b84740"/><stop offset="1" stop-color="#b43b4d"/></linearGradient></defs><g id="Camada_2" data-name="Camada 2"><g id="Layer_2" data-name="Layer 2"><path class="cls-1" d="M460.67,1c-51-6.45-104.58,19.78-130.78,64-14.39,24.27-22.2,54.46-45.67,70.13-16.62,11.09-38.1,12.37-57.8,9.09s-38.47-10.67-57.8-15.72c-29-7.58-59.95-9.81-88.93-2.11S23.9,152.43,9.86,178.93-3.69,240.07,14.33,264c21.37,28.43,60.09,36.29,95.36,40.88a1580.1,1580.1,0,0,0,336.77,7.62c29-2.45,59-6,84-21,32-19.19,51.29-55.26,56.71-92.13,9.79-66.66-16.25-144.79-76.1-180.7A130,130,0,0,0,460.67,1Z"/></g></g></svg>