<svg xmlns="http://www.w3.org/2000/svg" viewBox="0 0 82.72 70.78"><defs><style>.cls-1,.cls-2{fill:none;stroke-linecap:round;stroke-linejoin:round;}.cls-1{stroke:#3e1d43;stroke-width:2.83px;}.cls-2{stroke:#c13a51;stroke-width:2.12px;}</style></defs><g id="Camada_2" data-name="Camada 2"><g id="Layer_2" data-name="Layer 2"><path class="cls-1" d="M81.3,24.09V65.45a3.92,3.92,0,0,1-3.91,3.92H5.33a3.92,3.92,0,0,1-3.91-3.92V24.09"/><path class="cls-2" d="M15.1,11.6A3.5,3.5,0,0,0,14.81,13a3.7,3.7,0,1,0,7.11-1.42"/><line class="cls-2" x1="18.51" y1="12.95" x2="18.51" y2="1.06"/><path class="cls-2" d="M67.62,11.6A3.5,3.5,0,0,1,67.91,13,3.7,3.7,0,1,1,60.8,11.6"/><line class="cls-2" x1="64.21" y1="12.95" x2="64.21" y2="1.06"/><line class="cls-1" x1="60.12" y1="6.68" x2="22.6" y2="6.68"/><path class="cls-1" d="M14.42,6.68H5.33a3.91,3.91,0,0,0-3.91,3.91v13.5H81.3V10.59a3.91,3.91,0,0,0-3.91-3.91H68.3"/><line class="cls-2" x1="24.05" y1="32.66" x2="24.05" y2="40.78"/><line class="cls-2" x1="35.59" y1="32.66" x2="35.59" y2="40.78"/><line class="cls-2" x1="47.13" y1="32.66" x2="47.13" y2="40.78"/><line class="cls-2" x1="58.67" y1="32.66" x2="58.67" y2="40.78"/><line class="cls-2" x1="24.05" y1="52.54" x2="24.05" y2="60.66"/><line class="cls-2" x1="35.59" y1="52.54" x2="35.59" y2="60.66"/><line class="cls-2" x1="47.13" y1="52.54" x2="47.13" y2="60.66"/><line class="cls-2" x1="58.67" y1="52.54" x2="58.67" y2="60.66"/><line class="cls-2" x1="17.55" y1="46.73" x2="65.18" y2="46.73"/></g></g></svg>