<svg xmlns="http://www.w3.org/2000/svg" viewBox="0 0 30 30"><defs><style>.cls-1{fill:none;stroke:#3e1d43;stroke-miterlimit:10;}.cls-2{fill:#3e1d43;}</style></defs><g id="Camada_2" data-name="Camada 2"><g id="Layer_2" data-name="Layer 2"><circle class="cls-1" cx="15" cy="15" r="14.5"/><path id="Twitter" class="cls-2" d="M23.86,9.8a7.46,7.46,0,0,1-2.09.58,3.72,3.72,0,0,0,1.6-2,7.42,7.42,0,0,1-2.31.88,3.64,3.64,0,0,0-6.29,2.48,3.7,3.7,0,0,0,.1.83A10.33,10.33,0,0,1,7.38,8.77a3.52,3.52,0,0,0-.49,1.82,3.66,3.66,0,0,0,1.61,3,3.66,3.66,0,0,1-1.64-.46v.05a3.63,3.63,0,0,0,2.91,3.56,3.71,3.71,0,0,1-1,.13,3.08,3.08,0,0,1-.68-.07,3.64,3.64,0,0,0,3.4,2.53A7.33,7.33,0,0,1,7,20.91a8.11,8.11,0,0,1-.86-.05,10.33,10.33,0,0,0,15.9-8.7c0-.16,0-.32,0-.47A7.6,7.6,0,0,0,23.86,9.8Z"/></g></g></svg>