<svg xmlns="http://www.w3.org/2000/svg" xmlns:xlink="http://www.w3.org/1999/xlink" viewBox="0 0 913.9 385.58"><defs><style>.cls-1{fill:#eef0f1;}.cls-2{fill:url(#linear-gradient);}.cls-3{fill:url(#linear-gradient-2);}.cls-4{fill:url(#linear-gradient-3);}.cls-5{fill:url(#linear-gradient-4);}.cls-6{fill:url(#linear-gradient-5);}.cls-7{fill:url(#linear-gradient-6);}.cls-8{fill:url(#linear-gradient-7);}.cls-9{fill:url(#linear-gradient-8);}.cls-10{fill:url(#linear-gradient-9);}.cls-11{fill:url(#linear-gradient-10);}.cls-12{fill:url(#linear-gradient-11);}.cls-13{fill:url(#linear-gradient-12);}.cls-14{fill:url(#linear-gradient-13);}.cls-15{fill:url(#linear-gradient-14);}.cls-16{fill:url(#linear-gradient-15);}.cls-17{fill:url(#linear-gradient-16);}.cls-18{fill:url(#linear-gradient-17);}.cls-19{fill:url(#linear-gradient-18);}.cls-20{fill:url(#linear-gradient-19);}.cls-21{fill:url(#linear-gradient-20);}.cls-22{fill:url(#linear-gradient-21);}.cls-23{fill:url(#linear-gradient-22);}.cls-24{fill:url(#linear-gradient-23);}.cls-25{fill:url(#linear-gradient-24);}.cls-26{fill:url(#linear-gradient-25);}.cls-27{fill:url(#linear-gradient-26);}.cls-28{fill:url(#linear-gradient-27);}.cls-29{fill:url(#linear-gradient-28);}.cls-30{fill:url(#linear-gradient-29);}.cls-31{fill:url(#linear-gradient-30);}.cls-32{fill:url(#linear-gradient-31);}.cls-33{fill:url(#linear-gradient-32);}.cls-34{fill:url(#linear-gradient-33);}.cls-35{fill:url(#linear-gradient-34);}.cls-36{fill:url(#linear-gradient-35);}.cls-37{fill:url(#linear-gradient-36);}.cls-38{fill:url(#linear-gradient-37);}.cls-39{fill:url(#linear-gradient-38);}.cls-40{fill:url(#linear-gradient-39);}.cls-41{fill:url(#linear-gradient-40);}.cls-42{fill:url(#linear-gradient-41);}.cls-43{fill:url(#linear-gradient-42);}.cls-44{fill:url(#linear-gradient-43);}.cls-45{fill:url(#linear-gradient-44);}.cls-46{fill:url(#linear-gradient-45);}</style><linearGradient id="linear-gradient" x1="696.24" y1="168.28" x2="913.9" y2="168.28" gradientUnits="userSpaceOnUse"><stop offset="0" stop-color="#4f2554"/><stop offset="1" stop-color="#3c1b41"/></linearGradient><linearGradient id="linear-gradient-2" x1="74.16" y1="168.28" x2="216.82" y2="168.28" xlink:href="#linear-gradient"/><linearGradient id="linear-gradient-3" x1="275.88" y1="194.79" x2="286.23" y2="194.79" xlink:href="#linear-gradient"/><linearGradient id="linear-gradient-4" x1="292.6" y1="178.59" x2="302.95" y2="178.59" xlink:href="#linear-gradient"/><linearGradient id="linear-gradient-5" x1="225.71" y1="170.09" x2="236.06" y2="170.09" xlink:href="#linear-gradient"/><linearGradient id="linear-gradient-6" x1="443.11" y1="131.81" x2="453.46" y2="131.81" xlink:href="#linear-gradient"/><linearGradient id="linear-gradient-7" x1="443.11" y1="69.15" x2="453.46" y2="69.15" xlink:href="#linear-gradient"/><linearGradient id="linear-gradient-8" x1="443.11" y1="237.96" x2="453.46" y2="237.96" xlink:href="#linear-gradient"/><linearGradient id="linear-gradient-9" x1="459.83" y1="178.59" x2="470.18" y2="178.59" xlink:href="#linear-gradient"/><linearGradient id="linear-gradient-10" x1="426.38" y1="105.21" x2="436.74" y2="105.21" xlink:href="#linear-gradient"/><linearGradient id="linear-gradient-11" x1="426.38" y1="227.41" x2="436.74" y2="227.41" xlink:href="#linear-gradient"/><linearGradient id="linear-gradient-12" x1="242.43" y1="180.16" x2="252.78" y2="180.16" xlink:href="#linear-gradient"/><linearGradient id="linear-gradient-13" x1="242.43" y1="126.62" x2="252.78" y2="126.62" xlink:href="#linear-gradient"/><linearGradient id="linear-gradient-14" x1="392.94" y1="157.27" x2="403.29" y2="157.27" xlink:href="#linear-gradient"/><linearGradient id="linear-gradient-15" x1="392.94" y1="314.19" x2="403.29" y2="314.19" xlink:href="#linear-gradient"/><linearGradient id="linear-gradient-16" x1="342.77" y1="178.59" x2="353.12" y2="178.59" xlink:href="#linear-gradient"/><linearGradient id="linear-gradient-17" x1="359.49" y1="146.29" x2="369.84" y2="146.29" xlink:href="#linear-gradient"/><linearGradient id="linear-gradient-18" x1="359.49" y1="249.22" x2="369.84" y2="249.22" xlink:href="#linear-gradient"/><linearGradient id="linear-gradient-19" x1="376.21" y1="214.03" x2="386.57" y2="214.03" xlink:href="#linear-gradient"/><linearGradient id="linear-gradient-20" x1="376.21" y1="90.91" x2="386.57" y2="90.91" xlink:href="#linear-gradient"/><linearGradient id="linear-gradient-21" x1="376.21" y1="52.32" x2="386.57" y2="52.32" xlink:href="#linear-gradient"/><linearGradient id="linear-gradient-22" x1="326.05" y1="178.59" x2="336.4" y2="178.59" xlink:href="#linear-gradient"/><linearGradient id="linear-gradient-23" x1="409.66" y1="178.59" x2="420.01" y2="178.59" xlink:href="#linear-gradient"/><linearGradient id="linear-gradient-24" x1="309.32" y1="178.59" x2="319.68" y2="178.59" xlink:href="#linear-gradient"/><linearGradient id="linear-gradient-25" x1="208.99" y1="170.09" x2="219.34" y2="170.09" xlink:href="#linear-gradient"/><linearGradient id="linear-gradient-26" x1="693.72" y1="168.28" x2="704.07" y2="168.28" xlink:href="#linear-gradient"/><linearGradient id="linear-gradient-27" x1="259.15" y1="142.63" x2="269.51" y2="142.63" xlink:href="#linear-gradient"/><linearGradient id="linear-gradient-28" x1="259.15" y1="226.13" x2="269.51" y2="226.13" xlink:href="#linear-gradient"/><linearGradient id="linear-gradient-29" x1="610.33" y1="180.8" x2="620.69" y2="180.8" xlink:href="#linear-gradient"/><linearGradient id="linear-gradient-30" x1="526.72" y1="222.49" x2="537.07" y2="222.49" xlink:href="#linear-gradient"/><linearGradient id="linear-gradient-31" x1="627.06" y1="155.07" x2="637.41" y2="155.07" xlink:href="#linear-gradient"/><linearGradient id="linear-gradient-32" x1="627.06" y1="239.71" x2="637.41" y2="239.71" xlink:href="#linear-gradient"/><linearGradient id="linear-gradient-33" x1="593.61" y1="141.13" x2="603.96" y2="141.13" xlink:href="#linear-gradient"/><linearGradient id="linear-gradient-34" x1="593.61" y1="244.66" x2="603.96" y2="244.66" xlink:href="#linear-gradient"/><linearGradient id="linear-gradient-35" x1="576.89" y1="222.49" x2="587.24" y2="222.49" xlink:href="#linear-gradient"/><linearGradient id="linear-gradient-36" x1="643.78" y1="213.81" x2="654.13" y2="213.81" xlink:href="#linear-gradient"/><linearGradient id="linear-gradient-37" x1="543.44" y1="188.5" x2="553.8" y2="188.5" xlink:href="#linear-gradient"/><linearGradient id="linear-gradient-38" x1="543.44" y1="271.71" x2="553.8" y2="271.71" xlink:href="#linear-gradient"/><linearGradient id="linear-gradient-39" x1="493.27" y1="178.59" x2="503.63" y2="178.59" xlink:href="#linear-gradient"/><linearGradient id="linear-gradient-40" x1="476.55" y1="178.59" x2="486.9" y2="178.59" xlink:href="#linear-gradient"/><linearGradient id="linear-gradient-41" x1="510" y1="222.49" x2="520.35" y2="222.49" xlink:href="#linear-gradient"/><linearGradient id="linear-gradient-42" x1="560.17" y1="222.49" x2="570.52" y2="222.49" xlink:href="#linear-gradient"/><linearGradient id="linear-gradient-43" x1="677.23" y1="168.28" x2="687.58" y2="168.28" xlink:href="#linear-gradient"/><linearGradient id="linear-gradient-44" x1="660.5" y1="157.86" x2="670.86" y2="157.86" xlink:href="#linear-gradient"/><linearGradient id="linear-gradient-45" x1="660.5" y1="199.6" x2="670.86" y2="199.6" xlink:href="#linear-gradient"/></defs><g id="Camada_2" data-name="Camada 2"><g id="Layer_2" data-name="Layer 2"><path class="cls-1" d="M0,173.52l184.17-.36a3.66,3.66,0,0,0,3.08-1.85l17.06-27.62,24.1,86.19a3.9,3.9,0,0,0,3.76,3.06,4,4,0,0,0,3.57-3.37l15.58-73.31,26.85,88.62a3.9,3.9,0,0,0,3.68,3,4,4,0,0,0,3.56-3.16L319.73,112l44.77,220.9a3.73,3.73,0,0,0,7.43,0l36.34-184,19.53,86.38a3.93,3.93,0,0,0,3.79,3.31,4,4,0,0,0,3.63-3.53l28-156.65L498.9,381.74a4,4,0,0,0,3.83,3.84,4.1,4.1,0,0,0,3.74-3.95L527.65,162.4,547.08,232a3.84,3.84,0,0,0,3.91,3.05,4.08,4.08,0,0,0,3.47-3.7L582.94,32.13l42.82,314.71a4.05,4.05,0,0,0,3.63,3.74,4,4,0,0,0,3.85-3.45L681.93,99l12.87,70.38a4,4,0,0,0,3.72,3.52l213.08.21V164.2l-210-.21L685.79,77.46a3.73,3.73,0,0,0-7.45-.06L630.2,322.76l-43.4-319a3.76,3.76,0,0,0-7.52,0L549.51,212l-20-71.86a3.85,3.85,0,0,0-4-3.05,4.15,4.15,0,0,0-3.4,3.92L502.31,345.29,467.74,51.66a4.09,4.09,0,0,0-3.64-3.84,4,4,0,0,0-3.86,3.53L431.05,214.76,411.71,129.2a4,4,0,0,0-3.75-3.31,4,4,0,0,0-3.65,3.45L368.17,312.28,323.89,93.82a4,4,0,0,0-3.6-3.42,3.9,3.9,0,0,0-3.76,3.16l-35,135.55-27.21-89.78a3.87,3.87,0,0,0-3.78-3,4,4,0,0,0-3.51,3.37l-15.44,72.64-22.31-79.77a4,4,0,0,0-3-3,3.58,3.58,0,0,0-3.68,1.79l-20.31,32.89L0,164.63v8.89Z"/><path class="cls-2" d="M911.23,165.62H698.9a2.66,2.66,0,1,0,0,5.32H911.23a2.66,2.66,0,1,0,0-5.32Z"/><path class="cls-3" d="M214.16,165.62H76.82a2.66,2.66,0,0,0,0,5.32H214.16a2.66,2.66,0,0,0,0-5.32Z"/><path class="cls-4" d="M281.05,247h0a5.17,5.17,0,0,1-5.17-5.18v-94.1a5.17,5.17,0,0,1,5.17-5.18h0a5.18,5.18,0,0,1,5.18,5.18v94.1A5.18,5.18,0,0,1,281.05,247Z"/><path class="cls-5" d="M297.78,207.26h0a5.18,5.18,0,0,1-5.18-5.18v-47a5.18,5.18,0,0,1,5.18-5.18h0A5.18,5.18,0,0,1,303,155.1v47A5.18,5.18,0,0,1,297.78,207.26Z"/><path class="cls-6" d="M231.58,198.15h-1.39a4.48,4.48,0,0,1-4.48-4.48V147.22a5.18,5.18,0,0,1,5.18-5.18h0a5.18,5.18,0,0,1,5.17,5.18v46.45A4.48,4.48,0,0,1,231.58,198.15Z"/><path class="cls-7" d="M448.28,177.36h0a5.16,5.16,0,0,1-5.17-5.17V91.44a5.16,5.16,0,0,1,5.17-5.17h0a5.17,5.17,0,0,1,5.18,5.17v80.75A5.17,5.17,0,0,1,448.28,177.36Z"/><path class="cls-8" d="M448.28,80.35h0a5.16,5.16,0,0,1-5.17-5.17V63.13A5.17,5.17,0,0,1,448.28,58h0a5.18,5.18,0,0,1,5.18,5.18V75.18A5.17,5.17,0,0,1,448.28,80.35Z"/><path class="cls-9" d="M448.28,295.92h0a5.16,5.16,0,0,1-5.17-5.17V185.17a5.17,5.17,0,0,1,5.17-5.17h0a5.18,5.18,0,0,1,5.18,5.17V290.75A5.17,5.17,0,0,1,448.28,295.92Z"/><path class="cls-10" d="M465,244.75h0a5.17,5.17,0,0,1-5.17-5.17v-122a5.17,5.17,0,0,1,5.17-5.17h0a5.17,5.17,0,0,1,5.18,5.17v122A5.17,5.17,0,0,1,465,244.75Z"/><path class="cls-11" d="M431.56,136.66h0a5.18,5.18,0,0,1-5.18-5.18V78.94a5.18,5.18,0,0,1,5.18-5.18h0a5.18,5.18,0,0,1,5.18,5.18v52.54A5.18,5.18,0,0,1,431.56,136.66Z"/><path class="cls-12" d="M431.56,314.27h0a5.18,5.18,0,0,1-5.18-5.18V145.72a5.18,5.18,0,0,1,5.18-5.18h0a5.18,5.18,0,0,1,5.18,5.18V309.09A5.18,5.18,0,0,1,431.56,314.27Z"/><path class="cls-13" d="M248.3,219.22h-1.39a4.49,4.49,0,0,1-4.48-4.48V146.28a5.18,5.18,0,0,1,5.18-5.18h0a5.17,5.17,0,0,1,5.17,5.18v68.46A4.48,4.48,0,0,1,248.3,219.22Z"/><path class="cls-14" d="M248.3,137.34h-1.39a4.49,4.49,0,0,1-4.48-4.48V121.08a5.18,5.18,0,0,1,5.18-5.18h0a5.17,5.17,0,0,1,5.17,5.18v11.78A4.48,4.48,0,0,1,248.3,137.34Z"/><path class="cls-15" d="M398.11,290.47h0a5.18,5.18,0,0,0,5.18-5.18v-256a5.18,5.18,0,0,0-5.18-5.18h0a5.17,5.17,0,0,0-5.17,5.18V285.29A5.17,5.17,0,0,0,398.11,290.47Z"/><path class="cls-16" d="M398.11,333.19h0a5.17,5.17,0,0,0,5.18-5.17V300.36a5.17,5.17,0,0,0-5.18-5.17h0a5.16,5.16,0,0,0-5.17,5.17V328A5.16,5.16,0,0,0,398.11,333.19Z"/><path class="cls-17" d="M347.94,312.3h0a5.18,5.18,0,0,0,5.18-5.18V50.06a5.18,5.18,0,0,0-5.18-5.18h0a5.18,5.18,0,0,0-5.17,5.18V307.12A5.18,5.18,0,0,0,347.94,312.3Z"/><path class="cls-18" d="M364.67,213.66h0a5.16,5.16,0,0,0,5.17-5.17V84.09a5.17,5.17,0,0,0-5.17-5.18h0a5.18,5.18,0,0,0-5.18,5.18v124.4A5.17,5.17,0,0,0,364.67,213.66Z"/><path class="cls-19" d="M364.67,282.13h0a5.17,5.17,0,0,0,5.17-5.18V221.48a5.17,5.17,0,0,0-5.17-5.18h0a5.18,5.18,0,0,0-5.18,5.18V277A5.18,5.18,0,0,0,364.67,282.13Z"/><path class="cls-20" d="M381.39,309.37h0a5.18,5.18,0,0,0,5.18-5.18V123.87a5.18,5.18,0,0,0-5.18-5.18h0a5.18,5.18,0,0,0-5.18,5.18V304.19A5.18,5.18,0,0,0,381.39,309.37Z"/><path class="cls-21" d="M381.39,114.19h0a5.18,5.18,0,0,0,5.18-5.18V72.81a5.18,5.18,0,0,0-5.18-5.18h0a5.18,5.18,0,0,0-5.18,5.18V109A5.18,5.18,0,0,0,381.39,114.19Z"/><path class="cls-22" d="M381.39,63.13h0A5.18,5.18,0,0,0,386.57,58V46.69a5.18,5.18,0,0,0-5.18-5.18h0a5.18,5.18,0,0,0-5.18,5.18V58A5.18,5.18,0,0,0,381.39,63.13Z"/><path class="cls-23" d="M331.22,257.32h0a5.18,5.18,0,0,0,5.18-5.18V105a5.18,5.18,0,0,0-5.18-5.18h0a5.17,5.17,0,0,0-5.17,5.18v147.1A5.17,5.17,0,0,0,331.22,257.32Z"/><path class="cls-24" d="M414.84,271.94h0a5.16,5.16,0,0,0,5.17-5.17V90.41a5.16,5.16,0,0,0-5.17-5.17h0a5.17,5.17,0,0,0-5.18,5.17V266.77A5.17,5.17,0,0,0,414.84,271.94Z"/><path class="cls-25" d="M314.5,225.47h0a5.18,5.18,0,0,1-5.18-5.18v-83.4a5.18,5.18,0,0,1,5.18-5.18h0a5.18,5.18,0,0,1,5.18,5.18v83.4A5.18,5.18,0,0,1,314.5,225.47Z"/><path class="cls-26" d="M214.16,183.1h0a5.17,5.17,0,0,1-5.17-5.18V162.26a5.17,5.17,0,0,1,5.17-5.17h0a5.18,5.18,0,0,1,5.18,5.17v15.66A5.18,5.18,0,0,1,214.16,183.1Z"/><path class="cls-27" d="M698.9,181.29h0a5.18,5.18,0,0,1-5.18-5.18V160.45a5.18,5.18,0,0,1,5.18-5.17h0a5.17,5.17,0,0,1,5.17,5.17v15.66A5.17,5.17,0,0,1,698.9,181.29Z"/><path class="cls-28" d="M265,192.65h-1.4a4.49,4.49,0,0,1-4.48-4.48V97.78a5.17,5.17,0,0,1,5.18-5.17h0a5.17,5.17,0,0,1,5.18,5.17v90.39A4.49,4.49,0,0,1,265,192.65Z"/><path class="cls-29" d="M265,254.11h-1.4a4.48,4.48,0,0,1-4.48-4.48V203.32a5.17,5.17,0,0,1,5.18-5.17h0a5.17,5.17,0,0,1,5.18,5.17v46.31A4.48,4.48,0,0,1,265,254.11Z"/><path class="cls-30" d="M615.51,300.62h0a5.17,5.17,0,0,1-5.18-5.17V66.15A5.18,5.18,0,0,1,615.51,61h0a5.18,5.18,0,0,1,5.18,5.17v229.3A5.17,5.17,0,0,1,615.51,300.62Z"/><path class="cls-31" d="M531.9,284.81h0a5.18,5.18,0,0,1-5.18-5.18V165.35a5.18,5.18,0,0,1,5.18-5.18h0a5.17,5.17,0,0,1,5.17,5.18V279.63A5.17,5.17,0,0,1,531.9,284.81Z"/><path class="cls-32" d="M632.23,213.81h0a5.18,5.18,0,0,1-5.17-5.18V101.51a5.17,5.17,0,0,1,5.17-5.17h0a5.17,5.17,0,0,1,5.18,5.17V208.63A5.18,5.18,0,0,1,632.23,213.81Z"/><path class="cls-33" d="M632.23,261.33h0a5.18,5.18,0,0,1-5.17-5.17V223.27a5.17,5.17,0,0,1,5.17-5.17h0a5.17,5.17,0,0,1,5.18,5.17v32.89A5.18,5.18,0,0,1,632.23,261.33Z"/><path class="cls-34" d="M598.79,155.28h0a5.18,5.18,0,0,1-5.18-5.18V132.15a5.17,5.17,0,0,1,5.18-5.17h0a5.16,5.16,0,0,1,5.17,5.17V150.1A5.17,5.17,0,0,1,598.79,155.28Z"/><path class="cls-35" d="M598.79,327.17h0a5.17,5.17,0,0,1-5.18-5.17V167.31a5.18,5.18,0,0,1,5.18-5.17h0a5.17,5.17,0,0,1,5.17,5.17V322A5.16,5.16,0,0,1,598.79,327.17Z"/><path class="cls-36" d="M582.06,286.64h0a5.18,5.18,0,0,1-5.17-5.18V163.52a5.18,5.18,0,0,1,5.17-5.18h0a5.18,5.18,0,0,1,5.18,5.18V281.46A5.18,5.18,0,0,1,582.06,286.64Z"/><path class="cls-37" d="M649,267.45h0a5.18,5.18,0,0,1-5.18-5.18V165.35a5.18,5.18,0,0,1,5.18-5.18h0a5.17,5.17,0,0,1,5.17,5.18v96.92A5.17,5.17,0,0,1,649,267.45Z"/><path class="cls-38" d="M548.62,227.64h0a5.17,5.17,0,0,1-5.18-5.17V154.54a5.17,5.17,0,0,1,5.18-5.17h0a5.17,5.17,0,0,1,5.18,5.17v67.93A5.17,5.17,0,0,1,548.62,227.64Z"/><path class="cls-39" d="M548.62,312.73h0a5.18,5.18,0,0,1-5.18-5.18V235.86a5.18,5.18,0,0,1,5.18-5.18h0a5.18,5.18,0,0,1,5.18,5.18v71.69A5.18,5.18,0,0,1,548.62,312.73Z"/><path class="cls-40" d="M498.45,218.1h0a5.18,5.18,0,0,1-5.18-5.18V144.26a5.18,5.18,0,0,1,5.18-5.18h0a5.18,5.18,0,0,1,5.18,5.18v68.66A5.18,5.18,0,0,1,498.45,218.1Z"/><path class="cls-41" d="M481.73,240.91h0a5.18,5.18,0,0,1-5.18-5.18V121.45a5.18,5.18,0,0,1,5.18-5.18h0a5.17,5.17,0,0,1,5.17,5.18V235.73A5.17,5.17,0,0,1,481.73,240.91Z"/><path class="cls-42" d="M515.17,269.55h0a5.17,5.17,0,0,1-5.17-5.18V180.61a5.17,5.17,0,0,1,5.17-5.18h0a5.18,5.18,0,0,1,5.18,5.18v83.76A5.18,5.18,0,0,1,515.17,269.55Z"/><path class="cls-43" d="M565.34,268.69h0a5.17,5.17,0,0,1-5.17-5.18v-82a5.17,5.17,0,0,1,5.17-5.18h0a5.18,5.18,0,0,1,5.18,5.18v82A5.18,5.18,0,0,1,565.34,268.69Z"/><path class="cls-44" d="M682.4,196h0a5.17,5.17,0,0,1-5.17-5.18v-45a5.16,5.16,0,0,1,5.17-5.17h0a5.17,5.17,0,0,1,5.18,5.17v45A5.18,5.18,0,0,1,682.4,196Z"/><path class="cls-45" d="M665.68,183.67h0a5.17,5.17,0,0,1-5.18-5.17V137.22a5.18,5.18,0,0,1,5.18-5.18h0a5.18,5.18,0,0,1,5.18,5.18V178.5A5.17,5.17,0,0,1,665.68,183.67Z"/><path class="cls-46" d="M665.68,212.51h0a5.18,5.18,0,0,1-5.18-5.18V191.87a5.18,5.18,0,0,1,5.18-5.18h0a5.18,5.18,0,0,1,5.18,5.18v15.46A5.18,5.18,0,0,1,665.68,212.51Z"/></g></g></svg>