<svg xmlns="http://www.w3.org/2000/svg" viewBox="0 0 260 260"><defs><style>.cls-1{opacity:0.4;}.cls-2{fill:#c13a51;}</style></defs><g id="Camada_2" data-name="Camada 2"><g id="Layer_2" data-name="Layer 2"><g class="cls-1"><path class="cls-2" d="M95.37.24a0,0,0,0,0,0,0s0,0,0,0a0,0,0,0,0,0,0S95.36.24,95.37.24Z"/><path class="cls-2" d="M104,.31a.09.09,0,0,0,.1-.1.09.09,0,0,0-.1-.09.09.09,0,0,0-.09.09A.09.09,0,0,0,104,.31Z"/><path class="cls-2" d="M112.68.38a.16.16,0,0,0,.16-.17.16.16,0,0,0-.16-.16.16.16,0,0,0-.17.16A.16.16,0,0,0,112.68.38Z"/><path class="cls-2" d="M121.33.43a.21.21,0,0,0,.21-.22.22.22,0,0,0-.43,0A.22.22,0,0,0,121.33.43Z"/><path class="cls-2" d="M130,.43a.21.21,0,0,0,.21-.22A.21.21,0,0,0,130,0a.22.22,0,0,0-.22.21A.22.22,0,0,0,130,.43Z"/><path class="cls-2" d="M138.63.43a.21.21,0,0,0,.21-.22.21.21,0,0,0-.21-.21.22.22,0,0,0-.22.21A.22.22,0,0,0,138.63.43Z"/><path class="cls-2" d="M147.28.38a.17.17,0,0,0,.17-.17.17.17,0,0,0-.34,0A.17.17,0,0,0,147.28.38Z"/><path class="cls-2" d="M155.93.34a.13.13,0,0,0,.12-.13.12.12,0,0,0-.12-.11.11.11,0,0,0-.12.11A.12.12,0,0,0,155.93.34Z"/><path class="cls-2" d="M164.58.24s0,0,0,0a0,0,0,0,0,0,0,0,0,0,0,0,0,0S164.57.24,164.58.24Z"/><path class="cls-2" d="M78.07,9a.15.15,0,0,0,.15-.14.15.15,0,0,0-.15-.15.15.15,0,0,0-.14.15A.14.14,0,0,0,78.07,9Z"/><path class="cls-2" d="M86.72,9.13a.27.27,0,1,0-.26-.26A.27.27,0,0,0,86.72,9.13Z"/><path class="cls-2" d="M95.37,9.25A.39.39,0,1,0,95,8.87.38.38,0,0,0,95.37,9.25Z"/><path class="cls-2" d="M104,9.35a.48.48,0,0,0,.48-.48.47.47,0,0,0-.48-.48.48.48,0,0,0-.48.48A.49.49,0,0,0,104,9.35Z"/><path class="cls-2" d="M112.68,9.39a.53.53,0,1,0-.53-.52A.52.52,0,0,0,112.68,9.39Z"/><path class="cls-2" d="M121.33,9.44a.58.58,0,1,0-.58-.57A.58.58,0,0,0,121.33,9.44Z"/><path class="cls-2" d="M130,9.46a.59.59,0,0,0,.6-.59.6.6,0,0,0-.6-.6.6.6,0,0,0-.6.6A.59.59,0,0,0,130,9.46Z"/><path class="cls-2" d="M138.63,9.44a.58.58,0,1,0-.58-.57A.58.58,0,0,0,138.63,9.44Z"/><path class="cls-2" d="M147.28,9.42a.56.56,0,1,0-.55-.55A.55.55,0,0,0,147.28,9.42Z"/><path class="cls-2" d="M155.93,9.35a.49.49,0,0,0,.48-.48.48.48,0,0,0-.48-.48.47.47,0,0,0-.48.48A.48.48,0,0,0,155.93,9.35Z"/><path class="cls-2" d="M164.58,9.25a.39.39,0,0,0,0-.77.39.39,0,1,0,0,.77Z"/><path class="cls-2" d="M173.23,9.13a.27.27,0,0,0,0-.53.27.27,0,0,0,0,.53Z"/><path class="cls-2" d="M181.88,9a.14.14,0,0,0,.14-.14.14.14,0,1,0-.28,0A.14.14,0,0,0,181.88,9Z"/><path class="cls-2" d="M60.77,17.64a.12.12,0,0,0,.12-.12.12.12,0,1,0-.24,0A.12.12,0,0,0,60.77,17.64Z"/><path class="cls-2" d="M69.42,17.83a.31.31,0,0,0,.31-.31.31.31,0,0,0-.62,0A.31.31,0,0,0,69.42,17.83Z"/><path class="cls-2" d="M78.07,18a.46.46,0,0,0,.46-.45.47.47,0,0,0-.46-.46.46.46,0,0,0-.45.46A.45.45,0,0,0,78.07,18Z"/><path class="cls-2" d="M86.72,18.14a.63.63,0,1,0-.62-.62A.63.63,0,0,0,86.72,18.14Z"/><path class="cls-2" d="M95.37,18.26a.75.75,0,0,0,.75-.74.76.76,0,0,0-.75-.75.75.75,0,0,0-.74.75A.74.74,0,0,0,95.37,18.26Z"/><path class="cls-2" d="M104,18.33a.82.82,0,0,0,.82-.81.82.82,0,0,0-.82-.82.82.82,0,0,0-.81.82A.81.81,0,0,0,104,18.33Z"/><path class="cls-2" d="M112.68,18.4a.89.89,0,0,0,0-1.77.89.89,0,1,0,0,1.77Z"/><path class="cls-2" d="M121.33,18.45a.94.94,0,1,0-.94-.93A.93.93,0,0,0,121.33,18.45Z"/><circle class="cls-2" cx="129.98" cy="17.52" r="0.96"/><path class="cls-2" d="M138.63,18.45a.94.94,0,1,0-.94-.93A.93.93,0,0,0,138.63,18.45Z"/><path class="cls-2" d="M147.28,18.43a.91.91,0,0,0,0-1.82.91.91,0,1,0,0,1.82Z"/><path class="cls-2" d="M155.93,18.36a.84.84,0,1,0,0-1.68.84.84,0,0,0,0,1.68Z"/><path class="cls-2" d="M164.58,18.26a.74.74,0,0,0,.74-.74.74.74,0,1,0-1.48,0A.74.74,0,0,0,164.58,18.26Z"/><path class="cls-2" d="M173.23,18.14a.63.63,0,1,0-.62-.62A.62.62,0,0,0,173.23,18.14Z"/><path class="cls-2" d="M181.88,18a.48.48,0,0,0,.48-.48.48.48,0,0,0-1,0A.48.48,0,0,0,181.88,18Z"/><path class="cls-2" d="M190.53,17.83a.31.31,0,0,0,.31-.31.31.31,0,0,0-.62,0A.31.31,0,0,0,190.53,17.83Z"/><path class="cls-2" d="M199.18,17.66a.15.15,0,0,0,.15-.14.15.15,0,0,0-.15-.15.15.15,0,0,0-.14.15A.14.14,0,0,0,199.18,17.66Z"/><path class="cls-2" d="M52.12,26.38a.21.21,0,0,0,.22-.21.22.22,0,0,0-.44,0A.21.21,0,0,0,52.12,26.38Z"/><path class="cls-2" d="M60.77,26.6a.43.43,0,1,0-.43-.43A.43.43,0,0,0,60.77,26.6Z"/><path class="cls-2" d="M69.42,26.79a.63.63,0,1,0-.62-.62A.63.63,0,0,0,69.42,26.79Z"/><path class="cls-2" d="M78.07,27a.79.79,0,1,0-.79-.79A.79.79,0,0,0,78.07,27Z"/><path class="cls-2" d="M86.72,27.1a.94.94,0,1,0-.93-.93A.94.94,0,0,0,86.72,27.1Z"/><path class="cls-2" d="M95.37,27.25a1.08,1.08,0,1,0-1.08-1.08A1.08,1.08,0,0,0,95.37,27.25Z"/><path class="cls-2" d="M104,27.32a1.15,1.15,0,1,0-1.15-1.15A1.16,1.16,0,0,0,104,27.32Z"/><path class="cls-2" d="M112.68,27.42a1.25,1.25,0,1,0-1.25-1.25A1.25,1.25,0,0,0,112.68,27.42Z"/><circle class="cls-2" cx="121.33" cy="26.17" r="1.27"/><path class="cls-2" d="M130,27.46a1.3,1.3,0,1,0-1.3-1.29A1.29,1.29,0,0,0,130,27.46Z"/><path class="cls-2" d="M138.63,27.44a1.27,1.27,0,1,0-1.27-1.27A1.27,1.27,0,0,0,138.63,27.44Z"/><path class="cls-2" d="M147.28,27.42A1.25,1.25,0,1,0,146,26.17,1.24,1.24,0,0,0,147.28,27.42Z"/><path class="cls-2" d="M155.93,27.34a1.18,1.18,0,0,0,0-2.35,1.18,1.18,0,1,0,0,2.35Z"/><path class="cls-2" d="M164.58,27.25a1.08,1.08,0,1,0-1.08-1.08A1.08,1.08,0,0,0,164.58,27.25Z"/><path class="cls-2" d="M173.23,27.13a1,1,0,1,0-1-1A1,1,0,0,0,173.23,27.13Z"/><path class="cls-2" d="M181.88,27a.82.82,0,0,0,.82-.81.82.82,0,1,0-1.64,0A.82.82,0,0,0,181.88,27Z"/><path class="cls-2" d="M190.53,26.81a.64.64,0,0,0,.65-.64.65.65,0,0,0-1.3,0A.64.64,0,0,0,190.53,26.81Z"/><path class="cls-2" d="M199.18,26.6a.43.43,0,1,0-.43-.43A.43.43,0,0,0,199.18,26.6Z"/><path class="cls-2" d="M207.83,26.41a.24.24,0,1,0-.24-.24A.24.24,0,0,0,207.83,26.41Z"/><path class="cls-2" d="M43.47,35.08a.27.27,0,0,0,0-.53.27.27,0,0,0,0,.53Z"/><circle class="cls-2" cx="52.12" cy="34.82" r="0.5"/><path class="cls-2" d="M60.77,35.56a.74.74,0,0,0,.74-.74.74.74,0,1,0-1.48,0A.74.74,0,0,0,60.77,35.56Z"/><path class="cls-2" d="M69.42,35.73a.91.91,0,1,0-.91-.91A.91.91,0,0,0,69.42,35.73Z"/><path class="cls-2" d="M78.07,35.92a1.11,1.11,0,1,0-1.1-1.1A1.11,1.11,0,0,0,78.07,35.92Z"/><path class="cls-2" d="M86.72,36.09a1.27,1.27,0,1,0-1.27-1.27A1.27,1.27,0,0,0,86.72,36.09Z"/><path class="cls-2" d="M95.37,36.21A1.39,1.39,0,1,0,94,34.82,1.4,1.4,0,0,0,95.37,36.21Z"/><path class="cls-2" d="M104,36.3a1.49,1.49,0,1,0-1.48-1.48A1.48,1.48,0,0,0,104,36.3Z"/><path class="cls-2" d="M112.68,36.38a1.56,1.56,0,1,0-1.56-1.56A1.55,1.55,0,0,0,112.68,36.38Z"/><path class="cls-2" d="M121.33,36.43a1.61,1.61,0,1,0-1.61-1.61A1.61,1.61,0,0,0,121.33,36.43Z"/><path class="cls-2" d="M130,36.45a1.63,1.63,0,1,0-1.63-1.63A1.63,1.63,0,0,0,130,36.45Z"/><path class="cls-2" d="M138.63,36.43A1.61,1.61,0,1,0,137,34.82,1.61,1.61,0,0,0,138.63,36.43Z"/><path class="cls-2" d="M147.28,36.4a1.59,1.59,0,1,0-1.59-1.58A1.58,1.58,0,0,0,147.28,36.4Z"/><path class="cls-2" d="M155.93,36.3a1.49,1.49,0,1,0-1.49-1.48A1.49,1.49,0,0,0,155.93,36.3Z"/><path class="cls-2" d="M164.58,36.21a1.39,1.39,0,1,0-1.39-1.39A1.39,1.39,0,0,0,164.58,36.21Z"/><path class="cls-2" d="M173.23,36.09A1.27,1.27,0,1,0,172,34.82,1.27,1.27,0,0,0,173.23,36.09Z"/><path class="cls-2" d="M181.88,36a1.13,1.13,0,1,0-1.13-1.13A1.14,1.14,0,0,0,181.88,36Z"/><path class="cls-2" d="M190.53,35.78a1,1,0,1,0-1-1A1,1,0,0,0,190.53,35.78Z"/><path class="cls-2" d="M199.18,35.56a.75.75,0,0,0,.75-.74.76.76,0,0,0-.75-.75.75.75,0,0,0-.74.75A.74.74,0,0,0,199.18,35.56Z"/><path class="cls-2" d="M207.83,35.35a.53.53,0,1,0-.53-.53A.53.53,0,0,0,207.83,35.35Z"/><path class="cls-2" d="M216.48,35.11a.29.29,0,1,0-.29-.29A.29.29,0,0,0,216.48,35.11Z"/><path class="cls-2" d="M225.13,34.84s0,0,0,0a0,0,0,0,0,0,0s0,0,0,0A0,0,0,0,0,225.13,34.84Z"/><path class="cls-2" d="M34.82,43.73a.26.26,0,1,0,0-.52.26.26,0,1,0,0,.52Z"/><path class="cls-2" d="M43.47,44a.53.53,0,1,0-.53-.53A.53.53,0,0,0,43.47,44Z"/><path class="cls-2" d="M52.12,44.26a.79.79,0,1,0-.79-.79A.79.79,0,0,0,52.12,44.26Z"/><path class="cls-2" d="M60.77,44.48a1,1,0,1,0-1-1A1,1,0,0,0,60.77,44.48Z"/><path class="cls-2" d="M69.42,44.69a1.23,1.23,0,1,0-1.22-1.22A1.23,1.23,0,0,0,69.42,44.69Z"/><path class="cls-2" d="M78.07,44.88a1.42,1.42,0,1,0-1.41-1.41A1.42,1.42,0,0,0,78.07,44.88Z"/><path class="cls-2" d="M86.72,45a1.56,1.56,0,1,0-1.56-1.56A1.56,1.56,0,0,0,86.72,45Z"/><path class="cls-2" d="M95.37,45.17a1.7,1.7,0,1,0-1.7-1.7A1.71,1.71,0,0,0,95.37,45.17Z"/><path class="cls-2" d="M104,45.29a1.82,1.82,0,1,0-1.82-1.82A1.82,1.82,0,0,0,104,45.29Z"/><path class="cls-2" d="M112.68,45.37a1.9,1.9,0,1,0-1.9-1.9A1.9,1.9,0,0,0,112.68,45.37Z"/><path class="cls-2" d="M121.33,45.41a1.94,1.94,0,1,0-2-1.94A1.94,1.94,0,0,0,121.33,45.41Z"/><path class="cls-2" d="M130,45.44a2,2,0,1,0-2-2A2,2,0,0,0,130,45.44Z"/><path class="cls-2" d="M138.63,45.41a1.94,1.94,0,1,0-1.95-1.94A1.94,1.94,0,0,0,138.63,45.41Z"/><path class="cls-2" d="M147.28,45.37a1.9,1.9,0,1,0-1.9-1.9A1.9,1.9,0,0,0,147.28,45.37Z"/><path class="cls-2" d="M155.93,45.29a1.82,1.82,0,1,0-1.82-1.82A1.81,1.81,0,0,0,155.93,45.29Z"/><path class="cls-2" d="M164.58,45.2a1.73,1.73,0,1,0-1.73-1.73A1.74,1.74,0,0,0,164.58,45.2Z"/><path class="cls-2" d="M173.23,45.05a1.59,1.59,0,1,0-1.58-1.58A1.58,1.58,0,0,0,173.23,45.05Z"/><path class="cls-2" d="M181.88,44.91a1.44,1.44,0,1,0-1.44-1.44A1.44,1.44,0,0,0,181.88,44.91Z"/><path class="cls-2" d="M190.53,44.72a1.25,1.25,0,1,0-1.25-1.25A1.25,1.25,0,0,0,190.53,44.72Z"/><path class="cls-2" d="M199.18,44.5a1,1,0,1,0-1-1A1,1,0,0,0,199.18,44.5Z"/><path class="cls-2" d="M207.83,44.26a.79.79,0,1,0-.79-.79A.79.79,0,0,0,207.83,44.26Z"/><path class="cls-2" d="M216.48,44a.55.55,0,0,0,.55-.55.54.54,0,0,0-.55-.55.55.55,0,0,0-.55.55A.55.55,0,0,0,216.48,44Z"/><path class="cls-2" d="M225.13,43.76a.29.29,0,0,0,0-.58.29.29,0,0,0,0,.58Z"/><path class="cls-2" d="M233.78,43.49s0,0,0,0,0,0,0,0l0,0Z"/><path class="cls-2" d="M26.17,52.34a.22.22,0,0,0,0-.44.22.22,0,1,0,0,.44Z"/><path class="cls-2" d="M34.82,52.62a.5.5,0,1,0-.5-.5A.5.5,0,0,0,34.82,52.62Z"/><path class="cls-2" d="M43.47,52.91a.79.79,0,1,0-.79-.79A.79.79,0,0,0,43.47,52.91Z"/><path class="cls-2" d="M52.12,53.15a1,1,0,1,0-1-1A1,1,0,0,0,52.12,53.15Z"/><path class="cls-2" d="M60.77,53.39a1.27,1.27,0,1,0-1.27-1.27A1.27,1.27,0,0,0,60.77,53.39Z"/><path class="cls-2" d="M69.42,53.61a1.49,1.49,0,1,0-1.49-1.49A1.49,1.49,0,0,0,69.42,53.61Z"/><path class="cls-2" d="M78.07,53.8a1.68,1.68,0,1,0-1.68-1.68A1.68,1.68,0,0,0,78.07,53.8Z"/><path class="cls-2" d="M86.72,54a1.85,1.85,0,1,0-1.84-1.85A1.85,1.85,0,0,0,86.72,54Z"/><path class="cls-2" d="M95.37,54.13a2,2,0,1,0-2-2A2,2,0,0,0,95.37,54.13Z"/><path class="cls-2" d="M104,54.25a2.14,2.14,0,1,0-2.13-2.13A2.13,2.13,0,0,0,104,54.25Z"/><path class="cls-2" d="M112.68,54.33a2.21,2.21,0,1,0-2.21-2.21A2.21,2.21,0,0,0,112.68,54.33Z"/><path class="cls-2" d="M121.33,54.38a2.26,2.26,0,1,0-2.26-2.26A2.26,2.26,0,0,0,121.33,54.38Z"/><path class="cls-2" d="M130,54.4a2.28,2.28,0,1,0-2.28-2.28A2.28,2.28,0,0,0,130,54.4Z"/><path class="cls-2" d="M138.63,54.38a2.26,2.26,0,1,0-2.26-2.26A2.26,2.26,0,0,0,138.63,54.38Z"/><path class="cls-2" d="M147.28,54.33a2.21,2.21,0,1,0-2.21-2.21A2.2,2.2,0,0,0,147.28,54.33Z"/><path class="cls-2" d="M155.93,54.25a2.14,2.14,0,1,0-2.14-2.13A2.13,2.13,0,0,0,155.93,54.25Z"/><path class="cls-2" d="M164.58,54.13a2,2,0,1,0-2-2A2,2,0,0,0,164.58,54.13Z"/><path class="cls-2" d="M173.23,54a1.87,1.87,0,1,0-1.87-1.87A1.87,1.87,0,0,0,173.23,54Z"/><path class="cls-2" d="M181.88,53.82a1.7,1.7,0,1,0-1.7-1.7A1.7,1.7,0,0,0,181.88,53.82Z"/><path class="cls-2" d="M190.53,53.63A1.51,1.51,0,1,0,189,52.12,1.52,1.52,0,0,0,190.53,53.63Z"/><path class="cls-2" d="M199.18,53.41a1.3,1.3,0,1,0-1.29-1.29A1.3,1.3,0,0,0,199.18,53.41Z"/><path class="cls-2" d="M207.83,53.18a1.06,1.06,0,1,0-1.05-1.06A1.06,1.06,0,0,0,207.83,53.18Z"/><path class="cls-2" d="M216.48,52.91a.79.79,0,1,0-.79-.79A.79.79,0,0,0,216.48,52.91Z"/><path class="cls-2" d="M225.13,52.65a.53.53,0,1,0-.52-.53A.53.53,0,0,0,225.13,52.65Z"/><path class="cls-2" d="M233.78,52.36a.24.24,0,1,0,0-.48.24.24,0,1,0,0,.48Z"/><path class="cls-2" d="M17.52,60.89a.12.12,0,0,0,.12-.12.13.13,0,0,0-.12-.12.12.12,0,0,0-.12.12A.12.12,0,0,0,17.52,60.89Z"/><path class="cls-2" d="M26.17,61.2a.43.43,0,1,0-.43-.43A.43.43,0,0,0,26.17,61.2Z"/><path class="cls-2" d="M34.82,61.51a.74.74,0,0,0,0-1.48.74.74,0,1,0,0,1.48Z"/><path class="cls-2" d="M43.47,61.78a1,1,0,1,0-1-1A1,1,0,0,0,43.47,61.78Z"/><path class="cls-2" d="M52.12,62a1.27,1.27,0,1,0-1.27-1.27A1.27,1.27,0,0,0,52.12,62Z"/><path class="cls-2" d="M60.77,62.28a1.51,1.51,0,1,0-1.51-1.51A1.51,1.51,0,0,0,60.77,62.28Z"/><path class="cls-2" d="M69.42,62.52a1.75,1.75,0,1,0-1.75-1.75A1.75,1.75,0,0,0,69.42,62.52Z"/><path class="cls-2" d="M78.07,62.74a2,2,0,1,0-2-2A2,2,0,0,0,78.07,62.74Z"/><path class="cls-2" d="M86.72,62.91a2.14,2.14,0,1,0-2.13-2.14A2.14,2.14,0,0,0,86.72,62.91Z"/><path class="cls-2" d="M95.37,63.07a2.3,2.3,0,1,0-2.3-2.3A2.3,2.3,0,0,0,95.37,63.07Z"/><path class="cls-2" d="M104,63.19a2.42,2.42,0,1,0-2.42-2.42A2.42,2.42,0,0,0,104,63.19Z"/><path class="cls-2" d="M112.68,63.27a2.5,2.5,0,1,0-2.5-2.5A2.5,2.5,0,0,0,112.68,63.27Z"/><path class="cls-2" d="M121.33,63.34a2.57,2.57,0,1,0-2.57-2.57A2.57,2.57,0,0,0,121.33,63.34Z"/><path class="cls-2" d="M130,63.36a2.59,2.59,0,1,0-2.59-2.59A2.59,2.59,0,0,0,130,63.36Z"/><path class="cls-2" d="M138.63,63.34a2.57,2.57,0,1,0-2.57-2.57A2.57,2.57,0,0,0,138.63,63.34Z"/><path class="cls-2" d="M147.28,63.29a2.52,2.52,0,1,0-2.52-2.52A2.52,2.52,0,0,0,147.28,63.29Z"/><path class="cls-2" d="M155.93,63.22a2.45,2.45,0,1,0-2.45-2.45A2.45,2.45,0,0,0,155.93,63.22Z"/><path class="cls-2" d="M164.58,63.07a2.3,2.3,0,1,0-2.3-2.3A2.3,2.3,0,0,0,164.58,63.07Z"/><path class="cls-2" d="M173.23,62.93a2.16,2.16,0,1,0-2.16-2.16A2.16,2.16,0,0,0,173.23,62.93Z"/><path class="cls-2" d="M181.88,62.74a2,2,0,1,0-2-2A2,2,0,0,0,181.88,62.74Z"/><circle class="cls-2" cx="190.53" cy="60.77" r="1.78"/><path class="cls-2" d="M199.18,62.33a1.56,1.56,0,1,0-1.56-1.56A1.56,1.56,0,0,0,199.18,62.33Z"/><path class="cls-2" d="M207.83,62.07a1.3,1.3,0,1,0-1.29-1.3A1.3,1.3,0,0,0,207.83,62.07Z"/><path class="cls-2" d="M216.48,61.8a1,1,0,1,0-1-1A1,1,0,0,0,216.48,61.8Z"/><path class="cls-2" d="M225.13,61.51a.74.74,0,1,0,0-1.48.74.74,0,0,0,0,1.48Z"/><path class="cls-2" d="M233.78,61.23a.46.46,0,1,0-.45-.46A.46.46,0,0,0,233.78,61.23Z"/><path class="cls-2" d="M242.44,60.91a.14.14,0,0,0,0-.28.14.14,0,1,0,0,.28Z"/><path class="cls-2" d="M17.52,69.73a.31.31,0,1,0-.31-.31A.31.31,0,0,0,17.52,69.73Z"/><path class="cls-2" d="M26.17,70a.62.62,0,1,0-.63-.62A.62.62,0,0,0,26.17,70Z"/><path class="cls-2" d="M34.82,70.33a.91.91,0,1,0-.91-.91A.91.91,0,0,0,34.82,70.33Z"/><path class="cls-2" d="M43.47,70.64a1.22,1.22,0,1,0-1.22-1.22A1.21,1.21,0,0,0,43.47,70.64Z"/><path class="cls-2" d="M52.12,70.91a1.49,1.49,0,1,0-1.49-1.49A1.49,1.49,0,0,0,52.12,70.91Z"/><path class="cls-2" d="M60.77,71.17A1.75,1.75,0,1,0,59,69.42,1.75,1.75,0,0,0,60.77,71.17Z"/><path class="cls-2" d="M69.42,71.41a2,2,0,1,0-2-2A2,2,0,0,0,69.42,71.41Z"/><path class="cls-2" d="M78.07,71.63a2.21,2.21,0,1,0-2.21-2.21A2.21,2.21,0,0,0,78.07,71.63Z"/><path class="cls-2" d="M86.72,71.82a2.4,2.4,0,1,0-2.4-2.4A2.4,2.4,0,0,0,86.72,71.82Z"/><path class="cls-2" d="M95.37,72a2.54,2.54,0,1,0-2.54-2.54A2.54,2.54,0,0,0,95.37,72Z"/><path class="cls-2" d="M104,72.11a2.69,2.69,0,1,0-2.68-2.69A2.69,2.69,0,0,0,104,72.11Z"/><path class="cls-2" d="M112.68,72.2a2.78,2.78,0,1,0-2.79-2.78A2.78,2.78,0,0,0,112.68,72.2Z"/><path class="cls-2" d="M121.33,72.28a2.86,2.86,0,1,0-2.86-2.86A2.86,2.86,0,0,0,121.33,72.28Z"/><circle class="cls-2" cx="129.98" cy="69.42" r="2.88"/><path class="cls-2" d="M138.63,72.28a2.86,2.86,0,1,0-2.86-2.86A2.86,2.86,0,0,0,138.63,72.28Z"/><path class="cls-2" d="M147.28,72.23a2.81,2.81,0,1,0-2.81-2.81A2.8,2.8,0,0,0,147.28,72.23Z"/><path class="cls-2" d="M155.93,72.13a2.71,2.71,0,1,0-2.71-2.71A2.71,2.71,0,0,0,155.93,72.13Z"/><path class="cls-2" d="M164.58,72A2.57,2.57,0,1,0,162,69.42,2.57,2.57,0,0,0,164.58,72Z"/><path class="cls-2" d="M173.23,71.84a2.42,2.42,0,1,0-2.42-2.42A2.42,2.42,0,0,0,173.23,71.84Z"/><path class="cls-2" d="M181.88,71.65a2.23,2.23,0,1,0-2.23-2.23A2.23,2.23,0,0,0,181.88,71.65Z"/><path class="cls-2" d="M190.53,71.44a2,2,0,1,0-2-2A2,2,0,0,0,190.53,71.44Z"/><circle class="cls-2" cx="199.18" cy="69.42" r="1.78"/><path class="cls-2" d="M207.83,70.93a1.51,1.51,0,1,0-1.51-1.51A1.51,1.51,0,0,0,207.83,70.93Z"/><path class="cls-2" d="M216.48,70.67a1.25,1.25,0,1,0-1.24-1.25A1.25,1.25,0,0,0,216.48,70.67Z"/><path class="cls-2" d="M225.13,70.38a1,1,0,1,0-1-1A1,1,0,0,0,225.13,70.38Z"/><path class="cls-2" d="M233.78,70.07a.65.65,0,1,0-.64-.65A.65.65,0,0,0,233.78,70.07Z"/><path class="cls-2" d="M242.44,69.76a.34.34,0,1,0-.34-.34A.34.34,0,0,0,242.44,69.76Z"/><path class="cls-2" d="M8.87,78.21a.14.14,0,1,0,0-.28.14.14,0,1,0,0,.28Z"/><path class="cls-2" d="M17.52,78.53a.46.46,0,0,0,.45-.46.45.45,0,0,0-.45-.45.46.46,0,0,0-.46.45A.47.47,0,0,0,17.52,78.53Z"/><path class="cls-2" d="M26.17,78.86a.79.79,0,1,0-.79-.79A.79.79,0,0,0,26.17,78.86Z"/><path class="cls-2" d="M34.82,79.17a1.1,1.1,0,1,0-1.1-1.1A1.1,1.1,0,0,0,34.82,79.17Z"/><path class="cls-2" d="M43.47,79.49a1.42,1.42,0,1,0-1.42-1.42A1.42,1.42,0,0,0,43.47,79.49Z"/><path class="cls-2" d="M52.12,79.75a1.68,1.68,0,1,0-1.68-1.68A1.68,1.68,0,0,0,52.12,79.75Z"/><path class="cls-2" d="M60.77,80a2,2,0,1,0-2-2A2,2,0,0,0,60.77,80Z"/><path class="cls-2" d="M69.42,80.28a2.21,2.21,0,1,0-2.21-2.21A2.21,2.21,0,0,0,69.42,80.28Z"/><path class="cls-2" d="M78.07,80.52a2.45,2.45,0,1,0-2.45-2.45A2.45,2.45,0,0,0,78.07,80.52Z"/><path class="cls-2" d="M86.72,80.71a2.64,2.64,0,1,0-2.64-2.64A2.64,2.64,0,0,0,86.72,80.71Z"/><path class="cls-2" d="M95.37,80.88a2.81,2.81,0,1,0-2.8-2.81A2.81,2.81,0,0,0,95.37,80.88Z"/><circle class="cls-2" cx="104.02" cy="78.07" r="2.97"/><path class="cls-2" d="M112.68,81.14a3.07,3.07,0,1,0-3.08-3.07A3.06,3.06,0,0,0,112.68,81.14Z"/><path class="cls-2" d="M121.33,81.21a3.14,3.14,0,1,0-3.15-3.14A3.14,3.14,0,0,0,121.33,81.21Z"/><path class="cls-2" d="M130,81.21a3.14,3.14,0,1,0-3.15-3.14A3.14,3.14,0,0,0,130,81.21Z"/><path class="cls-2" d="M138.63,81.21a3.14,3.14,0,1,0-3.15-3.14A3.14,3.14,0,0,0,138.63,81.21Z"/><path class="cls-2" d="M147.28,81.14a3.07,3.07,0,1,0-3.07-3.07A3.07,3.07,0,0,0,147.28,81.14Z"/><path class="cls-2" d="M155.93,81a3,3,0,1,0-3-3A3,3,0,0,0,155.93,81Z"/><path class="cls-2" d="M164.58,80.9a2.83,2.83,0,1,0-2.83-2.83A2.83,2.83,0,0,0,164.58,80.9Z"/><path class="cls-2" d="M173.23,80.73a2.66,2.66,0,1,0-2.66-2.66A2.66,2.66,0,0,0,173.23,80.73Z"/><path class="cls-2" d="M181.88,80.52a2.45,2.45,0,1,0-2.45-2.45A2.45,2.45,0,0,0,181.88,80.52Z"/><path class="cls-2" d="M190.53,80.3a2.23,2.23,0,1,0-2.23-2.23A2.23,2.23,0,0,0,190.53,80.3Z"/><path class="cls-2" d="M199.18,80a2,2,0,1,0-2-2A2,2,0,0,0,199.18,80Z"/><path class="cls-2" d="M207.83,79.8a1.73,1.73,0,1,0-1.72-1.73A1.72,1.72,0,0,0,207.83,79.8Z"/><path class="cls-2" d="M216.48,79.51A1.44,1.44,0,1,0,215,78.07,1.43,1.43,0,0,0,216.48,79.51Z"/><path class="cls-2" d="M225.13,79.22a1.15,1.15,0,1,0,0-2.3,1.15,1.15,0,0,0,0,2.3Z"/><path class="cls-2" d="M233.78,78.89a.82.82,0,0,0,.82-.82.82.82,0,0,0-.82-.81.81.81,0,0,0-.81.81A.82.82,0,0,0,233.78,78.89Z"/><path class="cls-2" d="M242.44,78.58a.51.51,0,0,0,.5-.51.51.51,0,0,0-1,0A.51.51,0,0,0,242.44,78.58Z"/><path class="cls-2" d="M251.09,78.24a.17.17,0,0,0,0-.34.17.17,0,0,0,0,.34Z"/><path class="cls-2" d="M8.87,87a.27.27,0,1,0-.27-.27A.27.27,0,0,0,8.87,87Z"/><path class="cls-2" d="M17.52,87.35a.63.63,0,1,0-.63-.63A.63.63,0,0,0,17.52,87.35Z"/><path class="cls-2" d="M26.17,87.66a.94.94,0,1,0-.94-.94A.94.94,0,0,0,26.17,87.66Z"/><path class="cls-2" d="M34.82,88a1.27,1.27,0,1,0-1.27-1.27A1.27,1.27,0,0,0,34.82,88Z"/><path class="cls-2" d="M43.47,88.28a1.56,1.56,0,1,0-1.56-1.56A1.56,1.56,0,0,0,43.47,88.28Z"/><path class="cls-2" d="M52.12,88.57a1.85,1.85,0,1,0-1.85-1.85A1.85,1.85,0,0,0,52.12,88.57Z"/><path class="cls-2" d="M60.77,88.86a2.14,2.14,0,1,0-2.13-2.14A2.14,2.14,0,0,0,60.77,88.86Z"/><path class="cls-2" d="M69.42,89.12a2.4,2.4,0,1,0-2.4-2.4A2.39,2.39,0,0,0,69.42,89.12Z"/><path class="cls-2" d="M78.07,89.36a2.64,2.64,0,1,0-2.64-2.64A2.64,2.64,0,0,0,78.07,89.36Z"/><path class="cls-2" d="M86.72,89.58a2.86,2.86,0,1,0-2.85-2.86A2.86,2.86,0,0,0,86.72,89.58Z"/><path class="cls-2" d="M95.37,89.75a3,3,0,1,0-3-3A3,3,0,0,0,95.37,89.75Z"/><path class="cls-2" d="M104,89.91a3.19,3.19,0,1,0-3.19-3.19A3.19,3.19,0,0,0,104,89.91Z"/><path class="cls-2" d="M112.68,90a3.31,3.31,0,1,0-3.32-3.31A3.31,3.31,0,0,0,112.68,90Z"/><path class="cls-2" d="M121.33,90.11a3.39,3.39,0,1,0-3.39-3.39A3.39,3.39,0,0,0,121.33,90.11Z"/><path class="cls-2" d="M130,90.15a3.43,3.43,0,1,0-3.43-3.43A3.43,3.43,0,0,0,130,90.15Z"/><path class="cls-2" d="M138.63,90.11a3.39,3.39,0,1,0-3.39-3.39A3.39,3.39,0,0,0,138.63,90.11Z"/><path class="cls-2" d="M147.28,90A3.31,3.31,0,1,0,144,86.72,3.31,3.31,0,0,0,147.28,90Z"/><path class="cls-2" d="M155.93,89.91a3.19,3.19,0,1,0-3.19-3.19A3.19,3.19,0,0,0,155.93,89.91Z"/><path class="cls-2" d="M164.58,89.79a3.07,3.07,0,1,0-3.07-3.07A3.07,3.07,0,0,0,164.58,89.79Z"/><path class="cls-2" d="M173.23,89.6a2.88,2.88,0,1,0-2.88-2.88A2.88,2.88,0,0,0,173.23,89.6Z"/><path class="cls-2" d="M181.88,89.39a2.67,2.67,0,1,0-2.66-2.67A2.67,2.67,0,0,0,181.88,89.39Z"/><path class="cls-2" d="M190.53,89.14a2.42,2.42,0,1,0-2.42-2.42A2.42,2.42,0,0,0,190.53,89.14Z"/><path class="cls-2" d="M199.18,88.88A2.16,2.16,0,1,0,197,86.72,2.16,2.16,0,0,0,199.18,88.88Z"/><path class="cls-2" d="M207.83,88.62a1.9,1.9,0,1,0-1.89-1.9A1.9,1.9,0,0,0,207.83,88.62Z"/><path class="cls-2" d="M216.48,88.33a1.61,1.61,0,1,0-1.6-1.61A1.61,1.61,0,0,0,216.48,88.33Z"/><path class="cls-2" d="M225.13,88a1.3,1.3,0,1,0-1.29-1.3A1.3,1.3,0,0,0,225.13,88Z"/><path class="cls-2" d="M233.78,87.68a1,1,0,1,0-1-1A1,1,0,0,0,233.78,87.68Z"/><path class="cls-2" d="M242.44,87.37a.65.65,0,1,0-.65-.65A.65.65,0,0,0,242.44,87.37Z"/><path class="cls-2" d="M251.09,87a.31.31,0,1,0-.32-.31A.31.31,0,0,0,251.09,87Z"/><path class="cls-2" d="M.22,95.4s0,0,0,0a0,0,0,0,0,0,0s0,0,0,0A0,0,0,0,0,.22,95.4Z"/><path class="cls-2" d="M8.87,95.76a.39.39,0,1,0-.39-.39A.38.38,0,0,0,8.87,95.76Z"/><path class="cls-2" d="M17.52,96.12a.75.75,0,0,0,.74-.75.74.74,0,0,0-.74-.74.75.75,0,0,0-.75.74A.76.76,0,0,0,17.52,96.12Z"/><path class="cls-2" d="M26.17,96.45a1.08,1.08,0,1,0-1.08-1.08A1.08,1.08,0,0,0,26.17,96.45Z"/><path class="cls-2" d="M34.82,96.76a1.39,1.39,0,1,0-1.39-1.39A1.39,1.39,0,0,0,34.82,96.76Z"/><path class="cls-2" d="M43.47,97.08a1.71,1.71,0,1,0-1.7-1.71A1.71,1.71,0,0,0,43.47,97.08Z"/><path class="cls-2" d="M52.12,97.39a2,2,0,1,0-2-2A2,2,0,0,0,52.12,97.39Z"/><path class="cls-2" d="M60.77,97.68a2.31,2.31,0,1,0-2.3-2.31A2.31,2.31,0,0,0,60.77,97.68Z"/><path class="cls-2" d="M69.42,97.92a2.55,2.55,0,1,0-2.54-2.55A2.54,2.54,0,0,0,69.42,97.92Z"/><path class="cls-2" d="M78.07,98.18a2.81,2.81,0,1,0-2.8-2.81A2.81,2.81,0,0,0,78.07,98.18Z"/><path class="cls-2" d="M86.72,98.4a3,3,0,1,0-3-3A3,3,0,0,0,86.72,98.4Z"/><path class="cls-2" d="M95.37,98.61a3.24,3.24,0,1,0-3.23-3.24A3.24,3.24,0,0,0,95.37,98.61Z"/><path class="cls-2" d="M104,98.78a3.41,3.41,0,1,0-3.4-3.41A3.41,3.41,0,0,0,104,98.78Z"/><path class="cls-2" d="M112.68,98.92a3.55,3.55,0,1,0-3.56-3.55A3.54,3.54,0,0,0,112.68,98.92Z"/><path class="cls-2" d="M121.33,99a3.63,3.63,0,1,0-3.63-3.63A3.63,3.63,0,0,0,121.33,99Z"/><path class="cls-2" d="M130,99a3.67,3.67,0,1,0-3.67-3.67A3.67,3.67,0,0,0,130,99Z"/><path class="cls-2" d="M138.63,99A3.65,3.65,0,1,0,135,95.37,3.64,3.64,0,0,0,138.63,99Z"/><path class="cls-2" d="M147.28,98.92a3.55,3.55,0,1,0-3.55-3.55A3.55,3.55,0,0,0,147.28,98.92Z"/><path class="cls-2" d="M155.93,98.8a3.43,3.43,0,1,0-3.43-3.43A3.43,3.43,0,0,0,155.93,98.8Z"/><path class="cls-2" d="M164.58,98.63a3.26,3.26,0,1,0-3.26-3.26A3.26,3.26,0,0,0,164.58,98.63Z"/><path class="cls-2" d="M173.23,98.44a3.07,3.07,0,1,0-3.07-3.07A3.06,3.06,0,0,0,173.23,98.44Z"/><path class="cls-2" d="M181.88,98.23A2.86,2.86,0,1,0,179,95.37,2.85,2.85,0,0,0,181.88,98.23Z"/><path class="cls-2" d="M190.53,98a2.59,2.59,0,1,0-2.59-2.59A2.59,2.59,0,0,0,190.53,98Z"/><path class="cls-2" d="M199.18,97.7a2.33,2.33,0,1,0-2.32-2.33A2.33,2.33,0,0,0,199.18,97.7Z"/><path class="cls-2" d="M207.83,97.41a2,2,0,1,0-2-2A2,2,0,0,0,207.83,97.41Z"/><path class="cls-2" d="M216.48,97.1a1.73,1.73,0,1,0-1.72-1.73A1.72,1.72,0,0,0,216.48,97.1Z"/><path class="cls-2" d="M225.13,96.81a1.44,1.44,0,1,0-1.44-1.44A1.43,1.43,0,0,0,225.13,96.81Z"/><path class="cls-2" d="M233.78,96.48a1.11,1.11,0,1,0,0-2.21,1.11,1.11,0,0,0,0,2.21Z"/><path class="cls-2" d="M242.44,96.14a.77.77,0,1,0-.77-.77A.76.76,0,0,0,242.44,96.14Z"/><circle class="cls-2" cx="251.09" cy="95.37" r="0.41"/><path class="cls-2" d="M259.74,95.42a0,0,0,0,0,0,0s0-.05,0-.05a.05.05,0,0,0-.05.05A0,0,0,0,0,259.74,95.42Z"/><path class="cls-2" d="M.22,104.12a.09.09,0,0,0,.09-.1.09.09,0,0,0-.09-.09.09.09,0,0,0-.1.09A.09.09,0,0,0,.22,104.12Z"/><path class="cls-2" d="M8.87,104.5a.48.48,0,0,0,.48-.48.49.49,0,0,0-.48-.48.48.48,0,0,0-.48.48A.47.47,0,0,0,8.87,104.5Z"/><path class="cls-2" d="M17.52,104.84a.82.82,0,0,0,.81-.82.81.81,0,0,0-.81-.81.82.82,0,0,0-.82.81A.82.82,0,0,0,17.52,104.84Z"/><path class="cls-2" d="M26.17,105.18A1.16,1.16,0,1,0,25,104,1.16,1.16,0,0,0,26.17,105.18Z"/><path class="cls-2" d="M34.82,105.51A1.49,1.49,0,1,0,33.33,104,1.49,1.49,0,0,0,34.82,105.51Z"/><path class="cls-2" d="M43.47,105.85A1.83,1.83,0,1,0,41.65,104,1.82,1.82,0,0,0,43.47,105.85Z"/><path class="cls-2" d="M52.12,106.16A2.14,2.14,0,1,0,50,104,2.14,2.14,0,0,0,52.12,106.16Z"/><path class="cls-2" d="M60.77,106.45A2.43,2.43,0,1,0,58.35,104,2.42,2.42,0,0,0,60.77,106.45Z"/><path class="cls-2" d="M69.42,106.71A2.69,2.69,0,1,0,66.73,104,2.69,2.69,0,0,0,69.42,106.71Z"/><circle class="cls-2" cx="78.07" cy="104.02" r="2.97"/><path class="cls-2" d="M86.72,107.21A3.19,3.19,0,1,0,83.53,104,3.19,3.19,0,0,0,86.72,107.21Z"/><path class="cls-2" d="M95.37,107.43A3.41,3.41,0,1,0,92,104,3.41,3.41,0,0,0,95.37,107.43Z"/><path class="cls-2" d="M104,107.62a3.6,3.6,0,1,0-3.59-3.6A3.6,3.6,0,0,0,104,107.62Z"/><path class="cls-2" d="M112.68,107.77a3.75,3.75,0,1,0-3.75-3.75A3.75,3.75,0,0,0,112.68,107.77Z"/><path class="cls-2" d="M121.33,107.86a3.84,3.84,0,1,0-3.84-3.84A3.84,3.84,0,0,0,121.33,107.86Z"/><path class="cls-2" d="M130,107.91a3.89,3.89,0,1,0-3.89-3.89A3.89,3.89,0,0,0,130,107.91Z"/><path class="cls-2" d="M138.63,107.86a3.84,3.84,0,1,0-3.84-3.84A3.84,3.84,0,0,0,138.63,107.86Z"/><path class="cls-2" d="M147.28,107.79a3.77,3.77,0,1,0-3.77-3.77A3.76,3.76,0,0,0,147.28,107.79Z"/><path class="cls-2" d="M155.93,107.62a3.6,3.6,0,1,0-3.6-3.6A3.6,3.6,0,0,0,155.93,107.62Z"/><path class="cls-2" d="M164.58,107.45a3.43,3.43,0,1,0-3.43-3.43A3.43,3.43,0,0,0,164.58,107.45Z"/><path class="cls-2" d="M173.23,107.24A3.22,3.22,0,1,0,170,104,3.22,3.22,0,0,0,173.23,107.24Z"/><circle class="cls-2" cx="181.88" cy="104.02" r="2.97"/><path class="cls-2" d="M190.53,106.76A2.74,2.74,0,1,0,187.8,104,2.74,2.74,0,0,0,190.53,106.76Z"/><path class="cls-2" d="M199.18,106.47a2.45,2.45,0,1,0-2.45-2.45A2.45,2.45,0,0,0,199.18,106.47Z"/><path class="cls-2" d="M207.83,106.18a2.16,2.16,0,1,0-2.16-2.16A2.16,2.16,0,0,0,207.83,106.18Z"/><path class="cls-2" d="M216.48,105.87a1.85,1.85,0,1,0-1.84-1.85A1.85,1.85,0,0,0,216.48,105.87Z"/><path class="cls-2" d="M225.13,105.56A1.54,1.54,0,1,0,223.6,104,1.54,1.54,0,0,0,225.13,105.56Z"/><path class="cls-2" d="M233.78,105.22a1.2,1.2,0,0,0,0-2.4,1.2,1.2,0,1,0,0,2.4Z"/><path class="cls-2" d="M242.44,104.86a.84.84,0,1,0-.84-.84A.83.83,0,0,0,242.44,104.86Z"/><path class="cls-2" d="M251.09,104.53a.51.51,0,1,0-.51-.51A.51.51,0,0,0,251.09,104.53Z"/><path class="cls-2" d="M259.74,104.17a.15.15,0,0,0,.14-.15.14.14,0,0,0-.14-.14.15.15,0,0,0-.15.14A.15.15,0,0,0,259.74,104.17Z"/><path class="cls-2" d="M.22,112.84a.16.16,0,0,0,.16-.17.16.16,0,0,0-.16-.16.16.16,0,0,0-.17.16A.16.16,0,0,0,.22,112.84Z"/><path class="cls-2" d="M8.87,113.2a.53.53,0,1,0-.53-.53A.52.52,0,0,0,8.87,113.2Z"/><path class="cls-2" d="M17.52,113.56a.89.89,0,1,0-.89-.89A.88.88,0,0,0,17.52,113.56Z"/><path class="cls-2" d="M26.17,113.92a1.25,1.25,0,1,0-1.25-1.25A1.25,1.25,0,0,0,26.17,113.92Z"/><path class="cls-2" d="M34.82,114.23a1.56,1.56,0,1,0-1.56-1.56A1.56,1.56,0,0,0,34.82,114.23Z"/><path class="cls-2" d="M43.47,114.57a1.9,1.9,0,1,0-1.9-1.9A1.89,1.89,0,0,0,43.47,114.57Z"/><path class="cls-2" d="M52.12,114.88a2.21,2.21,0,1,0-2.21-2.21A2.21,2.21,0,0,0,52.12,114.88Z"/><path class="cls-2" d="M60.77,115.17a2.5,2.5,0,1,0-2.49-2.5A2.5,2.5,0,0,0,60.77,115.17Z"/><path class="cls-2" d="M69.42,115.46a2.79,2.79,0,1,0-2.78-2.79A2.78,2.78,0,0,0,69.42,115.46Z"/><circle class="cls-2" cx="78.07" cy="112.67" r="3.07"/><path class="cls-2" d="M86.72,116a3.31,3.31,0,1,0-3.31-3.31A3.31,3.31,0,0,0,86.72,116Z"/><path class="cls-2" d="M95.37,116.22a3.55,3.55,0,1,0-3.55-3.55A3.55,3.55,0,0,0,95.37,116.22Z"/><path class="cls-2" d="M104,116.42a3.75,3.75,0,1,0-3.74-3.75A3.75,3.75,0,0,0,104,116.42Z"/><path class="cls-2" d="M112.68,116.58a3.91,3.91,0,1,0-3.92-3.91A3.91,3.91,0,0,0,112.68,116.58Z"/><path class="cls-2" d="M121.33,116.71a4,4,0,1,0-4-4A4,4,0,0,0,121.33,116.71Z"/><path class="cls-2" d="M130,116.75a4.08,4.08,0,1,0-4.08-4.08A4.07,4.07,0,0,0,130,116.75Z"/><path class="cls-2" d="M138.63,116.71a4,4,0,1,0-4-4A4,4,0,0,0,138.63,116.71Z"/><path class="cls-2" d="M147.28,116.61a3.94,3.94,0,1,0-3.94-3.94A3.93,3.93,0,0,0,147.28,116.61Z"/><path class="cls-2" d="M155.93,116.44a3.77,3.77,0,1,0-3.77-3.77A3.76,3.76,0,0,0,155.93,116.44Z"/><path class="cls-2" d="M164.58,116.22a3.55,3.55,0,1,0-3.55-3.55A3.55,3.55,0,0,0,164.58,116.22Z"/><path class="cls-2" d="M173.23,116a3.34,3.34,0,1,0-3.33-3.34A3.33,3.33,0,0,0,173.23,116Z"/><path class="cls-2" d="M181.88,115.74a3.07,3.07,0,1,0-3.07-3.07A3.06,3.06,0,0,0,181.88,115.74Z"/><path class="cls-2" d="M190.53,115.51a2.84,2.84,0,1,0-2.83-2.84A2.84,2.84,0,0,0,190.53,115.51Z"/><path class="cls-2" d="M199.18,115.22a2.55,2.55,0,1,0-2.54-2.55A2.54,2.54,0,0,0,199.18,115.22Z"/><path class="cls-2" d="M207.83,114.93a2.26,2.26,0,1,0-2.25-2.26A2.26,2.26,0,0,0,207.83,114.93Z"/><path class="cls-2" d="M216.48,114.59a1.92,1.92,0,1,0-1.92-1.92A1.92,1.92,0,0,0,216.48,114.59Z"/><path class="cls-2" d="M225.13,114.28a1.61,1.61,0,1,0-1.6-1.61A1.61,1.61,0,0,0,225.13,114.28Z"/><circle class="cls-2" cx="233.78" cy="112.67" r="1.27"/><path class="cls-2" d="M242.44,113.58a.91.91,0,1,0-.92-.91A.91.91,0,0,0,242.44,113.58Z"/><path class="cls-2" d="M251.09,113.25a.58.58,0,1,0-.58-.58A.58.58,0,0,0,251.09,113.25Z"/><path class="cls-2" d="M259.74,112.89a.21.21,0,0,0,.21-.22.21.21,0,0,0-.21-.21.21.21,0,0,0-.22.21A.22.22,0,0,0,259.74,112.89Z"/><path class="cls-2" d="M.22,121.54a.21.21,0,0,0,.21-.22.21.21,0,0,0-.21-.21.22.22,0,1,0,0,.43Z"/><path class="cls-2" d="M8.87,121.9a.58.58,0,1,0-.58-.58A.58.58,0,0,0,8.87,121.9Z"/><path class="cls-2" d="M17.52,122.26a.94.94,0,1,0-.94-.94A.94.94,0,0,0,17.52,122.26Z"/><path class="cls-2" d="M26.17,122.6a1.28,1.28,0,1,0-1.27-1.28A1.27,1.27,0,0,0,26.17,122.6Z"/><path class="cls-2" d="M34.82,122.93a1.61,1.61,0,1,0-1.61-1.61A1.61,1.61,0,0,0,34.82,122.93Z"/><path class="cls-2" d="M43.47,123.27a1.95,1.95,0,1,0-1.94-2A1.94,1.94,0,0,0,43.47,123.27Z"/><path class="cls-2" d="M52.12,123.58a2.26,2.26,0,1,0-2.26-2.26A2.26,2.26,0,0,0,52.12,123.58Z"/><path class="cls-2" d="M60.77,123.89a2.57,2.57,0,1,0-2.57-2.57A2.57,2.57,0,0,0,60.77,123.89Z"/><path class="cls-2" d="M69.42,124.18a2.86,2.86,0,1,0-2.85-2.86A2.86,2.86,0,0,0,69.42,124.18Z"/><path class="cls-2" d="M78.07,124.47a3.15,3.15,0,1,0-3.14-3.15A3.14,3.14,0,0,0,78.07,124.47Z"/><path class="cls-2" d="M86.72,124.71a3.39,3.39,0,1,0-3.38-3.39A3.39,3.39,0,0,0,86.72,124.71Z"/><path class="cls-2" d="M95.37,125a3.63,3.63,0,1,0-3.62-3.63A3.63,3.63,0,0,0,95.37,125Z"/><circle class="cls-2" cx="104.02" cy="121.32" r="3.84"/><path class="cls-2" d="M112.68,125.36a4,4,0,1,0-4-4A4,4,0,0,0,112.68,125.36Z"/><path class="cls-2" d="M121.33,125.5a4.18,4.18,0,1,0-4.18-4.18A4.18,4.18,0,0,0,121.33,125.5Z"/><path class="cls-2" d="M130,125.57a4.25,4.25,0,1,0-4.25-4.25A4.24,4.24,0,0,0,130,125.57Z"/><path class="cls-2" d="M138.63,125.52a4.2,4.2,0,1,0-4.2-4.2A4.2,4.2,0,0,0,138.63,125.52Z"/><path class="cls-2" d="M147.28,125.38a4.06,4.06,0,1,0-4.06-4.06A4.05,4.05,0,0,0,147.28,125.38Z"/><path class="cls-2" d="M155.93,125.19a3.87,3.87,0,1,0-3.86-3.87A3.86,3.86,0,0,0,155.93,125.19Z"/><path class="cls-2" d="M164.58,125a3.65,3.65,0,1,0-3.65-3.65A3.65,3.65,0,0,0,164.58,125Z"/><path class="cls-2" d="M173.23,124.76a3.44,3.44,0,1,0-3.43-3.44A3.44,3.44,0,0,0,173.23,124.76Z"/><path class="cls-2" d="M181.88,124.47a3.15,3.15,0,1,0-3.14-3.15A3.14,3.14,0,0,0,181.88,124.47Z"/><path class="cls-2" d="M190.53,124.2a2.88,2.88,0,1,0-2.88-2.88A2.88,2.88,0,0,0,190.53,124.2Z"/><path class="cls-2" d="M199.18,123.92a2.6,2.6,0,1,0-2.59-2.6A2.59,2.59,0,0,0,199.18,123.92Z"/><path class="cls-2" d="M207.83,123.63a2.31,2.31,0,1,0-2.3-2.31A2.3,2.3,0,0,0,207.83,123.63Z"/><circle class="cls-2" cx="216.48" cy="121.32" r="1.97"/><path class="cls-2" d="M225.13,123a1.66,1.66,0,1,0-1.65-1.66A1.66,1.66,0,0,0,225.13,123Z"/><path class="cls-2" d="M233.78,122.64a1.32,1.32,0,1,0-1.32-1.32A1.32,1.32,0,0,0,233.78,122.64Z"/><path class="cls-2" d="M242.44,122.29a1,1,0,0,0,.95-1,1,1,0,1,0-.95,1Z"/><path class="cls-2" d="M251.09,122a.63.63,0,1,0-.63-.63A.63.63,0,0,0,251.09,122Z"/><path class="cls-2" d="M259.74,121.56a.24.24,0,1,0,0-.47.24.24,0,1,0,0,.47Z"/><path class="cls-2" d="M.22,130.19A.21.21,0,0,0,.43,130a.21.21,0,0,0-.21-.22A.22.22,0,0,0,0,130,.21.21,0,0,0,.22,130.19Z"/><path class="cls-2" d="M8.87,130.57a.6.6,0,1,0-.6-.59A.59.59,0,0,0,8.87,130.57Z"/><path class="cls-2" d="M17.52,130.94a1,1,0,1,0-1-1A1,1,0,0,0,17.52,130.94Z"/><path class="cls-2" d="M26.17,131.27a1.3,1.3,0,1,0-1.3-1.29A1.29,1.29,0,0,0,26.17,131.27Z"/><path class="cls-2" d="M34.82,131.61A1.64,1.64,0,1,0,33.19,130,1.63,1.63,0,0,0,34.82,131.61Z"/><path class="cls-2" d="M43.47,131.94a2,2,0,1,0-2-2A2,2,0,0,0,43.47,131.94Z"/><path class="cls-2" d="M52.12,132.25A2.28,2.28,0,1,0,49.84,130,2.28,2.28,0,0,0,52.12,132.25Z"/><path class="cls-2" d="M60.77,132.57A2.6,2.6,0,1,0,58.18,130,2.59,2.59,0,0,0,60.77,132.57Z"/><path class="cls-2" d="M69.42,132.85A2.88,2.88,0,1,0,66.54,130,2.87,2.87,0,0,0,69.42,132.85Z"/><path class="cls-2" d="M78.07,133.12A3.15,3.15,0,1,0,74.93,130,3.14,3.14,0,0,0,78.07,133.12Z"/><path class="cls-2" d="M86.72,133.41A3.44,3.44,0,1,0,83.29,130,3.43,3.43,0,0,0,86.72,133.41Z"/><path class="cls-2" d="M95.37,133.65A3.68,3.68,0,1,0,91.7,130,3.67,3.67,0,0,0,95.37,133.65Z"/><path class="cls-2" d="M104,133.86a3.89,3.89,0,1,0-3.88-3.88A3.89,3.89,0,0,0,104,133.86Z"/><path class="cls-2" d="M112.68,134.05A4.08,4.08,0,1,0,108.6,130,4.07,4.07,0,0,0,112.68,134.05Z"/><path class="cls-2" d="M121.33,134.22a4.25,4.25,0,1,0-4.25-4.24A4.24,4.24,0,0,0,121.33,134.22Z"/><path class="cls-2" d="M130,134.32a4.35,4.35,0,1,0-4.35-4.34A4.35,4.35,0,0,0,130,134.32Z"/><path class="cls-2" d="M138.63,134.22a4.25,4.25,0,1,0-4.25-4.24A4.24,4.24,0,0,0,138.63,134.22Z"/><path class="cls-2" d="M147.28,134.08a4.11,4.11,0,1,0-4.1-4.1A4.11,4.11,0,0,0,147.28,134.08Z"/><path class="cls-2" d="M155.93,133.89A3.92,3.92,0,1,0,152,130,3.92,3.92,0,0,0,155.93,133.89Z"/><path class="cls-2" d="M164.58,133.65a3.68,3.68,0,1,0-3.67-3.67A3.67,3.67,0,0,0,164.58,133.65Z"/><path class="cls-2" d="M173.23,133.41A3.44,3.44,0,1,0,169.8,130,3.44,3.44,0,0,0,173.23,133.41Z"/><path class="cls-2" d="M181.88,133.17a3.19,3.19,0,1,0-3.19-3.19A3.19,3.19,0,0,0,181.88,133.17Z"/><path class="cls-2" d="M190.53,132.88a2.91,2.91,0,1,0-2.9-2.9A2.9,2.9,0,0,0,190.53,132.88Z"/><path class="cls-2" d="M199.18,132.59a2.62,2.62,0,1,0-2.61-2.61A2.62,2.62,0,0,0,199.18,132.59Z"/><path class="cls-2" d="M207.83,132.3a2.33,2.33,0,1,0-2.32-2.32A2.32,2.32,0,0,0,207.83,132.3Z"/><path class="cls-2" d="M216.48,132a2,2,0,1,0-2-2A2,2,0,0,0,216.48,132Z"/><path class="cls-2" d="M225.13,131.65a1.68,1.68,0,1,0-1.68-1.67A1.68,1.68,0,0,0,225.13,131.65Z"/><path class="cls-2" d="M233.78,131.29a1.32,1.32,0,1,0,0-2.63,1.32,1.32,0,1,0,0,2.63Z"/><path class="cls-2" d="M242.44,131a1,1,0,1,0-1-1A1,1,0,0,0,242.44,131Z"/><path class="cls-2" d="M251.09,130.6a.63.63,0,1,0-.63-.62A.62.62,0,0,0,251.09,130.6Z"/><path class="cls-2" d="M259.74,130.24a.27.27,0,0,0,0-.53.27.27,0,1,0,0,.53Z"/><path class="cls-2" d="M.22,138.84a.21.21,0,0,0,.21-.21.21.21,0,0,0-.21-.22.22.22,0,0,0-.22.22A.21.21,0,0,0,.22,138.84Z"/><path class="cls-2" d="M8.87,139.2a.58.58,0,1,0-.58-.57A.58.58,0,0,0,8.87,139.2Z"/><path class="cls-2" d="M17.52,139.56a.94.94,0,1,0-.94-.93A.93.93,0,0,0,17.52,139.56Z"/><path class="cls-2" d="M26.17,139.9a1.27,1.27,0,1,0-1.27-1.27A1.27,1.27,0,0,0,26.17,139.9Z"/><path class="cls-2" d="M34.82,140.23a1.61,1.61,0,1,0-1.61-1.6A1.61,1.61,0,0,0,34.82,140.23Z"/><path class="cls-2" d="M43.47,140.57a1.95,1.95,0,1,0-1.94-1.94A1.94,1.94,0,0,0,43.47,140.57Z"/><path class="cls-2" d="M52.12,140.88a2.26,2.26,0,1,0-2.26-2.25A2.25,2.25,0,0,0,52.12,140.88Z"/><path class="cls-2" d="M60.77,141.19a2.57,2.57,0,1,0-2.57-2.56A2.57,2.57,0,0,0,60.77,141.19Z"/><path class="cls-2" d="M69.42,141.48a2.86,2.86,0,1,0-2.85-2.85A2.86,2.86,0,0,0,69.42,141.48Z"/><path class="cls-2" d="M78.07,141.77a3.15,3.15,0,1,0-3.14-3.14A3.14,3.14,0,0,0,78.07,141.77Z"/><path class="cls-2" d="M86.72,142a3.39,3.39,0,1,0-3.38-3.38A3.39,3.39,0,0,0,86.72,142Z"/><path class="cls-2" d="M95.37,142.27a3.65,3.65,0,1,0-3.64-3.64A3.64,3.64,0,0,0,95.37,142.27Z"/><path class="cls-2" d="M104,142.46a3.84,3.84,0,1,0-3.83-3.83A3.83,3.83,0,0,0,104,142.46Z"/><path class="cls-2" d="M112.68,142.66a4,4,0,1,0-4-4A4,4,0,0,0,112.68,142.66Z"/><path class="cls-2" d="M121.33,142.82a4.2,4.2,0,1,0-4.2-4.19A4.19,4.19,0,0,0,121.33,142.82Z"/><path class="cls-2" d="M130,142.87a4.25,4.25,0,1,0-4.25-4.24A4.24,4.24,0,0,0,130,142.87Z"/><path class="cls-2" d="M138.63,142.82a4.2,4.2,0,1,0-4.2-4.19A4.19,4.19,0,0,0,138.63,142.82Z"/><path class="cls-2" d="M147.28,142.68a4.06,4.06,0,1,0-4.06-4.05A4,4,0,0,0,147.28,142.68Z"/><path class="cls-2" d="M155.93,142.51a3.89,3.89,0,1,0-3.89-3.88A3.88,3.88,0,0,0,155.93,142.51Z"/><path class="cls-2" d="M164.58,142.3a3.67,3.67,0,1,0-3.67-3.67A3.67,3.67,0,0,0,164.58,142.3Z"/><path class="cls-2" d="M173.23,142.06a3.43,3.43,0,1,0-3.43-3.43A3.44,3.44,0,0,0,173.23,142.06Z"/><path class="cls-2" d="M181.88,141.79a3.17,3.17,0,1,0-3.17-3.16A3.16,3.16,0,0,0,181.88,141.79Z"/><path class="cls-2" d="M190.53,141.53a2.91,2.91,0,1,0-2.9-2.9A2.9,2.9,0,0,0,190.53,141.53Z"/><path class="cls-2" d="M199.18,141.24a2.62,2.62,0,1,0-2.61-2.61A2.62,2.62,0,0,0,199.18,141.24Z"/><path class="cls-2" d="M207.83,140.93a2.31,2.31,0,1,0-2.3-2.3A2.3,2.3,0,0,0,207.83,140.93Z"/><path class="cls-2" d="M216.48,140.59a2,2,0,1,0-2-2A2,2,0,0,0,216.48,140.59Z"/><path class="cls-2" d="M225.13,140.28a1.66,1.66,0,1,0-1.65-1.65A1.65,1.65,0,0,0,225.13,140.28Z"/><path class="cls-2" d="M233.78,140a1.32,1.32,0,1,0-1.32-1.32A1.32,1.32,0,0,0,233.78,140Z"/><path class="cls-2" d="M242.44,139.59a1,1,0,1,0-1-1A1,1,0,0,0,242.44,139.59Z"/><path class="cls-2" d="M251.09,139.25a.63.63,0,1,0-.63-.62A.62.62,0,0,0,251.09,139.25Z"/><path class="cls-2" d="M259.74,138.89a.27.27,0,0,0,0-.53.27.27,0,1,0,0,.53Z"/><path class="cls-2" d="M.22,147.45a.17.17,0,0,0,0-.34.17.17,0,0,0,0,.34Z"/><path class="cls-2" d="M8.87,147.83a.56.56,0,1,0-.55-.55A.55.55,0,0,0,8.87,147.83Z"/><path class="cls-2" d="M17.52,148.19a.91.91,0,1,0,0-1.82.91.91,0,0,0,0,1.82Z"/><path class="cls-2" d="M26.17,148.53a1.25,1.25,0,1,0-1.25-1.25A1.26,1.26,0,0,0,26.17,148.53Z"/><path class="cls-2" d="M34.82,148.86a1.59,1.59,0,1,0-1.58-1.58A1.58,1.58,0,0,0,34.82,148.86Z"/><path class="cls-2" d="M43.47,149.17a1.9,1.9,0,1,0-1.9-1.89A1.89,1.89,0,0,0,43.47,149.17Z"/><path class="cls-2" d="M52.12,149.48a2.21,2.21,0,1,0-2.21-2.2A2.2,2.2,0,0,0,52.12,149.48Z"/><path class="cls-2" d="M60.77,149.79a2.52,2.52,0,1,0-2.52-2.51A2.51,2.51,0,0,0,60.77,149.79Z"/><path class="cls-2" d="M69.42,150.08a2.81,2.81,0,1,0-2.81-2.8A2.8,2.8,0,0,0,69.42,150.08Z"/><path class="cls-2" d="M78.07,150.35A3.07,3.07,0,1,0,75,147.28,3.07,3.07,0,0,0,78.07,150.35Z"/><path class="cls-2" d="M86.72,150.59a3.31,3.31,0,1,0-3.31-3.31A3.31,3.31,0,0,0,86.72,150.59Z"/><path class="cls-2" d="M95.37,150.83a3.55,3.55,0,1,0-3.55-3.55A3.55,3.55,0,0,0,95.37,150.83Z"/><path class="cls-2" d="M104,151a3.77,3.77,0,1,0-3.76-3.76A3.76,3.76,0,0,0,104,151Z"/><path class="cls-2" d="M112.68,151.21a3.94,3.94,0,1,0-3.94-3.93A3.93,3.93,0,0,0,112.68,151.21Z"/><path class="cls-2" d="M121.33,151.33a4.06,4.06,0,1,0-4.06-4.05A4,4,0,0,0,121.33,151.33Z"/><path class="cls-2" d="M130,151.38a4.1,4.1,0,1,0-4.11-4.1A4.11,4.11,0,0,0,130,151.38Z"/><path class="cls-2" d="M138.63,151.33a4.06,4.06,0,1,0-4.06-4.05A4,4,0,0,0,138.63,151.33Z"/><path class="cls-2" d="M147.28,151.23a4,4,0,1,0-4-3.95A4,4,0,0,0,147.28,151.23Z"/><path class="cls-2" d="M155.93,151.07a3.79,3.79,0,1,0-3.79-3.79A3.79,3.79,0,0,0,155.93,151.07Z"/><path class="cls-2" d="M164.58,150.85a3.58,3.58,0,1,0-3.58-3.57A3.57,3.57,0,0,0,164.58,150.85Z"/><path class="cls-2" d="M173.23,150.63a3.36,3.36,0,1,0-3.36-3.35A3.36,3.36,0,0,0,173.23,150.63Z"/><path class="cls-2" d="M181.88,150.37a3.1,3.1,0,1,0-3.09-3.09A3.09,3.09,0,0,0,181.88,150.37Z"/><path class="cls-2" d="M190.53,150.11a2.83,2.83,0,1,0-2.83-2.83A2.83,2.83,0,0,0,190.53,150.11Z"/><path class="cls-2" d="M199.18,149.82a2.55,2.55,0,1,0-2.54-2.54A2.54,2.54,0,0,0,199.18,149.82Z"/><path class="cls-2" d="M207.83,149.53a2.26,2.26,0,1,0-2.25-2.25A2.26,2.26,0,0,0,207.83,149.53Z"/><path class="cls-2" d="M216.48,149.22a1.95,1.95,0,1,0-1.94-1.94A1.94,1.94,0,0,0,216.48,149.22Z"/><path class="cls-2" d="M225.13,148.88a1.61,1.61,0,1,0-1.6-1.6A1.6,1.6,0,0,0,225.13,148.88Z"/><path class="cls-2" d="M233.78,148.55a1.27,1.27,0,1,0-1.27-1.27A1.27,1.27,0,0,0,233.78,148.55Z"/><path class="cls-2" d="M242.44,148.21a.94.94,0,1,0-.94-.93A.93.93,0,0,0,242.44,148.21Z"/><path class="cls-2" d="M251.09,147.85a.58.58,0,1,0-.58-.57A.58.58,0,0,0,251.09,147.85Z"/><path class="cls-2" d="M259.74,147.49a.21.21,0,0,0,.21-.21.21.21,0,0,0-.21-.22.22.22,0,0,0-.22.22A.21.21,0,0,0,259.74,147.49Z"/><path class="cls-2" d="M.22,156.05a.13.13,0,0,0,.12-.12.12.12,0,0,0-.12-.12.12.12,0,0,0-.12.12A.12.12,0,0,0,.22,156.05Z"/><path class="cls-2" d="M8.87,156.41a.49.49,0,0,0,.48-.48.48.48,0,0,0-.48-.48.47.47,0,0,0-.48.48A.48.48,0,0,0,8.87,156.41Z"/><path class="cls-2" d="M17.52,156.77a.84.84,0,0,0,0-1.68.84.84,0,1,0,0,1.68Z"/><path class="cls-2" d="M26.17,157.1a1.18,1.18,0,0,0,0-2.35,1.18,1.18,0,1,0,0,2.35Z"/><path class="cls-2" d="M34.82,157.42a1.49,1.49,0,1,0-1.49-1.49A1.49,1.49,0,0,0,34.82,157.42Z"/><path class="cls-2" d="M43.47,157.75a1.83,1.83,0,1,0-1.82-1.82A1.81,1.81,0,0,0,43.47,157.75Z"/><path class="cls-2" d="M52.12,158.06A2.14,2.14,0,1,0,50,155.93,2.13,2.13,0,0,0,52.12,158.06Z"/><path class="cls-2" d="M60.77,158.38a2.45,2.45,0,1,0-2.45-2.45A2.45,2.45,0,0,0,60.77,158.38Z"/><path class="cls-2" d="M69.42,158.64a2.71,2.71,0,1,0-2.71-2.71A2.71,2.71,0,0,0,69.42,158.64Z"/><circle class="cls-2" cx="78.07" cy="155.93" r="2.97"/><path class="cls-2" d="M86.72,159.12a3.19,3.19,0,1,0-3.19-3.19A3.19,3.19,0,0,0,86.72,159.12Z"/><path class="cls-2" d="M95.37,159.36a3.43,3.43,0,1,0-3.43-3.43A3.43,3.43,0,0,0,95.37,159.36Z"/><path class="cls-2" d="M104,159.53a3.6,3.6,0,1,0-3.59-3.6A3.6,3.6,0,0,0,104,159.53Z"/><path class="cls-2" d="M112.68,159.69a3.77,3.77,0,1,0-3.77-3.76A3.76,3.76,0,0,0,112.68,159.69Z"/><path class="cls-2" d="M121.33,159.79a3.86,3.86,0,1,0-3.87-3.86A3.86,3.86,0,0,0,121.33,159.79Z"/><path class="cls-2" d="M130,159.84a3.91,3.91,0,1,0-3.91-3.91A3.91,3.91,0,0,0,130,159.84Z"/><path class="cls-2" d="M138.63,159.81a3.89,3.89,0,1,0-3.89-3.88A3.88,3.88,0,0,0,138.63,159.81Z"/><path class="cls-2" d="M147.28,159.72a3.79,3.79,0,1,0-3.79-3.79A3.79,3.79,0,0,0,147.28,159.72Z"/><path class="cls-2" d="M155.93,159.55a3.63,3.63,0,1,0-3.62-3.62A3.62,3.62,0,0,0,155.93,159.55Z"/><path class="cls-2" d="M164.58,159.36a3.43,3.43,0,1,0-3.43-3.43A3.44,3.44,0,0,0,164.58,159.36Z"/><path class="cls-2" d="M173.23,159.17a3.24,3.24,0,1,0-3.24-3.24A3.25,3.25,0,0,0,173.23,159.17Z"/><path class="cls-2" d="M181.88,158.93a3,3,0,1,0-3-3A3,3,0,0,0,181.88,158.93Z"/><path class="cls-2" d="M190.53,158.66a2.74,2.74,0,1,0-2.73-2.73A2.74,2.74,0,0,0,190.53,158.66Z"/><path class="cls-2" d="M199.18,158.38a2.45,2.45,0,1,0-2.45-2.45A2.45,2.45,0,0,0,199.18,158.38Z"/><path class="cls-2" d="M207.83,158.09a2.16,2.16,0,1,0-2.16-2.16A2.16,2.16,0,0,0,207.83,158.09Z"/><path class="cls-2" d="M216.48,157.78a1.85,1.85,0,1,0-1.84-1.85A1.85,1.85,0,0,0,216.48,157.78Z"/><path class="cls-2" d="M225.13,157.46a1.54,1.54,0,1,0-1.53-1.53A1.53,1.53,0,0,0,225.13,157.46Z"/><path class="cls-2" d="M233.78,157.13a1.2,1.2,0,1,0-1.2-1.2A1.2,1.2,0,0,0,233.78,157.13Z"/><path class="cls-2" d="M242.44,156.79a.87.87,0,1,0-.87-.86A.87.87,0,0,0,242.44,156.79Z"/><path class="cls-2" d="M251.09,156.43a.5.5,0,0,0,.5-.5.51.51,0,1,0-1,0A.5.5,0,0,0,251.09,156.43Z"/><path class="cls-2" d="M259.74,156.07a.14.14,0,0,0,.14-.14.15.15,0,0,0-.14-.15.15.15,0,0,0-.15.15A.15.15,0,0,0,259.74,156.07Z"/><path class="cls-2" d="M.22,164.6l0,0s0,0,0,0a0,0,0,0,0,0,0S.2,164.6.22,164.6Z"/><path class="cls-2" d="M8.87,165a.38.38,0,0,0,.38-.38.39.39,0,1,0-.77,0A.38.38,0,0,0,8.87,165Z"/><path class="cls-2" d="M17.52,165.32a.74.74,0,0,0,.74-.74.75.75,0,0,0-.74-.75.76.76,0,0,0-.75.75A.75.75,0,0,0,17.52,165.32Z"/><path class="cls-2" d="M26.17,165.66a1.08,1.08,0,0,0,0-2.16,1.08,1.08,0,1,0,0,2.16Z"/><path class="cls-2" d="M34.82,166a1.39,1.39,0,1,0-1.39-1.39A1.39,1.39,0,0,0,34.82,166Z"/><path class="cls-2" d="M43.47,166.3a1.73,1.73,0,1,0-1.73-1.72A1.73,1.73,0,0,0,43.47,166.3Z"/><path class="cls-2" d="M52.12,166.59a2,2,0,1,0-2-2A2,2,0,0,0,52.12,166.59Z"/><path class="cls-2" d="M60.77,166.88a2.3,2.3,0,1,0-2.3-2.3A2.3,2.3,0,0,0,60.77,166.88Z"/><path class="cls-2" d="M69.42,167.14a2.57,2.57,0,1,0-2.57-2.56A2.56,2.56,0,0,0,69.42,167.14Z"/><path class="cls-2" d="M78.07,167.41a2.83,2.83,0,1,0-2.83-2.83A2.83,2.83,0,0,0,78.07,167.41Z"/><path class="cls-2" d="M86.72,167.65a3.07,3.07,0,1,0-3.07-3.07A3.07,3.07,0,0,0,86.72,167.65Z"/><path class="cls-2" d="M95.37,167.84a3.27,3.27,0,1,0-3.26-3.26A3.26,3.26,0,0,0,95.37,167.84Z"/><path class="cls-2" d="M104,168a3.43,3.43,0,1,0-3.43-3.43A3.43,3.43,0,0,0,104,168Z"/><path class="cls-2" d="M112.68,168.13a3.55,3.55,0,1,0-3.56-3.55A3.54,3.54,0,0,0,112.68,168.13Z"/><circle class="cls-2" cx="121.33" cy="164.58" r="3.65"/><circle class="cls-2" cx="129.98" cy="164.58" r="3.67"/><path class="cls-2" d="M138.63,168.25a3.67,3.67,0,1,0-3.67-3.67A3.67,3.67,0,0,0,138.63,168.25Z"/><circle class="cls-2" cx="147.28" cy="164.58" r="3.57"/><path class="cls-2" d="M155.93,168a3.43,3.43,0,1,0-3.43-3.43A3.44,3.44,0,0,0,155.93,168Z"/><path class="cls-2" d="M164.58,167.86a3.29,3.29,0,1,0-3.29-3.28A3.28,3.28,0,0,0,164.58,167.86Z"/><path class="cls-2" d="M173.23,167.65a3.07,3.07,0,1,0-3.07-3.07A3.07,3.07,0,0,0,173.23,167.65Z"/><path class="cls-2" d="M181.88,167.43a2.86,2.86,0,1,0-2.85-2.85A2.85,2.85,0,0,0,181.88,167.43Z"/><path class="cls-2" d="M190.53,167.19a2.62,2.62,0,1,0-2.61-2.61A2.61,2.61,0,0,0,190.53,167.19Z"/><path class="cls-2" d="M199.18,166.9a2.33,2.33,0,1,0-2.32-2.32A2.32,2.32,0,0,0,199.18,166.9Z"/><path class="cls-2" d="M207.83,166.62a2,2,0,1,0-2-2A2,2,0,0,0,207.83,166.62Z"/><path class="cls-2" d="M216.48,166.33a1.75,1.75,0,1,0-1.75-1.75A1.75,1.75,0,0,0,216.48,166.33Z"/><path class="cls-2" d="M225.13,166a1.44,1.44,0,1,0-1.44-1.44A1.44,1.44,0,0,0,225.13,166Z"/><path class="cls-2" d="M233.78,165.68a1.11,1.11,0,1,0-1.1-1.1A1.11,1.11,0,0,0,233.78,165.68Z"/><path class="cls-2" d="M242.44,165.35a.77.77,0,1,0-.77-.77A.77.77,0,0,0,242.44,165.35Z"/><path class="cls-2" d="M251.09,165a.43.43,0,1,0-.44-.43A.43.43,0,0,0,251.09,165Z"/><path class="cls-2" d="M259.74,164.65a.07.07,0,0,0,0-.14.07.07,0,1,0,0,.14Z"/><path class="cls-2" d="M8.87,173.49a.26.26,0,0,0,.26-.26.27.27,0,1,0-.53,0A.26.26,0,0,0,8.87,173.49Z"/><path class="cls-2" d="M17.52,173.85a.62.62,0,0,0,.62-.62.63.63,0,0,0-1.25,0A.63.63,0,0,0,17.52,173.85Z"/><path class="cls-2" d="M26.17,174.19a1,1,0,1,0-1-1A1,1,0,0,0,26.17,174.19Z"/><path class="cls-2" d="M34.82,174.5a1.27,1.27,0,1,0-1.27-1.27A1.27,1.27,0,0,0,34.82,174.5Z"/><path class="cls-2" d="M43.47,174.81a1.58,1.58,0,1,0-1.58-1.58A1.58,1.58,0,0,0,43.47,174.81Z"/><circle class="cls-2" cx="52.12" cy="173.23" r="1.87"/><path class="cls-2" d="M60.77,175.39a2.16,2.16,0,1,0-2.16-2.16A2.16,2.16,0,0,0,60.77,175.39Z"/><path class="cls-2" d="M69.42,175.65A2.42,2.42,0,1,0,67,173.23,2.42,2.42,0,0,0,69.42,175.65Z"/><circle class="cls-2" cx="78.07" cy="173.23" r="2.66"/><path class="cls-2" d="M86.72,176.11a2.88,2.88,0,1,0-2.88-2.88A2.88,2.88,0,0,0,86.72,176.11Z"/><path class="cls-2" d="M95.37,176.3a3.07,3.07,0,1,0-3.07-3.07A3.07,3.07,0,0,0,95.37,176.3Z"/><path class="cls-2" d="M104,176.44a3.21,3.21,0,1,0-3.21-3.21A3.22,3.22,0,0,0,104,176.44Z"/><path class="cls-2" d="M112.68,176.56a3.34,3.34,0,1,0-3.34-3.33A3.33,3.33,0,0,0,112.68,176.56Z"/><path class="cls-2" d="M121.33,176.66a3.43,3.43,0,1,0-3.43-3.43A3.44,3.44,0,0,0,121.33,176.66Z"/><path class="cls-2" d="M130,176.66a3.43,3.43,0,1,0-3.43-3.43A3.44,3.44,0,0,0,130,176.66Z"/><path class="cls-2" d="M138.63,176.66a3.43,3.43,0,1,0-3.43-3.43A3.44,3.44,0,0,0,138.63,176.66Z"/><path class="cls-2" d="M147.28,176.59a3.36,3.36,0,1,0-3.36-3.36A3.37,3.37,0,0,0,147.28,176.59Z"/><path class="cls-2" d="M155.93,176.47a3.24,3.24,0,1,0-3.24-3.24A3.24,3.24,0,0,0,155.93,176.47Z"/><path class="cls-2" d="M164.58,176.3a3.07,3.07,0,1,0-3.07-3.07A3.08,3.08,0,0,0,164.58,176.3Z"/><path class="cls-2" d="M173.23,176.13a2.9,2.9,0,1,0-2.9-2.9A2.9,2.9,0,0,0,173.23,176.13Z"/><path class="cls-2" d="M181.88,175.89a2.66,2.66,0,1,0-2.66-2.66A2.66,2.66,0,0,0,181.88,175.89Z"/><path class="cls-2" d="M190.53,175.68a2.45,2.45,0,1,0-2.45-2.45A2.45,2.45,0,0,0,190.53,175.68Z"/><circle class="cls-2" cx="199.18" cy="173.23" r="2.18"/><path class="cls-2" d="M207.83,175.12a1.9,1.9,0,1,0-1.89-1.89A1.89,1.89,0,0,0,207.83,175.12Z"/><path class="cls-2" d="M216.48,174.84a1.61,1.61,0,1,0-1.6-1.61A1.61,1.61,0,0,0,216.48,174.84Z"/><path class="cls-2" d="M225.13,174.55a1.32,1.32,0,1,0-1.32-1.32A1.32,1.32,0,0,0,225.13,174.55Z"/><path class="cls-2" d="M233.78,174.21a1,1,0,1,0-1-1A1,1,0,0,0,233.78,174.21Z"/><path class="cls-2" d="M242.44,173.9a.67.67,0,1,0-.68-.67A.67.67,0,0,0,242.44,173.9Z"/><path class="cls-2" d="M251.09,173.54a.31.31,0,1,0-.32-.31A.31.31,0,0,0,251.09,173.54Z"/><path class="cls-2" d="M8.87,182a.14.14,0,1,0,0-.28.14.14,0,1,0,0,.28Z"/><path class="cls-2" d="M17.52,182.36a.49.49,0,0,0,.48-.48.48.48,0,0,0-.48-.48.47.47,0,0,0-.48.48A.48.48,0,0,0,17.52,182.36Z"/><path class="cls-2" d="M26.17,182.7a.82.82,0,0,0,0-1.64.82.82,0,0,0,0,1.64Z"/><path class="cls-2" d="M34.82,183a1.13,1.13,0,1,0-1.13-1.13A1.14,1.14,0,0,0,34.82,183Z"/><path class="cls-2" d="M43.47,183.32A1.44,1.44,0,1,0,42,181.88,1.44,1.44,0,0,0,43.47,183.32Z"/><path class="cls-2" d="M52.12,183.58a1.7,1.7,0,1,0-1.7-1.7A1.7,1.7,0,0,0,52.12,183.58Z"/><path class="cls-2" d="M60.77,183.85a2,2,0,1,0-2-2A2,2,0,0,0,60.77,183.85Z"/><path class="cls-2" d="M69.42,184.11a2.23,2.23,0,1,0-2.23-2.23A2.23,2.23,0,0,0,69.42,184.11Z"/><path class="cls-2" d="M78.07,184.33a2.45,2.45,0,1,0-2.45-2.45A2.45,2.45,0,0,0,78.07,184.33Z"/><path class="cls-2" d="M86.72,184.54a2.66,2.66,0,1,0-2.66-2.66A2.67,2.67,0,0,0,86.72,184.54Z"/><path class="cls-2" d="M95.37,184.73a2.85,2.85,0,1,0-2.85-2.85A2.85,2.85,0,0,0,95.37,184.73Z"/><path class="cls-2" d="M104,184.86a3,3,0,1,0-3-3A3,3,0,0,0,104,184.86Z"/><path class="cls-2" d="M112.68,185a3.07,3.07,0,1,0-3.08-3.07A3.07,3.07,0,0,0,112.68,185Z"/><path class="cls-2" d="M121.33,185a3.14,3.14,0,1,0-3.15-3.14A3.14,3.14,0,0,0,121.33,185Z"/><path class="cls-2" d="M130,185.07a3.19,3.19,0,1,0-3.19-3.19A3.19,3.19,0,0,0,130,185.07Z"/><path class="cls-2" d="M138.63,185a3.17,3.17,0,1,0-3.17-3.16A3.15,3.15,0,0,0,138.63,185Z"/><path class="cls-2" d="M147.28,185a3.09,3.09,0,1,0-3.1-3.09A3.09,3.09,0,0,0,147.28,185Z"/><path class="cls-2" d="M155.93,184.88a3,3,0,1,0-3-3A3,3,0,0,0,155.93,184.88Z"/><path class="cls-2" d="M164.58,184.73a2.85,2.85,0,1,0-2.86-2.85A2.84,2.84,0,0,0,164.58,184.73Z"/><path class="cls-2" d="M173.23,184.54a2.66,2.66,0,1,0-2.66-2.66A2.66,2.66,0,0,0,173.23,184.54Z"/><path class="cls-2" d="M181.88,184.35a2.47,2.47,0,1,0-2.47-2.47A2.48,2.48,0,0,0,181.88,184.35Z"/><path class="cls-2" d="M190.53,184.13a2.26,2.26,0,1,0-2.25-2.25A2.26,2.26,0,0,0,190.53,184.13Z"/><path class="cls-2" d="M199.18,183.89a2,2,0,1,0-2-2A2,2,0,0,0,199.18,183.89Z"/><path class="cls-2" d="M207.83,183.61a1.73,1.73,0,1,0-1.72-1.73A1.73,1.73,0,0,0,207.83,183.61Z"/><path class="cls-2" d="M216.48,183.32a1.44,1.44,0,1,0-1.44-1.44A1.43,1.43,0,0,0,216.48,183.32Z"/><path class="cls-2" d="M225.13,183a1.15,1.15,0,1,0-1.15-1.15A1.14,1.14,0,0,0,225.13,183Z"/><path class="cls-2" d="M233.78,182.72a.84.84,0,1,0-.84-.84A.84.84,0,0,0,233.78,182.72Z"/><path class="cls-2" d="M242.44,182.38a.5.5,0,1,0-.51-.5A.5.5,0,0,0,242.44,182.38Z"/><path class="cls-2" d="M251.09,182.07a.19.19,0,1,0,0-.38.19.19,0,1,0,0,.38Z"/><path class="cls-2" d="M17.52,190.84a.31.31,0,1,0-.31-.31A.31.31,0,0,0,17.52,190.84Z"/><path class="cls-2" d="M26.17,191.18a.65.65,0,1,0-.65-.65A.65.65,0,0,0,26.17,191.18Z"/><path class="cls-2" d="M34.82,191.49a1,1,0,1,0-1-1A1,1,0,0,0,34.82,191.49Z"/><path class="cls-2" d="M43.47,191.78a1.25,1.25,0,1,0-1.25-1.25A1.25,1.25,0,0,0,43.47,191.78Z"/><path class="cls-2" d="M52.12,192a1.51,1.51,0,1,0-1.51-1.51A1.51,1.51,0,0,0,52.12,192Z"/><path class="cls-2" d="M60.77,192.31A1.78,1.78,0,1,0,59,190.53,1.78,1.78,0,0,0,60.77,192.31Z"/><path class="cls-2" d="M69.42,192.54a2,2,0,1,0-2-2A2,2,0,0,0,69.42,192.54Z"/><path class="cls-2" d="M78.07,192.76a2.23,2.23,0,1,0-2.23-2.23A2.23,2.23,0,0,0,78.07,192.76Z"/><path class="cls-2" d="M86.72,193a2.42,2.42,0,1,0-2.42-2.42A2.42,2.42,0,0,0,86.72,193Z"/><path class="cls-2" d="M95.37,193.12a2.59,2.59,0,1,0-2.59-2.59A2.59,2.59,0,0,0,95.37,193.12Z"/><path class="cls-2" d="M104,193.27a2.74,2.74,0,1,0-2.73-2.74A2.74,2.74,0,0,0,104,193.27Z"/><path class="cls-2" d="M112.68,193.36a2.83,2.83,0,1,0-2.84-2.83A2.83,2.83,0,0,0,112.68,193.36Z"/><path class="cls-2" d="M121.33,193.41a2.88,2.88,0,1,0-2.88-2.88A2.88,2.88,0,0,0,121.33,193.41Z"/><path class="cls-2" d="M130,193.43a2.9,2.9,0,1,0-2.91-2.9A2.9,2.9,0,0,0,130,193.43Z"/><path class="cls-2" d="M138.63,193.43a2.9,2.9,0,1,0-2.91-2.9A2.9,2.9,0,0,0,138.63,193.43Z"/><path class="cls-2" d="M147.28,193.36a2.83,2.83,0,1,0-2.83-2.83A2.83,2.83,0,0,0,147.28,193.36Z"/><path class="cls-2" d="M155.93,193.27a2.74,2.74,0,1,0-2.74-2.74A2.74,2.74,0,0,0,155.93,193.27Z"/><path class="cls-2" d="M164.58,193.14a2.61,2.61,0,1,0-2.62-2.61A2.61,2.61,0,0,0,164.58,193.14Z"/><path class="cls-2" d="M173.23,193a2.45,2.45,0,1,0-2.45-2.45A2.45,2.45,0,0,0,173.23,193Z"/><path class="cls-2" d="M181.88,192.79a2.26,2.26,0,1,0-2.26-2.26A2.26,2.26,0,0,0,181.88,192.79Z"/><path class="cls-2" d="M190.53,192.57a2,2,0,1,0-2-2A2,2,0,0,0,190.53,192.57Z"/><path class="cls-2" d="M199.18,192.33a1.8,1.8,0,1,0-1.8-1.8A1.8,1.8,0,0,0,199.18,192.33Z"/><path class="cls-2" d="M207.83,192.09a1.56,1.56,0,1,0-1.56-1.56A1.56,1.56,0,0,0,207.83,192.09Z"/><path class="cls-2" d="M216.48,191.8a1.27,1.27,0,1,0-1.27-1.27A1.27,1.27,0,0,0,216.48,191.8Z"/><path class="cls-2" d="M225.13,191.49a1,1,0,1,0-1-1A1,1,0,0,0,225.13,191.49Z"/><path class="cls-2" d="M233.78,191.2a.67.67,0,1,0,0-1.34.67.67,0,0,0,0,1.34Z"/><path class="cls-2" d="M242.44,190.89a.36.36,0,0,0,0-.72.36.36,0,1,0,0,.72Z"/><path class="cls-2" d="M251.09,190.55l0,0,0,0s0,0,0,0S251.07,190.55,251.09,190.55Z"/><path class="cls-2" d="M17.52,199.32a.14.14,0,1,0,0-.28.14.14,0,1,0,0,.28Z"/><path class="cls-2" d="M26.17,199.61a.43.43,0,1,0-.43-.43A.43.43,0,0,0,26.17,199.61Z"/><path class="cls-2" d="M34.82,199.92a.74.74,0,0,0,0-1.48.74.74,0,1,0,0,1.48Z"/><path class="cls-2" d="M43.47,200.21a1,1,0,1,0-1-1A1,1,0,0,0,43.47,200.21Z"/><path class="cls-2" d="M52.12,200.48a1.3,1.3,0,1,0-1.3-1.3A1.3,1.3,0,0,0,52.12,200.48Z"/><path class="cls-2" d="M60.77,200.74a1.56,1.56,0,1,0-1.56-1.56A1.56,1.56,0,0,0,60.77,200.74Z"/><circle class="cls-2" cx="69.42" cy="199.18" r="1.78"/><path class="cls-2" d="M78.07,201.15a2,2,0,1,0-2-2A2,2,0,0,0,78.07,201.15Z"/><path class="cls-2" d="M86.72,201.34a2.16,2.16,0,1,0-2.16-2.16A2.16,2.16,0,0,0,86.72,201.34Z"/><path class="cls-2" d="M95.37,201.51a2.33,2.33,0,1,0-2.32-2.33A2.33,2.33,0,0,0,95.37,201.51Z"/><path class="cls-2" d="M104,201.63a2.45,2.45,0,1,0-2.44-2.45A2.45,2.45,0,0,0,104,201.63Z"/><path class="cls-2" d="M112.68,201.72a2.54,2.54,0,1,0-2.55-2.54A2.54,2.54,0,0,0,112.68,201.72Z"/><path class="cls-2" d="M121.33,201.77a2.59,2.59,0,1,0-2.6-2.59A2.59,2.59,0,0,0,121.33,201.77Z"/><path class="cls-2" d="M130,201.79a2.61,2.61,0,1,0-2.62-2.61A2.61,2.61,0,0,0,130,201.79Z"/><path class="cls-2" d="M138.63,201.79a2.61,2.61,0,1,0-2.62-2.61A2.61,2.61,0,0,0,138.63,201.79Z"/><path class="cls-2" d="M147.28,201.72a2.54,2.54,0,1,0-2.55-2.54A2.54,2.54,0,0,0,147.28,201.72Z"/><path class="cls-2" d="M155.93,201.63a2.45,2.45,0,1,0-2.45-2.45A2.45,2.45,0,0,0,155.93,201.63Z"/><path class="cls-2" d="M164.58,201.51a2.33,2.33,0,1,0-2.33-2.33A2.32,2.32,0,0,0,164.58,201.51Z"/><path class="cls-2" d="M173.23,201.36a2.18,2.18,0,1,0-2.18-2.18A2.17,2.17,0,0,0,173.23,201.36Z"/><path class="cls-2" d="M181.88,201.2a2,2,0,1,0-2-2A2,2,0,0,0,181.88,201.2Z"/><path class="cls-2" d="M190.53,201a1.8,1.8,0,1,0-1.8-1.8A1.81,1.81,0,0,0,190.53,201Z"/><path class="cls-2" d="M199.18,200.74a1.56,1.56,0,1,0-1.56-1.56A1.56,1.56,0,0,0,199.18,200.74Z"/><path class="cls-2" d="M207.83,200.5a1.32,1.32,0,1,0-1.32-1.32A1.32,1.32,0,0,0,207.83,200.5Z"/><path class="cls-2" d="M216.48,200.24a1.06,1.06,0,1,0-1-1.06A1.06,1.06,0,0,0,216.48,200.24Z"/><path class="cls-2" d="M225.13,200a.79.79,0,1,0-.79-.79A.79.79,0,0,0,225.13,200Z"/><path class="cls-2" d="M233.78,199.66a.47.47,0,0,0,.48-.48.48.48,0,0,0-.48-.48.49.49,0,0,0-.48.48A.48.48,0,0,0,233.78,199.66Z"/><path class="cls-2" d="M242.44,199.35a.17.17,0,0,0,0-.34.17.17,0,0,0,0,.34Z"/><path class="cls-2" d="M26.17,208.07a.24.24,0,1,0,0-.48.24.24,0,0,0,0,.48Z"/><path class="cls-2" d="M34.82,208.36a.53.53,0,1,0-.53-.53A.53.53,0,0,0,34.82,208.36Z"/><path class="cls-2" d="M43.47,208.62a.79.79,0,1,0-.79-.79A.79.79,0,0,0,43.47,208.62Z"/><path class="cls-2" d="M52.12,208.89a1.06,1.06,0,1,0-1.06-1.06A1.07,1.07,0,0,0,52.12,208.89Z"/><path class="cls-2" d="M60.77,209.13a1.3,1.3,0,1,0-1.29-1.3A1.3,1.3,0,0,0,60.77,209.13Z"/><path class="cls-2" d="M69.42,209.34a1.51,1.51,0,1,0-1.51-1.51A1.5,1.5,0,0,0,69.42,209.34Z"/><path class="cls-2" d="M78.07,209.56a1.73,1.73,0,1,0-1.72-1.73A1.72,1.72,0,0,0,78.07,209.56Z"/><path class="cls-2" d="M86.72,209.73a1.9,1.9,0,1,0-1.89-1.9A1.9,1.9,0,0,0,86.72,209.73Z"/><path class="cls-2" d="M95.37,209.87a2,2,0,1,0-2-2A2,2,0,0,0,95.37,209.87Z"/><path class="cls-2" d="M104,210a2.16,2.16,0,1,0-2.16-2.16A2.16,2.16,0,0,0,104,210Z"/><path class="cls-2" d="M112.68,210.09a2.26,2.26,0,1,0-2.26-2.26A2.26,2.26,0,0,0,112.68,210.09Z"/><path class="cls-2" d="M121.33,210.13a2.3,2.3,0,1,0-2.31-2.3A2.3,2.3,0,0,0,121.33,210.13Z"/><path class="cls-2" d="M130,210.16a2.33,2.33,0,1,0-2.33-2.33A2.32,2.32,0,0,0,130,210.16Z"/><path class="cls-2" d="M138.63,210.13a2.3,2.3,0,1,0-2.31-2.3A2.3,2.3,0,0,0,138.63,210.13Z"/><path class="cls-2" d="M147.28,210.09a2.26,2.26,0,1,0-2.26-2.26A2.26,2.26,0,0,0,147.28,210.09Z"/><path class="cls-2" d="M155.93,210a2.16,2.16,0,1,0-2.16-2.16A2.16,2.16,0,0,0,155.93,210Z"/><path class="cls-2" d="M164.58,209.87a2,2,0,1,0-2-2A2,2,0,0,0,164.58,209.87Z"/><path class="cls-2" d="M173.23,209.73a1.9,1.9,0,1,0-1.9-1.9A1.89,1.89,0,0,0,173.23,209.73Z"/><path class="cls-2" d="M181.88,209.56a1.73,1.73,0,1,0-1.73-1.73A1.73,1.73,0,0,0,181.88,209.56Z"/><path class="cls-2" d="M190.53,209.39a1.56,1.56,0,1,0-1.56-1.56A1.56,1.56,0,0,0,190.53,209.39Z"/><path class="cls-2" d="M199.18,209.15a1.32,1.32,0,1,0-1.32-1.32A1.32,1.32,0,0,0,199.18,209.15Z"/><path class="cls-2" d="M207.83,208.91a1.08,1.08,0,0,0,0-2.16,1.08,1.08,0,0,0,0,2.16Z"/><path class="cls-2" d="M216.48,208.67a.84.84,0,1,0-.84-.84A.84.84,0,0,0,216.48,208.67Z"/><path class="cls-2" d="M225.13,208.38a.55.55,0,0,0,.56-.55.56.56,0,0,0-1.11,0A.55.55,0,0,0,225.13,208.38Z"/><path class="cls-2" d="M233.78,208.1a.27.27,0,1,0,0-.53.27.27,0,0,0,0,.53Z"/><circle class="cls-2" cx="34.82" cy="216.48" r="0.29"/><path class="cls-2" d="M43.47,217a.55.55,0,0,0,.55-.55.55.55,0,0,0-.55-.55.55.55,0,0,0-.55.55A.54.54,0,0,0,43.47,217Z"/><path class="cls-2" d="M52.12,217.27a.79.79,0,1,0-.79-.79A.79.79,0,0,0,52.12,217.27Z"/><path class="cls-2" d="M60.77,217.51a1,1,0,1,0-1-1A1,1,0,0,0,60.77,217.51Z"/><path class="cls-2" d="M69.42,217.73a1.25,1.25,0,1,0-1.25-1.25A1.25,1.25,0,0,0,69.42,217.73Z"/><path class="cls-2" d="M78.07,217.92a1.44,1.44,0,1,0-1.44-1.44A1.43,1.43,0,0,0,78.07,217.92Z"/><path class="cls-2" d="M86.72,218.09a1.61,1.61,0,1,0-1.6-1.61A1.61,1.61,0,0,0,86.72,218.09Z"/><path class="cls-2" d="M95.37,218.21a1.73,1.73,0,1,0-1.72-1.73A1.72,1.72,0,0,0,95.37,218.21Z"/><path class="cls-2" d="M104,218.33a1.85,1.85,0,1,0-1.84-1.85A1.85,1.85,0,0,0,104,218.33Z"/><path class="cls-2" d="M112.68,218.4a1.92,1.92,0,1,0-1.92-1.92A1.92,1.92,0,0,0,112.68,218.4Z"/><path class="cls-2" d="M121.33,218.45a2,2,0,1,0-2-2A2,2,0,0,0,121.33,218.45Z"/><path class="cls-2" d="M130,218.47a2,2,0,1,0-2-2A2,2,0,0,0,130,218.47Z"/><path class="cls-2" d="M138.63,218.45a2,2,0,1,0-2-2A2,2,0,0,0,138.63,218.45Z"/><path class="cls-2" d="M147.28,218.43a1.95,1.95,0,1,0-1.95-2A2,2,0,0,0,147.28,218.43Z"/><path class="cls-2" d="M155.93,218.33a1.85,1.85,0,1,0-1.85-1.85A1.84,1.84,0,0,0,155.93,218.33Z"/><path class="cls-2" d="M164.58,218.23a1.75,1.75,0,1,0-1.75-1.75A1.75,1.75,0,0,0,164.58,218.23Z"/><path class="cls-2" d="M173.23,218.09a1.61,1.61,0,1,0-1.61-1.61A1.61,1.61,0,0,0,173.23,218.09Z"/><path class="cls-2" d="M181.88,217.92a1.44,1.44,0,1,0-1.44-1.44A1.43,1.43,0,0,0,181.88,217.92Z"/><circle class="cls-2" cx="190.53" cy="216.48" r="1.27"/><path class="cls-2" d="M199.18,217.54a1.06,1.06,0,1,0-1.06-1.06A1.06,1.06,0,0,0,199.18,217.54Z"/><path class="cls-2" d="M207.83,217.32a.84.84,0,1,0,0-1.68.84.84,0,0,0,0,1.68Z"/><path class="cls-2" d="M216.48,217.06a.58.58,0,0,0,.58-.58.57.57,0,0,0-.58-.57.56.56,0,0,0-.57.57A.57.57,0,0,0,216.48,217.06Z"/><path class="cls-2" d="M225.13,216.79a.31.31,0,0,0,0-.62.31.31,0,0,0,0,.62Z"/><path class="cls-2" d="M233.78,216.51a0,0,0,0,0,0,0s0,0,0,0l0,0S233.77,216.51,233.78,216.51Z"/><path class="cls-2" d="M34.82,225.16s0,0,0,0l0,0,0,0A0,0,0,0,0,34.82,225.16Z"/><circle class="cls-2" cx="43.47" cy="225.13" r="0.29"/><path class="cls-2" d="M52.12,225.66a.53.53,0,0,0,.53-.53.53.53,0,0,0-1.06,0A.53.53,0,0,0,52.12,225.66Z"/><path class="cls-2" d="M60.77,225.88a.75.75,0,0,0,.74-.75.74.74,0,1,0-1.48,0A.75.75,0,0,0,60.77,225.88Z"/><path class="cls-2" d="M69.42,226.09a1,1,0,1,0-1-1A1,1,0,0,0,69.42,226.09Z"/><path class="cls-2" d="M78.07,226.28a1.15,1.15,0,0,0,0-2.3,1.15,1.15,0,1,0,0,2.3Z"/><path class="cls-2" d="M86.72,226.43a1.3,1.3,0,1,0-1.29-1.3A1.3,1.3,0,0,0,86.72,226.43Z"/><path class="cls-2" d="M95.37,226.57a1.44,1.44,0,1,0-1.44-1.44A1.43,1.43,0,0,0,95.37,226.57Z"/><path class="cls-2" d="M104,226.67a1.54,1.54,0,1,0-1.53-1.54A1.54,1.54,0,0,0,104,226.67Z"/><path class="cls-2" d="M112.68,226.74a1.61,1.61,0,1,0-1.61-1.61A1.61,1.61,0,0,0,112.68,226.74Z"/><path class="cls-2" d="M121.33,226.79a1.66,1.66,0,1,0-1.66-1.66A1.65,1.65,0,0,0,121.33,226.79Z"/><circle class="cls-2" cx="129.98" cy="225.13" r="1.68"/><path class="cls-2" d="M138.63,226.79a1.66,1.66,0,1,0-1.66-1.66A1.65,1.65,0,0,0,138.63,226.79Z"/><path class="cls-2" d="M147.28,226.74a1.61,1.61,0,1,0-1.61-1.61A1.61,1.61,0,0,0,147.28,226.74Z"/><path class="cls-2" d="M155.93,226.67a1.54,1.54,0,1,0-1.54-1.54A1.53,1.53,0,0,0,155.93,226.67Z"/><path class="cls-2" d="M164.58,226.57a1.44,1.44,0,1,0-1.44-1.44A1.44,1.44,0,0,0,164.58,226.57Z"/><path class="cls-2" d="M173.23,226.45a1.32,1.32,0,1,0-1.32-1.32A1.32,1.32,0,0,0,173.23,226.45Z"/><path class="cls-2" d="M181.88,226.28a1.15,1.15,0,1,0-1.15-1.15A1.14,1.14,0,0,0,181.88,226.28Z"/><path class="cls-2" d="M190.53,226.09a1,1,0,1,0-1-1A1,1,0,0,0,190.53,226.09Z"/><path class="cls-2" d="M199.18,225.92a.79.79,0,1,0-.79-.79A.79.79,0,0,0,199.18,225.92Z"/><path class="cls-2" d="M207.83,225.68a.54.54,0,0,0,.55-.55.55.55,0,0,0-.55-.55.55.55,0,0,0-.55.55A.55.55,0,0,0,207.83,225.68Z"/><path class="cls-2" d="M216.48,225.45a.32.32,0,0,0,.31-.32.31.31,0,0,0-.62,0A.32.32,0,0,0,216.48,225.45Z"/><path class="cls-2" d="M225.13,225.18a0,0,0,0,0,.05-.05.05.05,0,0,0-.05,0s0,0,0,0A0,0,0,0,0,225.13,225.18Z"/><path class="cls-2" d="M43.47,233.81a0,0,0,0,0,0,0s0,0,0,0a0,0,0,0,0,0,0S43.46,233.81,43.47,233.81Z"/><path class="cls-2" d="M52.12,234a.23.23,0,0,0,.24-.23.24.24,0,1,0-.48,0A.23.23,0,0,0,52.12,234Z"/><path class="cls-2" d="M60.77,234.24a.46.46,0,1,0,0-.91.46.46,0,0,0,0,.91Z"/><path class="cls-2" d="M69.42,234.43a.65.65,0,0,0,.65-.64.65.65,0,1,0-1.3,0A.65.65,0,0,0,69.42,234.43Z"/><path class="cls-2" d="M78.07,234.6a.82.82,0,1,0,0-1.63.82.82,0,0,0,0,1.63Z"/><path class="cls-2" d="M86.72,234.74a1,1,0,1,0-1-1A1,1,0,0,0,86.72,234.74Z"/><path class="cls-2" d="M95.37,234.89a1.11,1.11,0,1,0,0-2.21,1.11,1.11,0,0,0,0,2.21Z"/><path class="cls-2" d="M104,235a1.2,1.2,0,1,0,0-2.4,1.2,1.2,0,1,0,0,2.4Z"/><path class="cls-2" d="M112.68,235.05a1.27,1.27,0,1,0,0-2.54,1.27,1.27,0,1,0,0,2.54Z"/><path class="cls-2" d="M121.33,235.1a1.32,1.32,0,1,0-1.32-1.31A1.31,1.31,0,0,0,121.33,235.1Z"/><path class="cls-2" d="M130,235.1a1.32,1.32,0,1,0-1.32-1.31A1.32,1.32,0,0,0,130,235.1Z"/><path class="cls-2" d="M138.63,235.1a1.32,1.32,0,1,0-1.32-1.31A1.32,1.32,0,0,0,138.63,235.1Z"/><path class="cls-2" d="M147.28,235.05a1.27,1.27,0,1,0-1.27-1.26A1.26,1.26,0,0,0,147.28,235.05Z"/><path class="cls-2" d="M155.93,235a1.2,1.2,0,1,0-1.2-1.19A1.19,1.19,0,0,0,155.93,235Z"/><path class="cls-2" d="M164.58,234.89a1.11,1.11,0,1,0-1.1-1.1A1.1,1.1,0,0,0,164.58,234.89Z"/><path class="cls-2" d="M173.23,234.77a1,1,0,1,0-1-1A1,1,0,0,0,173.23,234.77Z"/><path class="cls-2" d="M181.88,234.62a.84.84,0,1,0-.84-.83A.84.84,0,0,0,181.88,234.62Z"/><path class="cls-2" d="M190.53,234.46a.68.68,0,1,0-.67-.67A.68.68,0,0,0,190.53,234.46Z"/><path class="cls-2" d="M199.18,234.26a.47.47,0,0,0,.48-.47.48.48,0,0,0-.48-.49.49.49,0,0,0-.48.49A.48.48,0,0,0,199.18,234.26Z"/><path class="cls-2" d="M207.83,234.05a.27.27,0,1,0-.26-.26A.27.27,0,0,0,207.83,234.05Z"/><path class="cls-2" d="M216.48,233.81s0,0,0,0a0,0,0,0,0,0,0s0,0,0,0A0,0,0,0,0,216.48,233.81Z"/><path class="cls-2" d="M60.77,242.58a.14.14,0,0,0,.14-.14.14.14,0,1,0-.28,0A.14.14,0,0,0,60.77,242.58Z"/><path class="cls-2" d="M69.42,242.77a.34.34,0,1,0-.33-.33A.34.34,0,0,0,69.42,242.77Z"/><path class="cls-2" d="M78.07,242.94a.51.51,0,1,0,0-1,.51.51,0,0,0,0,1Z"/><path class="cls-2" d="M86.72,243.08a.65.65,0,1,0-.65-.64A.65.65,0,0,0,86.72,243.08Z"/><path class="cls-2" d="M95.37,243.2a.77.77,0,1,0-.76-.76A.76.76,0,0,0,95.37,243.2Z"/><path class="cls-2" d="M104,243.27a.84.84,0,1,0,0-1.67.84.84,0,1,0,0,1.67Z"/><path class="cls-2" d="M112.68,243.35a.92.92,0,1,0-.92-.91A.91.91,0,0,0,112.68,243.35Z"/><path class="cls-2" d="M121.33,243.39a1,1,0,0,0,0-1.92,1,1,0,1,0,0,1.92Z"/><path class="cls-2" d="M130,243.42a1,1,0,1,0-1-1A1,1,0,0,0,130,243.42Z"/><path class="cls-2" d="M138.63,243.39a1,1,0,1,0-1-.95A1,1,0,0,0,138.63,243.39Z"/><path class="cls-2" d="M147.28,243.37a.94.94,0,1,0-.94-.93A.93.93,0,0,0,147.28,243.37Z"/><path class="cls-2" d="M155.93,243.3a.87.87,0,1,0-.86-.86A.87.87,0,0,0,155.93,243.3Z"/><path class="cls-2" d="M164.58,243.2a.77.77,0,1,0-.77-.76A.77.77,0,0,0,164.58,243.2Z"/><path class="cls-2" d="M173.23,243.11a.68.68,0,1,0-.67-.67A.68.68,0,0,0,173.23,243.11Z"/><path class="cls-2" d="M181.88,242.94a.51.51,0,1,0-.5-.5A.5.5,0,0,0,181.88,242.94Z"/><path class="cls-2" d="M190.53,242.79a.36.36,0,0,0,.36-.35.36.36,0,1,0-.72,0A.36.36,0,0,0,190.53,242.79Z"/><path class="cls-2" d="M199.18,242.6a.17.17,0,0,0,.17-.16.17.17,0,0,0-.34,0A.17.17,0,0,0,199.18,242.6Z"/><path class="cls-2" d="M78.07,251.25a.17.17,0,0,0,.17-.16.17.17,0,1,0-.34,0A.17.17,0,0,0,78.07,251.25Z"/><path class="cls-2" d="M86.72,251.4a.32.32,0,0,0,0-.63.32.32,0,0,0,0,.63Z"/><path class="cls-2" d="M95.37,251.49a.41.41,0,1,0-.4-.4A.4.4,0,0,0,95.37,251.49Z"/><circle class="cls-2" cx="104.02" cy="251.09" r="0.5"/><path class="cls-2" d="M112.68,251.66a.58.58,0,1,0-.58-.57A.58.58,0,0,0,112.68,251.66Z"/><path class="cls-2" d="M121.33,251.71a.63.63,0,1,0-.63-.62A.62.62,0,0,0,121.33,251.71Z"/><path class="cls-2" d="M130,251.71a.63.63,0,1,0-.63-.62A.62.62,0,0,0,130,251.71Z"/><path class="cls-2" d="M138.63,251.71a.63.63,0,1,0-.63-.62A.62.62,0,0,0,138.63,251.71Z"/><path class="cls-2" d="M147.28,251.66a.58.58,0,0,0,0-1.15.58.58,0,1,0,0,1.15Z"/><path class="cls-2" d="M155.93,251.59a.51.51,0,0,0,0-1,.51.51,0,1,0,0,1Z"/><path class="cls-2" d="M164.58,251.52a.44.44,0,1,0-.43-.43A.43.43,0,0,0,164.58,251.52Z"/><path class="cls-2" d="M173.23,251.4a.32.32,0,1,0-.31-.31A.31.31,0,0,0,173.23,251.4Z"/><path class="cls-2" d="M181.88,251.28a.19.19,0,0,0,.19-.19.19.19,0,1,0-.38,0A.19.19,0,0,0,181.88,251.28Z"/><path class="cls-2" d="M190.53,251.11l0,0a0,0,0,0,0,0,0s0,0,0,0Z"/><path class="cls-2" d="M95.37,259.78a0,0,0,0,0,0,0,0,0,0,0,0,0-.05.05.05,0,0,0-.05.05S95.35,259.78,95.37,259.78Z"/><path class="cls-2" d="M104,259.88a.15.15,0,1,0,0-.29.15.15,0,0,0-.14.15A.14.14,0,0,0,104,259.88Z"/><path class="cls-2" d="M112.68,260a.21.21,0,0,0,.21-.21.22.22,0,1,0-.43,0A.21.21,0,0,0,112.68,260Z"/><path class="cls-2" d="M121.33,260a.24.24,0,0,0,.24-.24.24.24,0,0,0-.24-.24.23.23,0,0,0-.24.24A.24.24,0,0,0,121.33,260Z"/><path class="cls-2" d="M130,260a.27.27,0,0,0,0-.53.27.27,0,1,0,0,.53Z"/><path class="cls-2" d="M138.63,260a.27.27,0,0,0,0-.53.27.27,0,1,0,0,.53Z"/><path class="cls-2" d="M147.28,260a.21.21,0,0,0,.21-.21.21.21,0,0,0-.21-.22.22.22,0,0,0-.22.22A.21.21,0,0,0,147.28,260Z"/><path class="cls-2" d="M155.93,259.88a.14.14,0,0,0,.14-.14.15.15,0,0,0-.14-.15.15.15,0,1,0,0,.29Z"/><path class="cls-2" d="M164.58,259.81a.07.07,0,0,0,.07-.07.07.07,0,1,0-.14,0A.07.07,0,0,0,164.58,259.81Z"/></g></g></g></svg>