<svg xmlns="http://www.w3.org/2000/svg" viewBox="0 0 137.67 75.69"><defs><style>.cls-1,.cls-2{fill:none;stroke-linecap:round;stroke-linejoin:round;}.cls-1{stroke:#3e1d43;stroke-width:2.83px;}.cls-2{stroke:#c13a51;stroke-width:2.12px;}</style></defs><g id="Camada_2" data-name="Camada 2"><g id="Layer_2" data-name="Layer 2"><path class="cls-1" d="M59.58,42.42l-.49,4.24a2.37,2.37,0,0,1-1,1.67,2.47,2.47,0,0,1-.66.3l-10.67,3.1a10.11,10.11,0,0,0-4.19,2.19A12.36,12.36,0,0,0,38.32,61L35.81,73.55a.62.62,0,0,0,.12.51.64.64,0,0,0,.47.21"/><path class="cls-1" d="M76.91,42.42l.49,4.24a2.31,2.31,0,0,0,1,1.67,2.56,2.56,0,0,0,.65.3l10.68,3.1a10.17,10.17,0,0,1,4.19,2.19A12.36,12.36,0,0,1,98.17,61l2.5,12.54a.62.62,0,0,1-.12.51"/><line class="cls-1" x1="58.08" y1="48.33" x2="67.94" y2="58.55"/><line class="cls-1" x1="77.81" y1="48.33" x2="67.94" y2="58.55"/><polyline class="cls-2" points="58.51 56.17 67.91 66.23 67.94 66.2 67.97 66.23 77.37 56.17"/><path class="cls-1" d="M54.24,23.4S49.27,11,55.93,4.72C62.8-1.76,71,3.29,71,3.29s9.47.13,12.45,7.14-1.42,14-1.42,14-2-8-8.17-10.11c-1.43,3.11-3.77,4.41-7,5.45s-8.43-2.34-8.43-2.34S55.8,18.08,54.24,23.4Z"/><path class="cls-1" d="M53.59,21.84a4.22,4.22,0,0,0-2.33,4.41c.26,3.37,4.54,4.28,4.54,4.28s3,15.57,13.1,15.57S80.57,29.36,80.57,29.36s5.19.13,5.45-3.76-2.21-4.67-2.21-4.67"/><path class="cls-1" d="M136.25,71.23l-2-10.16a10,10,0,0,0-3.43-5.73,8.19,8.19,0,0,0-3.36-1.77l-8.68-2.52a1.75,1.75,0,0,1-.52-.24,1.87,1.87,0,0,1-.82-1.35L117,44.7"/><path class="cls-1" d="M103.49,44.7l-.4,4.76a1.93,1.93,0,0,1-.82,1.35c-.17.11-.34.19.39-.13L94,53.2"/><polyline class="cls-1" points="117.32 48.66 110.25 54.99 103.18 48.66"/><polyline class="cls-2" points="119.84 54.59 114.85 59.38 110.25 54.99"/><polyline class="cls-2" points="100.66 54.59 105.65 59.38 110.25 54.99"/><line class="cls-2" x1="110.25" y1="68.63" x2="110.25" y2="74.4"/><line class="cls-2" x1="110.25" y1="62.95" x2="110.25" y2="58.92"/><path class="cls-1" d="M109,11.05S100.73,9,96.3,18.3s2.06,22.32,3,23.35,3,0,3,0-7.54-18.33,2.36-22.91A10.93,10.93,0,0,0,112,23.17c2.66.3,8.87,1.78,9.32,3.7s-.45,11.38-2.81,15.08c-.15.73,3,.44,3.55-.15s7.24-15.82,1.77-24.69S112.41,9.13,109,11.05Z"/><path class="cls-1" d="M102.21,41.65s2.51,5.17,7.68,5.17c5.47,0,8.58-4.87,8.58-4.87"/><path class="cls-1" d="M42.21,52.88l-6.28-1.83a1.81,1.81,0,0,1-.53-.24,1.93,1.93,0,0,1-.82-1.35l-.4-4.76"/><path class="cls-1" d="M20.66,44.7l-.41,4.76a1.87,1.87,0,0,1-.82,1.35,1.75,1.75,0,0,1-.52.24l-8.67,2.52a8.17,8.17,0,0,0-3.37,1.77,10,10,0,0,0-3.43,5.73l-2,10.16"/><polyline class="cls-1" points="34.49 48.66 27.42 54.99 20.35 48.66"/><polyline class="cls-2" points="37.01 54.59 32.02 59.38 27.42 54.99"/><polyline class="cls-2" points="17.83 54.59 22.82 59.38 27.42 54.99"/><line class="cls-2" x1="27.42" y1="68.63" x2="27.42" y2="74.4"/><line class="cls-2" x1="27.42" y1="62.95" x2="27.42" y2="58.92"/><path class="cls-1" d="M26.18,11.05S17.9,9,13.46,18.3s2.07,22.32,3,23.35,3,0,3,0-7.54-18.33,2.36-22.91a10.93,10.93,0,0,0,7.39,4.43c2.66.3,8.87,1.78,9.31,3.7S38,38.25,35.64,42c-.15.73,3,.44,3.54-.15S46.43,26,41,17.11,29.58,9.13,26.18,11.05Z"/><path class="cls-1" d="M19.38,41.65s2.51,5.17,7.68,5.17c5.47,0,8.58-4.87,8.58-4.87"/></g></g></svg>