<svg xmlns="http://www.w3.org/2000/svg" viewBox="0 0 52.69 250.54"><defs><style>.cls-1{opacity:0.4;}.cls-2{fill:#3e1d43;}</style></defs><g id="Camada_2" data-name="Camada 2"><g id="Layer_2" data-name="Layer 2"><g class="cls-1"><path class="cls-2" d="M5,2.51A2.51,2.51,0,1,1,2.51,0,2.51,2.51,0,0,1,5,2.51Z"/><path class="cls-2" d="M5,21.39a2.51,2.51,0,1,1-2.51-2.5A2.51,2.51,0,0,1,5,21.39Z"/><path class="cls-2" d="M5,40.28a2.51,2.51,0,1,1-2.51-2.51A2.51,2.51,0,0,1,5,40.28Z"/><path class="cls-2" d="M5,59.17a2.51,2.51,0,1,1-2.51-2.51A2.51,2.51,0,0,1,5,59.17Z"/><path class="cls-2" d="M5,78.05a2.51,2.51,0,1,1-2.51-2.51A2.51,2.51,0,0,1,5,78.05Z"/><path class="cls-2" d="M5,96.94a2.51,2.51,0,1,1-2.51-2.51A2.51,2.51,0,0,1,5,96.94Z"/><path class="cls-2" d="M5,115.83a2.51,2.51,0,1,1-2.51-2.51A2.5,2.5,0,0,1,5,115.83Z"/><path class="cls-2" d="M5,134.71a2.51,2.51,0,1,1-2.51-2.5A2.51,2.51,0,0,1,5,134.71Z"/><path class="cls-2" d="M5,153.6a2.51,2.51,0,1,1-2.51-2.51A2.51,2.51,0,0,1,5,153.6Z"/><path class="cls-2" d="M5,172.49A2.51,2.51,0,1,1,2.51,170,2.51,2.51,0,0,1,5,172.49Z"/><path class="cls-2" d="M5,191.37a2.51,2.51,0,1,1-2.51-2.51A2.51,2.51,0,0,1,5,191.37Z"/><path class="cls-2" d="M5,210.26a2.51,2.51,0,1,1-2.51-2.51A2.51,2.51,0,0,1,5,210.26Z"/><path class="cls-2" d="M5,229.15a2.51,2.51,0,1,1-2.51-2.51A2.5,2.5,0,0,1,5,229.15Z"/><path class="cls-2" d="M5,248a2.51,2.51,0,1,1-2.51-2.51A2.51,2.51,0,0,1,5,248Z"/><path class="cls-2" d="M20.91,2.51A2.51,2.51,0,1,1,18.4,0,2.51,2.51,0,0,1,20.91,2.51Z"/><circle class="cls-2" cx="18.4" cy="21.39" r="2.51"/><path class="cls-2" d="M20.91,40.28a2.51,2.51,0,1,1-2.51-2.51A2.51,2.51,0,0,1,20.91,40.28Z"/><circle class="cls-2" cx="18.4" cy="59.17" r="2.51"/><path class="cls-2" d="M20.91,78.05a2.51,2.51,0,1,1-2.51-2.51A2.51,2.51,0,0,1,20.91,78.05Z"/><circle class="cls-2" cx="18.4" cy="96.94" r="2.51"/><path class="cls-2" d="M20.91,115.83a2.51,2.51,0,1,1-2.51-2.51A2.5,2.5,0,0,1,20.91,115.83Z"/><path class="cls-2" d="M20.91,134.71a2.51,2.51,0,1,1-2.51-2.5A2.51,2.51,0,0,1,20.91,134.71Z"/><circle class="cls-2" cx="18.4" cy="153.6" r="2.51"/><path class="cls-2" d="M20.91,172.49A2.51,2.51,0,1,1,18.4,170,2.51,2.51,0,0,1,20.91,172.49Z"/><circle class="cls-2" cx="18.4" cy="191.37" r="2.51"/><path class="cls-2" d="M20.91,210.26a2.51,2.51,0,1,1-2.51-2.51A2.51,2.51,0,0,1,20.91,210.26Z"/><circle class="cls-2" cx="18.4" cy="229.15" r="2.51"/><circle class="cls-2" cx="18.4" cy="248.03" r="2.51"/><path class="cls-2" d="M36.8,2.51A2.51,2.51,0,1,1,34.29,0,2.52,2.52,0,0,1,36.8,2.51Z"/><circle class="cls-2" cx="34.29" cy="21.39" r="2.51"/><path class="cls-2" d="M36.8,40.28a2.51,2.51,0,1,1-2.51-2.51A2.51,2.51,0,0,1,36.8,40.28Z"/><circle class="cls-2" cx="34.29" cy="59.17" r="2.51"/><path class="cls-2" d="M36.8,78.05a2.51,2.51,0,1,1-2.51-2.51A2.51,2.51,0,0,1,36.8,78.05Z"/><circle class="cls-2" cx="34.29" cy="96.94" r="2.51"/><path class="cls-2" d="M36.8,115.83a2.51,2.51,0,1,1-2.51-2.51A2.51,2.51,0,0,1,36.8,115.83Z"/><path class="cls-2" d="M36.8,134.71a2.51,2.51,0,1,1-2.51-2.5A2.51,2.51,0,0,1,36.8,134.71Z"/><circle class="cls-2" cx="34.29" cy="153.6" r="2.51"/><path class="cls-2" d="M36.8,172.49A2.51,2.51,0,1,1,34.29,170,2.52,2.52,0,0,1,36.8,172.49Z"/><circle class="cls-2" cx="34.29" cy="191.37" r="2.51"/><path class="cls-2" d="M36.8,210.26a2.51,2.51,0,1,1-2.51-2.51A2.52,2.52,0,0,1,36.8,210.26Z"/><circle class="cls-2" cx="34.29" cy="229.15" r="2.51"/><circle class="cls-2" cx="34.29" cy="248.03" r="2.51"/><path class="cls-2" d="M52.69,2.51A2.51,2.51,0,1,1,50.18,0,2.52,2.52,0,0,1,52.69,2.51Z"/><path class="cls-2" d="M52.69,21.39a2.51,2.51,0,1,1-2.51-2.5A2.51,2.51,0,0,1,52.69,21.39Z"/><path class="cls-2" d="M52.69,40.28a2.51,2.51,0,1,1-2.51-2.51A2.51,2.51,0,0,1,52.69,40.28Z"/><path class="cls-2" d="M52.69,59.17a2.51,2.51,0,1,1-2.51-2.51A2.52,2.52,0,0,1,52.69,59.17Z"/><path class="cls-2" d="M52.69,78.05a2.51,2.51,0,1,1-2.51-2.51A2.51,2.51,0,0,1,52.69,78.05Z"/><path class="cls-2" d="M52.69,96.94a2.51,2.51,0,1,1-2.51-2.51A2.51,2.51,0,0,1,52.69,96.94Z"/><path class="cls-2" d="M52.69,115.83a2.51,2.51,0,1,1-2.51-2.51A2.51,2.51,0,0,1,52.69,115.83Z"/><path class="cls-2" d="M52.69,134.71a2.51,2.51,0,1,1-2.51-2.5A2.51,2.51,0,0,1,52.69,134.71Z"/><path class="cls-2" d="M52.69,153.6a2.51,2.51,0,1,1-2.51-2.51A2.51,2.51,0,0,1,52.69,153.6Z"/><path class="cls-2" d="M52.69,172.49A2.51,2.51,0,1,1,50.18,170,2.52,2.52,0,0,1,52.69,172.49Z"/><path class="cls-2" d="M52.69,191.37a2.51,2.51,0,1,1-2.51-2.51A2.51,2.51,0,0,1,52.69,191.37Z"/><path class="cls-2" d="M52.69,210.26a2.51,2.51,0,1,1-2.51-2.51A2.52,2.52,0,0,1,52.69,210.26Z"/><path class="cls-2" d="M52.69,229.15a2.51,2.51,0,1,1-2.51-2.51A2.51,2.51,0,0,1,52.69,229.15Z"/><path class="cls-2" d="M52.69,248a2.51,2.51,0,1,1-2.51-2.51A2.51,2.51,0,0,1,52.69,248Z"/></g></g></g></svg>