<svg xmlns="http://www.w3.org/2000/svg" viewBox="0 0 128.54 103.93"><defs><style>.cls-1{fill:none;stroke:#fff;stroke-linecap:round;stroke-linejoin:round;stroke-width:4px;}</style></defs><g id="Camada_2" data-name="Camada 2"><g id="Layer_2" data-name="Layer 2"><path class="cls-1" d="M87.1,73.48V96a5.9,5.9,0,0,1-5.89,5.89H7.88A5.89,5.89,0,0,1,2,96V31.3a5.88,5.88,0,0,1,5.88-5.88H25.11"/><path class="cls-1" d="M124.76,28l-26-24.73C96.4,1,94.44,1.84,94.44,5.14V18.82C65,19.05,39,16.21,30.77,42.81c-8.33,27,13,47.33,13,47.33-7-37.66,15-44.66,26.67-45.66,6.38-.55,19.75-.42,24-.36V58.48c0,3.3,2,4.16,4.39,1.91l25.89-24.15A5.6,5.6,0,0,0,124.76,28Z"/></g></g></svg>