<svg xmlns="http://www.w3.org/2000/svg" viewBox="0 0 102.66 86.59"><defs><style>.cls-1{fill:none;stroke:#fff;stroke-linecap:round;stroke-linejoin:round;stroke-width:4px;}</style></defs><g id="Camada_2" data-name="Camada 2"><g id="Layer_2" data-name="Layer 2"><rect class="cls-1" x="58.62" y="20.51" width="26.26" height="23.15"/><line class="cls-1" x1="13.56" y1="20.69" x2="45.84" y2="20.69"/><line class="cls-1" x1="13.56" y1="31.69" x2="45.84" y2="31.69"/><line class="cls-1" x1="13.56" y1="43.48" x2="45.84" y2="43.48"/><path class="cls-1" d="M51.18,69.14H65.53a28.66,28.66,0,0,0,.38,7.26,10.11,10.11,0,0,0,5.59,6.75h0c.84.43.44,1.44-.56,1.44H31.43c-1,0-1.4-1-.56-1.44h0a10.11,10.11,0,0,0,5.59-6.75,28.66,28.66,0,0,0,.38-7.26Z"/><path class="cls-1" d="M52.14,63.24a1,1,0,1,1-1-1A1,1,0,0,1,52.14,63.24Z"/><path class="cls-1" d="M84.3,69.14H6.85A4.85,4.85,0,0,1,2,64.29v-7H21"/><path class="cls-1" d="M18.36,69.14H95.81a4.85,4.85,0,0,0,4.85-4.85v-7h-19"/><path class="cls-1" d="M84.23,57.33H2V7.26A5.25,5.25,0,0,1,7.26,2H95.11a5.26,5.26,0,0,1,5.26,5.26V31.68"/><path class="cls-1" d="M18.14,57.33h82.23V7.26A5.26,5.26,0,0,0,95.11,2H7.26A5.26,5.26,0,0,0,2,7.26V31.68"/></g></g></svg>