<svg xmlns="http://www.w3.org/2000/svg" viewBox="0 0 78.41 93.03"><defs><style>.cls-1,.cls-2,.cls-3{fill:none;stroke-linecap:round;stroke-linejoin:round;}.cls-1,.cls-2{stroke:#3e1d43;}.cls-1{stroke-width:2.83px;}.cls-2{stroke-width:2.13px;}.cls-3{stroke:#c13a51;stroke-width:2.12px;}</style></defs><g id="Camada_2" data-name="Camada 2"><g id="Layer_2" data-name="Layer 2"><rect class="cls-1" x="1.42" y="64.73" width="75.58" height="9"/><line class="cls-1" x1="5.02" y1="91.61" x2="5.02" y2="74.06"/><line class="cls-1" x1="73.39" y1="74.06" x2="73.39" y2="91.61"/><path class="cls-1" d="M22,34.92a4.62,4.62,0,1,1-4.62-4.61A4.61,4.61,0,0,1,22,34.92Z"/><path class="cls-1" d="M9.62,54.88S9.4,44.26,15.25,39.09"/><path class="cls-1" d="M35.16,32.29l-.37,3.19A1.79,1.79,0,0,1,34,36.74a2,2,0,0,1-.49.23l-8,2.33A7.66,7.66,0,0,0,22.34,41a9.26,9.26,0,0,0-3.19,5.34l-1.89,9.44a.46.46,0,0,0,.09.38.48.48,0,0,0,.35.16"/><path class="cls-1" d="M48.2,32.29l.37,3.19a1.79,1.79,0,0,0,.76,1.26,1.89,1.89,0,0,0,.5.23l8,2.33A7.69,7.69,0,0,1,61,41a9.26,9.26,0,0,1,3.19,5.34l3.1,17.64c0,.13-1.29-7.68-1.3-7.82"/><line class="cls-2" x1="34.03" y1="36.74" x2="41.45" y2="44.44"/><line class="cls-2" x1="48.88" y1="36.74" x2="41.45" y2="44.44"/><polyline class="cls-3" points="34.35 42.64 41.43 50.22 41.45 50.2 41.48 50.22 48.56 42.64"/><path class="cls-1" d="M31.14,18S27.39,8.64,32.41,3.9C37.58-1,43.74,2.83,43.74,2.83s7.13.1,9.37,5.37S52,18.75,52,18.75s-1.47-6.06-6.16-7.62c-1.07,2.35-2.83,3.32-5.27,4.1s-6.35-1.75-6.35-1.75S32.31,14,31.14,18Z"/><path class="cls-1" d="M30.65,16.8a3.18,3.18,0,0,0-1.76,3.32c.2,2.53,3.42,3.22,3.42,3.22s2.25,11.72,9.86,11.72S51,22.46,51,22.46s3.91.1,4.1-2.83-1.66-3.52-1.66-3.52"/><polyline class="cls-3" points="6.25 62.8 6.25 56.63 22.45 56.63 22.45 62.8"/></g></g></svg>