<svg xmlns="http://www.w3.org/2000/svg" xmlns:xlink="http://www.w3.org/1999/xlink" viewBox="0 0 363.93 363.93"><defs><style>.cls-1{fill:none;}.cls-2{opacity:0.2;}.cls-3{clip-path:url(#clip-path);}.cls-4{fill:#c13a51;}</style><clipPath id="clip-path" transform="translate(88.3 88.3)"><circle class="cls-1" cx="93.67" cy="93.67" r="93.67"/></clipPath></defs><g id="Camada_2" data-name="Camada 2"><g id="Layer_2" data-name="Layer 2"><g class="cls-2"><g class="cls-3"><path class="cls-4" d="M143.51-86.64-86.64,143.51a1,1,0,0,1-1.37,0h0a1,1,0,0,1,0-1.37L142.14-88a1,1,0,0,1,1.37,0h0A1,1,0,0,1,143.51-86.64Z" transform="translate(88.3 88.3)"/><path class="cls-4" d="M150.45-79.7-79.7,150.45a1,1,0,0,1-1.38,0h0a1,1,0,0,1,0-1.37L149.08-81.08a1,1,0,0,1,1.37,0h0A1,1,0,0,1,150.45-79.7Z" transform="translate(88.3 88.3)"/><path class="cls-4" d="M157.39-72.76-72.76,157.39a1,1,0,0,1-1.38,0h0a1,1,0,0,1,0-1.37L156-74.14a1,1,0,0,1,1.37,0h0A1,1,0,0,1,157.39-72.76Z" transform="translate(88.3 88.3)"/><path class="cls-4" d="M164.33-65.82-65.82,164.33a1,1,0,0,1-1.38,0h0a1,1,0,0,1,0-1.38L163-67.2a1,1,0,0,1,1.37,0h0A1,1,0,0,1,164.33-65.82Z" transform="translate(88.3 88.3)"/><path class="cls-4" d="M171.27-58.88-58.88,171.27a1,1,0,0,1-1.38,0h0a1,1,0,0,1,0-1.38L169.89-60.26a1,1,0,0,1,1.38,0h0A1,1,0,0,1,171.27-58.88Z" transform="translate(88.3 88.3)"/><path class="cls-4" d="M178.21-51.95-51.95,178.21a1,1,0,0,1-1.37,0h0a1,1,0,0,1,0-1.38L176.83-53.32a1,1,0,0,1,1.38,0h0A1,1,0,0,1,178.21-51.95Z" transform="translate(88.3 88.3)"/><path class="cls-4" d="M185.15-45-45,185.15a1,1,0,0,1-1.37,0h0a1,1,0,0,1,0-1.38L183.77-46.38a1,1,0,0,1,1.38,0h0A1,1,0,0,1,185.15-45Z" transform="translate(88.3 88.3)"/><path class="cls-4" d="M192.08-38.07-38.07,192.08a1,1,0,0,1-1.37,0h0a1,1,0,0,1,0-1.37L190.71-39.44a1,1,0,0,1,1.37,0h0A1,1,0,0,1,192.08-38.07Z" transform="translate(88.3 88.3)"/><path class="cls-4" d="M199-31.13-31.13,199a1,1,0,0,1-1.37,0h0a1,1,0,0,1,0-1.37L197.65-32.51a1,1,0,0,1,1.37,0h0A1,1,0,0,1,199-31.13Z" transform="translate(88.3 88.3)"/><path class="cls-4" d="M206-24.19-24.19,206a1,1,0,0,1-1.38,0h0a1,1,0,0,1,0-1.37L204.59-25.57a1,1,0,0,1,1.37,0h0A1,1,0,0,1,206-24.19Z" transform="translate(88.3 88.3)"/><path class="cls-4" d="M212.9-17.25-17.25,212.9a1,1,0,0,1-1.38,0h0a1,1,0,0,1,0-1.38L211.53-18.63a1,1,0,0,1,1.37,0h0A1,1,0,0,1,212.9-17.25Z" transform="translate(88.3 88.3)"/><path class="cls-4" d="M219.84-10.31-10.31,219.84a1,1,0,0,1-1.38,0h0a1,1,0,0,1,0-1.38L218.46-11.69a1,1,0,0,1,1.38,0h0A1,1,0,0,1,219.84-10.31Z" transform="translate(88.3 88.3)"/><path class="cls-4" d="M226.78-3.38-3.37,226.78a1,1,0,0,1-1.38,0h0a1,1,0,0,1,0-1.38L225.4-4.75a1,1,0,0,1,1.38,0h0A1,1,0,0,1,226.78-3.38Z" transform="translate(88.3 88.3)"/><path class="cls-4" d="M233.72,3.56,3.56,233.72a1,1,0,0,1-1.37,0h0a1,1,0,0,1,0-1.38L232.34,2.19a1,1,0,0,1,1.38,0h0A1,1,0,0,1,233.72,3.56Z" transform="translate(88.3 88.3)"/><path class="cls-4" d="M240.65,10.5,10.5,240.65a1,1,0,0,1-1.37,0h0a1,1,0,0,1,0-1.37L239.28,9.13a1,1,0,0,1,1.37,0h0A1,1,0,0,1,240.65,10.5Z" transform="translate(88.3 88.3)"/><path class="cls-4" d="M247.59,17.44,17.44,247.59a1,1,0,0,1-1.37,0h0a1,1,0,0,1,0-1.37L246.22,16.07a1,1,0,0,1,1.37,0h0A1,1,0,0,1,247.59,17.44Z" transform="translate(88.3 88.3)"/><path class="cls-4" d="M254.53,24.38,24.38,254.53a1,1,0,0,1-1.38,0h0a1,1,0,0,1,0-1.37L253.16,23a1,1,0,0,1,1.37,0h0A1,1,0,0,1,254.53,24.38Z" transform="translate(88.3 88.3)"/><path class="cls-4" d="M261.47,31.32,31.32,261.47a1,1,0,0,1-1.38,0h0a1,1,0,0,1,0-1.37L260.1,29.94a1,1,0,0,1,1.37,0h0A1,1,0,0,1,261.47,31.32Z" transform="translate(88.3 88.3)"/><path class="cls-4" d="M268.41,38.26,38.26,268.41a1,1,0,0,1-1.38,0h0a1,1,0,0,1,0-1.38L267,36.88a1,1,0,0,1,1.38,0h0A1,1,0,0,1,268.41,38.26Z" transform="translate(88.3 88.3)"/><path class="cls-4" d="M275.35,45.2,45.2,275.35a1,1,0,0,1-1.38,0h0a1,1,0,0,1,0-1.38L274,43.82a1,1,0,0,1,1.38,0h0A1,1,0,0,1,275.35,45.2Z" transform="translate(88.3 88.3)"/></g></g></g></g></svg>