<svg xmlns="http://www.w3.org/2000/svg" viewBox="0 0 80.3 74.88"><defs><style>.cls-1,.cls-2{fill:none;stroke-linecap:round;stroke-linejoin:round;}.cls-1{stroke:#3e1d43;stroke-width:2.83px;}.cls-2{stroke:#c13a51;stroke-width:2.12px;}</style></defs><g id="Camada_2" data-name="Camada 2"><g id="Layer_2" data-name="Layer 2"><polygon class="cls-1" points="29.8 49.15 75.43 49.15 75.43 6.61 4.87 6.61 4.87 22.09 4.87 49.15 29.8 49.15"/><path class="cls-1" d="M76.29,6.61H4A2.59,2.59,0,0,1,1.42,4h0A2.59,2.59,0,0,1,4,1.42H76.29A2.59,2.59,0,0,1,78.88,4h0A2.59,2.59,0,0,1,76.29,6.61Z"/><path class="cls-1" d="M47.07,49.15v1.22a4.2,4.2,0,0,1-4.19,4.2H37.42a4.2,4.2,0,0,1-4.19-4.2V49.15"/><line class="cls-1" x1="40.15" y1="54.57" x2="40.15" y2="65.98"/><path class="cls-1" d="M40.15,66a16.42,16.42,0,0,0-11.39,4.66s-1.41,1.47-2.43,2.82"/><path class="cls-1" d="M40.16,66a16.42,16.42,0,0,1,11.39,4.66S53,72.11,54,73.46"/><polyline class="cls-2" points="65.77 16.46 43.25 33.64 35.79 23.24 17.06 35.49"/><line class="cls-2" x1="65.77" y1="16.46" x2="65.22" y2="23.18"/><line class="cls-2" x1="65.77" y1="16.46" x2="58.84" y2="15.37"/></g></g></svg>