<svg xmlns="http://www.w3.org/2000/svg" viewBox="0 0 52.69 156.11"><defs><style>.cls-1{fill:#fff;}</style></defs><g id="Camada_2" data-name="Camada 2"><g id="Layer_2" data-name="Layer 2"><path class="cls-1" d="M5,2.51A2.51,2.51,0,1,1,2.51,0,2.51,2.51,0,0,1,5,2.51Z"/><circle class="cls-1" cx="2.51" cy="21.39" r="2.51"/><circle class="cls-1" cx="2.51" cy="40.28" r="2.51"/><path class="cls-1" d="M5,59.17a2.51,2.51,0,1,1-2.51-2.51A2.51,2.51,0,0,1,5,59.17Z"/><path class="cls-1" d="M5,78.05a2.51,2.51,0,1,1-2.51-2.51A2.51,2.51,0,0,1,5,78.05Z"/><circle class="cls-1" cx="2.51" cy="96.94" r="2.51"/><circle class="cls-1" cx="2.51" cy="115.83" r="2.51"/><circle class="cls-1" cx="2.51" cy="134.71" r="2.51"/><path class="cls-1" d="M5,153.6a2.51,2.51,0,1,1-2.51-2.51A2.51,2.51,0,0,1,5,153.6Z"/><path class="cls-1" d="M20.91,2.51A2.51,2.51,0,1,1,18.4,0,2.51,2.51,0,0,1,20.91,2.51Z"/><circle class="cls-1" cx="18.4" cy="21.39" r="2.51"/><circle class="cls-1" cx="18.4" cy="40.28" r="2.51"/><path class="cls-1" d="M20.91,59.17a2.51,2.51,0,1,1-2.51-2.51A2.51,2.51,0,0,1,20.91,59.17Z"/><path class="cls-1" d="M20.91,78.05a2.51,2.51,0,1,1-2.51-2.51A2.51,2.51,0,0,1,20.91,78.05Z"/><circle class="cls-1" cx="18.4" cy="96.94" r="2.51"/><circle class="cls-1" cx="18.4" cy="115.83" r="2.51"/><circle class="cls-1" cx="18.4" cy="134.71" r="2.51"/><path class="cls-1" d="M20.91,153.6a2.51,2.51,0,1,1-2.51-2.51A2.51,2.51,0,0,1,20.91,153.6Z"/><path class="cls-1" d="M36.8,2.51A2.51,2.51,0,1,1,34.29,0,2.52,2.52,0,0,1,36.8,2.51Z"/><circle class="cls-1" cx="34.29" cy="21.39" r="2.51"/><circle class="cls-1" cx="34.29" cy="40.28" r="2.51"/><path class="cls-1" d="M36.8,59.17a2.51,2.51,0,1,1-2.51-2.51A2.52,2.52,0,0,1,36.8,59.17Z"/><path class="cls-1" d="M36.8,78.05a2.51,2.51,0,1,1-2.51-2.51A2.51,2.51,0,0,1,36.8,78.05Z"/><circle class="cls-1" cx="34.29" cy="96.94" r="2.51"/><circle class="cls-1" cx="34.29" cy="115.83" r="2.51"/><circle class="cls-1" cx="34.29" cy="134.71" r="2.51"/><path class="cls-1" d="M36.8,153.6a2.51,2.51,0,1,1-2.51-2.51A2.51,2.51,0,0,1,36.8,153.6Z"/><path class="cls-1" d="M52.69,2.51A2.51,2.51,0,1,1,50.18,0,2.52,2.52,0,0,1,52.69,2.51Z"/><path class="cls-1" d="M52.69,21.39a2.51,2.51,0,1,1-2.51-2.5A2.51,2.51,0,0,1,52.69,21.39Z"/><path class="cls-1" d="M52.69,40.28a2.51,2.51,0,1,1-2.51-2.51A2.51,2.51,0,0,1,52.69,40.28Z"/><path class="cls-1" d="M52.69,59.17a2.51,2.51,0,1,1-2.51-2.51A2.52,2.52,0,0,1,52.69,59.17Z"/><path class="cls-1" d="M52.69,78.05a2.51,2.51,0,1,1-2.51-2.51A2.51,2.51,0,0,1,52.69,78.05Z"/><path class="cls-1" d="M52.69,96.94a2.51,2.51,0,1,1-2.51-2.51A2.51,2.51,0,0,1,52.69,96.94Z"/><path class="cls-1" d="M52.69,115.83a2.51,2.51,0,1,1-2.51-2.51A2.51,2.51,0,0,1,52.69,115.83Z"/><path class="cls-1" d="M52.69,134.71a2.51,2.51,0,1,1-2.51-2.51A2.51,2.51,0,0,1,52.69,134.71Z"/><path class="cls-1" d="M52.69,153.6a2.51,2.51,0,1,1-2.51-2.51A2.51,2.51,0,0,1,52.69,153.6Z"/></g></g></svg>