<svg xmlns="http://www.w3.org/2000/svg" xmlns:xlink="http://www.w3.org/1999/xlink" viewBox="0 0 691.77 333.39"><defs><style>.cls-1{fill:url(#linear-gradient);}</style><linearGradient id="linear-gradient" y1="166.69" x2="691.77" y2="166.69" gradientUnits="userSpaceOnUse"><stop offset="0" stop-color="#4f2554"/><stop offset="1" stop-color="#3c1b41"/></linearGradient></defs><g id="Camada_2" data-name="Camada 2"><g id="Layer_2" data-name="Layer 2"><path class="cls-1" d="M625.1,4c-30.31-9.71-65.65-1.45-88.52,20.67-33.22,32.12-40.29,88.62-81.13,110.23-23.23,12.29-51.66,9.44-76.76,1.69s-48.75-20-74.3-26.19-54.76-5.22-75.25,11.23c-11.8,9.47-22.39,27.87-34.28,37.22-17.72,13.93-30.55,18.57-62.17,16.18-70-5.3-128,13.33-132.1,42-5.24,36.64,25.64,57.72,41.35,67.25s44.91,21.14,62.9,24.88c144,30,331.79,40.36,483-18,85.49-33,97.51-91.57,101.61-124.3C696.64,109.32,690.31,24.89,625.1,4Z"/></g></g></svg>