<svg xmlns="http://www.w3.org/2000/svg" viewBox="0 0 287 287"><defs><style>.cls-1{fill:#c13a51;}</style></defs><g id="Camada_2" data-name="Camada 2"><g id="Layer_2" data-name="Layer 2"><path class="cls-1" d="M105.28.27s0,0,0,0,0,0,0,0a0,0,0,0,0,0,0A0,0,0,0,0,105.28.27Z"/><path class="cls-1" d="M114.82.34a.1.1,0,0,0,.11-.1.11.11,0,0,0-.11-.11.11.11,0,0,0-.1.11A.1.1,0,0,0,114.82.34Z"/><path class="cls-1" d="M124.37.42a.18.18,0,0,0,.19-.18.19.19,0,1,0-.37,0A.18.18,0,0,0,124.37.42Z"/><path class="cls-1" d="M133.92.48a.24.24,0,0,0,.24-.24.24.24,0,0,0-.24-.24.24.24,0,0,0-.24.24A.24.24,0,0,0,133.92.48Z"/><path class="cls-1" d="M143.47.48a.24.24,0,0,0,.24-.24.24.24,0,0,0-.48,0A.24.24,0,0,0,143.47.48Z"/><path class="cls-1" d="M153,.48a.24.24,0,0,0,.24-.24.24.24,0,1,0-.48,0A.24.24,0,0,0,153,.48Z"/><path class="cls-1" d="M162.57.42a.19.19,0,0,0,.19-.18.19.19,0,0,0-.38,0A.19.19,0,0,0,162.57.42Z"/><path class="cls-1" d="M172.12.37a.13.13,0,0,0,.13-.13.13.13,0,0,0-.26,0A.13.13,0,0,0,172.12.37Z"/><path class="cls-1" d="M181.67.27s0,0,0,0,0,0,0,0a0,0,0,0,0,0,0A0,0,0,0,0,181.67.27Z"/><path class="cls-1" d="M86.18,10A.16.16,0,1,0,86,9.79.16.16,0,0,0,86.18,10Z"/><path class="cls-1" d="M95.73,10.08a.29.29,0,1,0-.29-.29A.29.29,0,0,0,95.73,10.08Z"/><path class="cls-1" d="M105.28,10.21a.43.43,0,0,0,0-.85.43.43,0,1,0,0,.85Z"/><path class="cls-1" d="M114.82,10.32a.54.54,0,0,0,.54-.53.53.53,0,0,0-.54-.53.52.52,0,0,0-.52.53A.52.52,0,0,0,114.82,10.32Z"/><path class="cls-1" d="M124.37,10.37a.58.58,0,0,0,.59-.58.59.59,0,1,0-1.17,0A.58.58,0,0,0,124.37,10.37Z"/><path class="cls-1" d="M133.92,10.42a.64.64,0,0,0,.64-.63.64.64,0,0,0-.64-.64.64.64,0,0,0-.63.64A.63.63,0,0,0,133.92,10.42Z"/><path class="cls-1" d="M143.47,10.45a.67.67,0,0,0,0-1.33.67.67,0,0,0,0,1.33Z"/><path class="cls-1" d="M153,10.42a.64.64,0,0,0,.64-.63.64.64,0,0,0-.64-.64.64.64,0,0,0-.63.64A.63.63,0,0,0,153,10.42Z"/><path class="cls-1" d="M162.57,10.4a.61.61,0,0,0,.61-.61.61.61,0,1,0-1.22,0A.61.61,0,0,0,162.57,10.4Z"/><path class="cls-1" d="M172.12,10.32a.53.53,0,0,0,.53-.53.53.53,0,1,0-1.06,0A.53.53,0,0,0,172.12,10.32Z"/><path class="cls-1" d="M181.67,10.21a.43.43,0,0,0,0-.85.43.43,0,1,0,0,.85Z"/><path class="cls-1" d="M191.22,10.08a.29.29,0,1,0-.29-.29A.29.29,0,0,0,191.22,10.08Z"/><path class="cls-1" d="M200.77,10a.16.16,0,0,0,0-.32.16.16,0,1,0,0,.32Z"/><path class="cls-1" d="M67.08,19.47a.13.13,0,0,0,.13-.13.13.13,0,1,0-.26,0A.13.13,0,0,0,67.08,19.47Z"/><path class="cls-1" d="M76.63,19.68a.34.34,0,0,0,.34-.34.35.35,0,0,0-.34-.35.35.35,0,0,0-.35.35A.35.35,0,0,0,76.63,19.68Z"/><path class="cls-1" d="M86.18,19.84a.51.51,0,1,0-.5-.5A.5.5,0,0,0,86.18,19.84Z"/><path class="cls-1" d="M95.73,20a.69.69,0,1,0-.69-.69A.69.69,0,0,0,95.73,20Z"/><path class="cls-1" d="M105.28,20.16a.82.82,0,1,0-.83-.82A.82.82,0,0,0,105.28,20.16Z"/><path class="cls-1" d="M114.82,20.24a.9.9,0,1,0-.9-.9A.9.9,0,0,0,114.82,20.24Z"/><path class="cls-1" d="M124.37,20.32a1,1,0,1,0-1-1A1,1,0,0,0,124.37,20.32Z"/><path class="cls-1" d="M133.92,20.37a1,1,0,1,0-1-1A1,1,0,0,0,133.92,20.37Z"/><circle class="cls-1" cx="143.47" cy="19.34" r="1.06"/><path class="cls-1" d="M153,20.37a1,1,0,1,0-1-1A1,1,0,0,0,153,20.37Z"/><path class="cls-1" d="M162.57,20.34a1,1,0,1,0-1-1A1,1,0,0,0,162.57,20.34Z"/><path class="cls-1" d="M172.12,20.26a.93.93,0,1,0-.93-.92A.93.93,0,0,0,172.12,20.26Z"/><path class="cls-1" d="M181.67,20.16a.82.82,0,1,0-.82-.82A.82.82,0,0,0,181.67,20.16Z"/><path class="cls-1" d="M191.22,20a.69.69,0,1,0-.69-.69A.69.69,0,0,0,191.22,20Z"/><path class="cls-1" d="M200.77,19.87a.53.53,0,0,0,.53-.53.53.53,0,0,0-.53-.53.52.52,0,0,0-.53.53A.53.53,0,0,0,200.77,19.87Z"/><path class="cls-1" d="M210.32,19.68a.34.34,0,0,0,.34-.34.35.35,0,0,0-.34-.35.35.35,0,0,0-.35.35A.34.34,0,0,0,210.32,19.68Z"/><path class="cls-1" d="M219.86,19.5a.16.16,0,0,0,.16-.16.16.16,0,0,0-.16-.16.16.16,0,0,0-.15.16A.16.16,0,0,0,219.86,19.5Z"/><path class="cls-1" d="M57.53,29.12a.24.24,0,1,0-.24-.23A.23.23,0,0,0,57.53,29.12Z"/><path class="cls-1" d="M67.08,29.36a.48.48,0,1,0-.48-.47A.48.48,0,0,0,67.08,29.36Z"/><path class="cls-1" d="M76.63,29.57a.68.68,0,0,0,.69-.68.69.69,0,1,0-1.38,0A.68.68,0,0,0,76.63,29.57Z"/><path class="cls-1" d="M86.18,29.76a.88.88,0,1,0-.88-.87A.87.87,0,0,0,86.18,29.76Z"/><path class="cls-1" d="M95.73,29.92a1,1,0,0,0,0-2.07,1,1,0,1,0,0,2.07Z"/><path class="cls-1" d="M105.28,30.08a1.2,1.2,0,1,0-1.2-1.19A1.2,1.2,0,0,0,105.28,30.08Z"/><path class="cls-1" d="M114.82,30.16a1.27,1.27,0,1,0-1.27-1.27A1.27,1.27,0,0,0,114.82,30.16Z"/><path class="cls-1" d="M124.37,30.26A1.38,1.38,0,1,0,123,28.89,1.37,1.37,0,0,0,124.37,30.26Z"/><path class="cls-1" d="M133.92,30.29a1.41,1.41,0,1,0-1.4-1.4A1.41,1.41,0,0,0,133.92,30.29Z"/><path class="cls-1" d="M143.47,30.32A1.43,1.43,0,1,0,142,28.89,1.44,1.44,0,0,0,143.47,30.32Z"/><path class="cls-1" d="M153,30.29a1.41,1.41,0,1,0-1.4-1.4A1.4,1.4,0,0,0,153,30.29Z"/><path class="cls-1" d="M162.57,30.26a1.38,1.38,0,1,0-1.38-1.37A1.37,1.37,0,0,0,162.57,30.26Z"/><path class="cls-1" d="M172.12,30.18a1.3,1.3,0,1,0-1.3-1.29A1.3,1.3,0,0,0,172.12,30.18Z"/><path class="cls-1" d="M181.67,30.08a1.2,1.2,0,1,0-1.19-1.19A1.19,1.19,0,0,0,181.67,30.08Z"/><path class="cls-1" d="M191.22,30a1.06,1.06,0,1,0,0-2.12,1.06,1.06,0,0,0,0,2.12Z"/><path class="cls-1" d="M200.77,29.79a.91.91,0,1,0-.91-.9A.91.91,0,0,0,200.77,29.79Z"/><path class="cls-1" d="M210.32,29.6a.72.72,0,1,0-.72-.71A.71.71,0,0,0,210.32,29.6Z"/><path class="cls-1" d="M219.86,29.36a.48.48,0,1,0-.47-.47A.47.47,0,0,0,219.86,29.36Z"/><path class="cls-1" d="M229.41,29.15a.27.27,0,1,0-.26-.26A.27.27,0,0,0,229.41,29.15Z"/><path class="cls-1" d="M48,38.73a.3.3,0,1,0-.29-.29A.29.29,0,0,0,48,38.73Z"/><path class="cls-1" d="M57.53,39a.56.56,0,1,0,0-1.11.56.56,0,0,0,0,1.11Z"/><path class="cls-1" d="M67.08,39.26a.83.83,0,1,0-.82-.82A.82.82,0,0,0,67.08,39.26Z"/><path class="cls-1" d="M76.63,39.44a1,1,0,1,0-1-1A1,1,0,0,0,76.63,39.44Z"/><path class="cls-1" d="M86.18,39.65A1.22,1.22,0,1,0,85,38.44,1.22,1.22,0,0,0,86.18,39.65Z"/><path class="cls-1" d="M95.73,39.84a1.41,1.41,0,1,0-1.41-1.4A1.4,1.4,0,0,0,95.73,39.84Z"/><path class="cls-1" d="M105.28,40a1.54,1.54,0,1,0-1.54-1.53A1.54,1.54,0,0,0,105.28,40Z"/><path class="cls-1" d="M114.82,40.08a1.65,1.65,0,1,0-1.64-1.64A1.65,1.65,0,0,0,114.82,40.08Z"/><path class="cls-1" d="M124.37,40.16a1.73,1.73,0,1,0-1.72-1.72A1.72,1.72,0,0,0,124.37,40.16Z"/><path class="cls-1" d="M133.92,40.21a1.78,1.78,0,1,0-1.77-1.77A1.78,1.78,0,0,0,133.92,40.21Z"/><path class="cls-1" d="M143.47,40.24a1.81,1.81,0,1,0-1.8-1.8A1.8,1.8,0,0,0,143.47,40.24Z"/><path class="cls-1" d="M153,40.21a1.78,1.78,0,1,0-1.77-1.77A1.78,1.78,0,0,0,153,40.21Z"/><path class="cls-1" d="M162.57,40.18a1.75,1.75,0,1,0-1.75-1.74A1.75,1.75,0,0,0,162.57,40.18Z"/><path class="cls-1" d="M172.12,40.08a1.65,1.65,0,1,0-1.64-1.64A1.64,1.64,0,0,0,172.12,40.08Z"/><path class="cls-1" d="M181.67,40a1.54,1.54,0,1,0-1.54-1.53A1.53,1.53,0,0,0,181.67,40Z"/><path class="cls-1" d="M191.22,39.84a1.41,1.41,0,1,0-1.41-1.4A1.4,1.4,0,0,0,191.22,39.84Z"/><path class="cls-1" d="M200.77,39.68a1.25,1.25,0,1,0-1.25-1.24A1.25,1.25,0,0,0,200.77,39.68Z"/><path class="cls-1" d="M210.32,39.49a1,1,0,0,0,1.05-1.05,1.06,1.06,0,1,0-1.05,1.05Z"/><path class="cls-1" d="M219.86,39.26a.83.83,0,1,0-.82-.82A.83.83,0,0,0,219.86,39.26Z"/><path class="cls-1" d="M229.41,39a.59.59,0,1,0,0-1.17.59.59,0,0,0,0,1.17Z"/><path class="cls-1" d="M239,38.75a.32.32,0,1,0,0-.63.32.32,0,1,0,0,.63Z"/><path class="cls-1" d="M248.51,38.46s0,0,0,0a0,0,0,0,0,0,0,0,0,0,0,0,0,0S248.5,38.46,248.51,38.46Z"/><path class="cls-1" d="M38.43,48.27a.29.29,0,1,0-.29-.29A.29.29,0,0,0,38.43,48.27Z"/><path class="cls-1" d="M48,48.57a.59.59,0,0,0,.58-.59.58.58,0,1,0-1.16,0A.59.59,0,0,0,48,48.57Z"/><path class="cls-1" d="M57.53,48.86a.88.88,0,1,0,0-1.75.88.88,0,0,0,0,1.75Z"/><path class="cls-1" d="M67.08,49.1A1.12,1.12,0,1,0,66,48,1.12,1.12,0,0,0,67.08,49.1Z"/><path class="cls-1" d="M76.63,49.33A1.35,1.35,0,1,0,75.28,48,1.34,1.34,0,0,0,76.63,49.33Z"/><path class="cls-1" d="M86.18,49.55A1.57,1.57,0,1,0,84.62,48,1.56,1.56,0,0,0,86.18,49.55Z"/><path class="cls-1" d="M95.73,49.7A1.72,1.72,0,1,0,94,48,1.72,1.72,0,0,0,95.73,49.7Z"/><path class="cls-1" d="M105.28,49.86A1.88,1.88,0,1,0,103.4,48,1.88,1.88,0,0,0,105.28,49.86Z"/><path class="cls-1" d="M114.82,50a2,2,0,1,0-2-2A2,2,0,0,0,114.82,50Z"/><path class="cls-1" d="M124.37,50.08a2.1,2.1,0,1,0-2.09-2.1A2.1,2.1,0,0,0,124.37,50.08Z"/><path class="cls-1" d="M133.92,50.13A2.15,2.15,0,1,0,131.78,48,2.15,2.15,0,0,0,133.92,50.13Z"/><path class="cls-1" d="M143.47,50.15A2.17,2.17,0,1,0,141.3,48,2.17,2.17,0,0,0,143.47,50.15Z"/><path class="cls-1" d="M153,50.13A2.15,2.15,0,1,0,150.88,48,2.15,2.15,0,0,0,153,50.13Z"/><path class="cls-1" d="M162.57,50.08a2.1,2.1,0,1,0-2.09-2.1A2.09,2.09,0,0,0,162.57,50.08Z"/><path class="cls-1" d="M172.12,50a2,2,0,1,0-2-2A2,2,0,0,0,172.12,50Z"/><path class="cls-1" d="M181.67,49.89A1.91,1.91,0,1,0,179.76,48,1.9,1.9,0,0,0,181.67,49.89Z"/><path class="cls-1" d="M191.22,49.73A1.75,1.75,0,1,0,189.47,48,1.74,1.74,0,0,0,191.22,49.73Z"/><path class="cls-1" d="M200.77,49.57A1.59,1.59,0,1,0,199.18,48,1.59,1.59,0,0,0,200.77,49.57Z"/><path class="cls-1" d="M210.32,49.36A1.38,1.38,0,1,0,208.94,48,1.37,1.37,0,0,0,210.32,49.36Z"/><path class="cls-1" d="M219.86,49.12a1.14,1.14,0,1,0,0-2.27,1.14,1.14,0,0,0,0,2.27Z"/><path class="cls-1" d="M229.41,48.86a.88.88,0,1,0,0-1.75.88.88,0,0,0,0,1.75Z"/><path class="cls-1" d="M239,48.59a.61.61,0,0,0,.61-.61.61.61,0,0,0-.61-.61.62.62,0,0,0-.61.61A.61.61,0,0,0,239,48.59Z"/><path class="cls-1" d="M248.51,48.3a.32.32,0,1,0-.32-.32A.32.32,0,0,0,248.51,48.3Z"/><path class="cls-1" d="M258.06,48a0,0,0,0,0,0,0l0,0,0,0A0,0,0,0,0,258.06,48Z"/><path class="cls-1" d="M28.88,57.77a.24.24,0,1,0-.23-.24A.24.24,0,0,0,28.88,57.77Z"/><path class="cls-1" d="M38.43,58.09a.56.56,0,0,0,.56-.56.56.56,0,0,0-1.11,0A.56.56,0,0,0,38.43,58.09Z"/><path class="cls-1" d="M48,58.41a.88.88,0,1,0-.87-.88A.87.87,0,0,0,48,58.41Z"/><path class="cls-1" d="M57.53,58.67a1.14,1.14,0,1,0-1.14-1.14A1.14,1.14,0,0,0,57.53,58.67Z"/><path class="cls-1" d="M67.08,58.94a1.41,1.41,0,1,0-1.4-1.41A1.41,1.41,0,0,0,67.08,58.94Z"/><path class="cls-1" d="M76.63,59.18A1.65,1.65,0,1,0,75,57.53,1.64,1.64,0,0,0,76.63,59.18Z"/><path class="cls-1" d="M86.18,59.39a1.86,1.86,0,1,0-1.86-1.86A1.85,1.85,0,0,0,86.18,59.39Z"/><path class="cls-1" d="M95.73,59.57a2,2,0,1,0-2-2A2,2,0,0,0,95.73,59.57Z"/><path class="cls-1" d="M105.28,59.76a2.23,2.23,0,1,0-2.23-2.23A2.23,2.23,0,0,0,105.28,59.76Z"/><path class="cls-1" d="M114.82,59.89a2.36,2.36,0,1,0-2.35-2.36A2.36,2.36,0,0,0,114.82,59.89Z"/><path class="cls-1" d="M124.37,60a2.44,2.44,0,1,0-2.43-2.44A2.44,2.44,0,0,0,124.37,60Z"/><path class="cls-1" d="M133.92,60a2.49,2.49,0,1,0-2.49-2.49A2.48,2.48,0,0,0,133.92,60Z"/><path class="cls-1" d="M143.47,60.05A2.52,2.52,0,1,0,141,57.53,2.52,2.52,0,0,0,143.47,60.05Z"/><path class="cls-1" d="M153,60a2.49,2.49,0,1,0-2.49-2.49A2.48,2.48,0,0,0,153,60Z"/><path class="cls-1" d="M162.57,60a2.44,2.44,0,1,0-2.44-2.44A2.44,2.44,0,0,0,162.57,60Z"/><path class="cls-1" d="M172.12,59.89a2.36,2.36,0,1,0-2.36-2.36A2.36,2.36,0,0,0,172.12,59.89Z"/><path class="cls-1" d="M181.67,59.76a2.23,2.23,0,1,0-2.23-2.23A2.22,2.22,0,0,0,181.67,59.76Z"/><path class="cls-1" d="M191.22,59.6a2.07,2.07,0,1,0-2.07-2.07A2.07,2.07,0,0,0,191.22,59.6Z"/><path class="cls-1" d="M200.77,59.41a1.88,1.88,0,1,0-1.88-1.88A1.88,1.88,0,0,0,200.77,59.41Z"/><path class="cls-1" d="M210.32,59.2a1.67,1.67,0,1,0-1.67-1.67A1.66,1.66,0,0,0,210.32,59.2Z"/><circle class="cls-1" cx="219.86" cy="57.53" r="1.43"/><path class="cls-1" d="M229.41,58.7a1.17,1.17,0,1,0-1.16-1.17A1.17,1.17,0,0,0,229.41,58.7Z"/><path class="cls-1" d="M239,58.41a.88.88,0,1,0,0-1.75.88.88,0,0,0,0,1.75Z"/><path class="cls-1" d="M248.51,58.11a.58.58,0,1,0-.58-.58A.58.58,0,0,0,248.51,58.11Z"/><path class="cls-1" d="M258.06,57.8a.26.26,0,0,0,.26-.27.25.25,0,0,0-.26-.26.26.26,0,0,0-.27.26A.27.27,0,0,0,258.06,57.8Z"/><path class="cls-1" d="M19.34,67.21a.13.13,0,0,0,0-.26.13.13,0,1,0,0,.26Z"/><path class="cls-1" d="M28.88,67.56a.48.48,0,1,0-.47-.48A.48.48,0,0,0,28.88,67.56Z"/><path class="cls-1" d="M38.43,67.9a.82.82,0,1,0-.82-.82A.82.82,0,0,0,38.43,67.9Z"/><path class="cls-1" d="M48,68.19A1.11,1.11,0,1,0,48,66a1.11,1.11,0,1,0,0,2.22Z"/><path class="cls-1" d="M57.53,68.48a1.4,1.4,0,1,0-1.4-1.4A1.39,1.39,0,0,0,57.53,68.48Z"/><path class="cls-1" d="M67.08,68.75a1.67,1.67,0,1,0-1.67-1.67A1.67,1.67,0,0,0,67.08,68.75Z"/><path class="cls-1" d="M76.63,69a1.93,1.93,0,1,0-1.93-1.93A1.92,1.92,0,0,0,76.63,69Z"/><path class="cls-1" d="M86.18,69.25A2.17,2.17,0,1,0,84,67.08,2.17,2.17,0,0,0,86.18,69.25Z"/><path class="cls-1" d="M95.73,69.44a2.36,2.36,0,1,0-2.36-2.36A2.36,2.36,0,0,0,95.73,69.44Z"/><path class="cls-1" d="M105.28,69.62a2.54,2.54,0,1,0-2.55-2.54A2.54,2.54,0,0,0,105.28,69.62Z"/><path class="cls-1" d="M114.82,69.76a2.68,2.68,0,1,0-2.67-2.68A2.68,2.68,0,0,0,114.82,69.76Z"/><path class="cls-1" d="M124.37,69.84a2.76,2.76,0,1,0-2.75-2.76A2.76,2.76,0,0,0,124.37,69.84Z"/><path class="cls-1" d="M133.92,69.91a2.83,2.83,0,1,0-2.83-2.83A2.83,2.83,0,0,0,133.92,69.91Z"/><path class="cls-1" d="M143.47,69.94a2.86,2.86,0,1,0-2.86-2.86A2.86,2.86,0,0,0,143.47,69.94Z"/><path class="cls-1" d="M153,69.91a2.83,2.83,0,1,0-2.83-2.83A2.83,2.83,0,0,0,153,69.91Z"/><path class="cls-1" d="M162.57,69.86a2.78,2.78,0,1,0-2.78-2.78A2.77,2.77,0,0,0,162.57,69.86Z"/><path class="cls-1" d="M172.12,69.78a2.7,2.7,0,1,0-2.7-2.7A2.7,2.7,0,0,0,172.12,69.78Z"/><circle class="cls-1" cx="181.67" cy="67.08" r="2.54"/><path class="cls-1" d="M191.22,69.46a2.38,2.38,0,1,0-2.39-2.38A2.38,2.38,0,0,0,191.22,69.46Z"/><path class="cls-1" d="M200.77,69.25a2.17,2.17,0,1,0-2.18-2.17A2.17,2.17,0,0,0,200.77,69.25Z"/><path class="cls-1" d="M210.32,69a2,2,0,1,0-2-2A2,2,0,0,0,210.32,69Z"/><path class="cls-1" d="M219.86,68.8a1.72,1.72,0,1,0-1.72-1.72A1.73,1.73,0,0,0,219.86,68.8Z"/><path class="cls-1" d="M229.41,68.51A1.43,1.43,0,1,0,228,67.08,1.43,1.43,0,0,0,229.41,68.51Z"/><path class="cls-1" d="M239,68.22a1.14,1.14,0,1,0-1.14-1.14A1.14,1.14,0,0,0,239,68.22Z"/><path class="cls-1" d="M248.51,67.9a.82.82,0,1,0-.82-.82A.82.82,0,0,0,248.51,67.9Z"/><path class="cls-1" d="M258.06,67.58a.5.5,0,1,0-.5-.5A.5.5,0,0,0,258.06,67.58Z"/><path class="cls-1" d="M267.61,67.24a.16.16,0,1,0-.16-.16A.16.16,0,0,0,267.61,67.24Z"/><path class="cls-1" d="M19.34,77a.34.34,0,1,0-.35-.34A.34.34,0,0,0,19.34,77Z"/><path class="cls-1" d="M28.88,77.32a.69.69,0,1,0,0-1.38.69.69,0,0,0,0,1.38Z"/><path class="cls-1" d="M38.43,77.64a1,1,0,1,0-1-1A1,1,0,0,0,38.43,77.64Z"/><path class="cls-1" d="M48,78a1.35,1.35,0,1,0-1.35-1.35A1.34,1.34,0,0,0,48,78Z"/><path class="cls-1" d="M57.53,78.27a1.64,1.64,0,1,0-1.64-1.64A1.63,1.63,0,0,0,57.53,78.27Z"/><path class="cls-1" d="M67.08,78.56a1.93,1.93,0,1,0-1.93-1.93A1.92,1.92,0,0,0,67.08,78.56Z"/><path class="cls-1" d="M76.63,78.83a2.2,2.2,0,1,0-2.2-2.2A2.21,2.21,0,0,0,76.63,78.83Z"/><path class="cls-1" d="M86.18,79.07a2.44,2.44,0,1,0-2.44-2.44A2.43,2.43,0,0,0,86.18,79.07Z"/><path class="cls-1" d="M95.73,79.28a2.65,2.65,0,1,0-2.65-2.65A2.65,2.65,0,0,0,95.73,79.28Z"/><path class="cls-1" d="M105.28,79.44a2.81,2.81,0,1,0-2.81-2.81A2.8,2.8,0,0,0,105.28,79.44Z"/><path class="cls-1" d="M114.82,79.6a3,3,0,1,0-3-3A3,3,0,0,0,114.82,79.6Z"/><path class="cls-1" d="M124.37,79.7a3.07,3.07,0,1,0-3.07-3.07A3.07,3.07,0,0,0,124.37,79.7Z"/><path class="cls-1" d="M133.92,79.78a3.15,3.15,0,1,0-3.15-3.15A3.15,3.15,0,0,0,133.92,79.78Z"/><path class="cls-1" d="M143.47,79.81a3.18,3.18,0,1,0-3.18-3.18A3.18,3.18,0,0,0,143.47,79.81Z"/><path class="cls-1" d="M153,79.78a3.15,3.15,0,1,0-3.15-3.15A3.15,3.15,0,0,0,153,79.78Z"/><path class="cls-1" d="M162.57,79.73a3.1,3.1,0,1,0-3.1-3.1A3.1,3.1,0,0,0,162.57,79.73Z"/><path class="cls-1" d="M172.12,79.62a3,3,0,1,0-3-3A3,3,0,0,0,172.12,79.62Z"/><path class="cls-1" d="M181.67,79.46a2.83,2.83,0,1,0-2.83-2.83A2.83,2.83,0,0,0,181.67,79.46Z"/><path class="cls-1" d="M191.22,79.31a2.68,2.68,0,1,0-2.68-2.68A2.68,2.68,0,0,0,191.22,79.31Z"/><path class="cls-1" d="M200.77,79.09a2.46,2.46,0,1,0-2.47-2.46A2.46,2.46,0,0,0,200.77,79.09Z"/><path class="cls-1" d="M210.32,78.85a2.22,2.22,0,1,0-2.23-2.22A2.22,2.22,0,0,0,210.32,78.85Z"/><path class="cls-1" d="M219.86,78.59a2,2,0,1,0-2-2A2,2,0,0,0,219.86,78.59Z"/><path class="cls-1" d="M229.41,78.3a1.67,1.67,0,1,0-1.67-1.67A1.67,1.67,0,0,0,229.41,78.3Z"/><path class="cls-1" d="M239,78a1.38,1.38,0,1,0-1.37-1.38A1.38,1.38,0,0,0,239,78Z"/><path class="cls-1" d="M248.51,77.69a1.06,1.06,0,1,0-1.06-1.06A1.06,1.06,0,0,0,248.51,77.69Z"/><path class="cls-1" d="M258.06,77.35a.72.72,0,1,0-.72-.72A.71.71,0,0,0,258.06,77.35Z"/><path class="cls-1" d="M267.61,77a.37.37,0,0,0,0-.74.37.37,0,0,0,0,.74Z"/><path class="cls-1" d="M9.79,86.34a.16.16,0,0,0,0-.32.16.16,0,1,0,0,.32Z"/><path class="cls-1" d="M19.34,86.68a.5.5,0,1,0-.51-.5A.5.5,0,0,0,19.34,86.68Z"/><path class="cls-1" d="M28.88,87.05a.87.87,0,1,0-.87-.87A.87.87,0,0,0,28.88,87.05Z"/><path class="cls-1" d="M38.43,87.4a1.22,1.22,0,1,0-1.21-1.22A1.22,1.22,0,0,0,38.43,87.4Z"/><path class="cls-1" d="M48,87.74a1.56,1.56,0,1,0-1.56-1.56A1.56,1.56,0,0,0,48,87.74Z"/><path class="cls-1" d="M57.53,88a1.85,1.85,0,1,0-1.85-1.85A1.85,1.85,0,0,0,57.53,88Z"/><path class="cls-1" d="M67.08,88.35a2.17,2.17,0,1,0-2.17-2.17A2.17,2.17,0,0,0,67.08,88.35Z"/><path class="cls-1" d="M76.63,88.61a2.44,2.44,0,1,0-2.44-2.43A2.44,2.44,0,0,0,76.63,88.61Z"/><path class="cls-1" d="M86.18,88.88a2.7,2.7,0,1,0-2.7-2.7A2.7,2.7,0,0,0,86.18,88.88Z"/><path class="cls-1" d="M95.73,89.09a2.91,2.91,0,1,0-2.91-2.91A2.91,2.91,0,0,0,95.73,89.09Z"/><path class="cls-1" d="M105.28,89.28a3.1,3.1,0,1,0-3.1-3.1A3.09,3.09,0,0,0,105.28,89.28Z"/><path class="cls-1" d="M114.82,89.46a3.29,3.29,0,1,0-3.28-3.28A3.28,3.28,0,0,0,114.82,89.46Z"/><path class="cls-1" d="M124.37,89.57A3.39,3.39,0,1,0,121,86.18,3.39,3.39,0,0,0,124.37,89.57Z"/><path class="cls-1" d="M133.92,89.65a3.47,3.47,0,1,0-3.47-3.47A3.47,3.47,0,0,0,133.92,89.65Z"/><path class="cls-1" d="M143.47,89.65A3.47,3.47,0,1,0,140,86.18,3.47,3.47,0,0,0,143.47,89.65Z"/><path class="cls-1" d="M153,89.65a3.47,3.47,0,1,0-3.47-3.47A3.47,3.47,0,0,0,153,89.65Z"/><path class="cls-1" d="M162.57,89.57a3.39,3.39,0,1,0-3.39-3.39A3.39,3.39,0,0,0,162.57,89.57Z"/><path class="cls-1" d="M172.12,89.46a3.29,3.29,0,1,0-3.28-3.28A3.28,3.28,0,0,0,172.12,89.46Z"/><path class="cls-1" d="M181.67,89.3a3.13,3.13,0,1,0-3.13-3.12A3.12,3.12,0,0,0,181.67,89.3Z"/><path class="cls-1" d="M191.22,89.12a2.94,2.94,0,1,0-2.94-2.94A2.94,2.94,0,0,0,191.22,89.12Z"/><path class="cls-1" d="M200.77,88.88a2.7,2.7,0,1,0-2.7-2.7A2.7,2.7,0,0,0,200.77,88.88Z"/><path class="cls-1" d="M210.32,88.64a2.46,2.46,0,1,0-2.47-2.46A2.46,2.46,0,0,0,210.32,88.64Z"/><path class="cls-1" d="M219.86,88.35a2.17,2.17,0,1,0-2.17-2.17A2.18,2.18,0,0,0,219.86,88.35Z"/><path class="cls-1" d="M229.41,88.09a1.91,1.91,0,1,0-1.9-1.91A1.91,1.91,0,0,0,229.41,88.09Z"/><path class="cls-1" d="M239,87.77a1.59,1.59,0,1,0-1.59-1.59A1.59,1.59,0,0,0,239,87.77Z"/><path class="cls-1" d="M248.51,87.45a1.27,1.27,0,1,0-1.27-1.27A1.27,1.27,0,0,0,248.51,87.45Z"/><path class="cls-1" d="M258.06,87.08a.9.9,0,1,0-.9-.9A.9.9,0,0,0,258.06,87.08Z"/><path class="cls-1" d="M267.61,86.74a.56.56,0,0,0,0-1.12.56.56,0,0,0,0,1.12Z"/><path class="cls-1" d="M277.16,86.36a.18.18,0,0,0,.18-.18.19.19,0,0,0-.18-.19.2.2,0,0,0-.19.19A.19.19,0,0,0,277.16,86.36Z"/><path class="cls-1" d="M9.79,96a.29.29,0,1,0-.29-.29A.29.29,0,0,0,9.79,96Z"/><path class="cls-1" d="M19.34,96.42a.69.69,0,0,0,0-1.38.69.69,0,0,0,0,1.38Z"/><path class="cls-1" d="M28.88,96.76a1,1,0,1,0-1-1A1,1,0,0,0,28.88,96.76Z"/><path class="cls-1" d="M38.43,97.13a1.4,1.4,0,1,0-1.4-1.4A1.41,1.41,0,0,0,38.43,97.13Z"/><path class="cls-1" d="M48,97.45a1.72,1.72,0,1,0-1.72-1.72A1.72,1.72,0,0,0,48,97.45Z"/><path class="cls-1" d="M57.53,97.77a2,2,0,1,0-2-2A2,2,0,0,0,57.53,97.77Z"/><path class="cls-1" d="M67.08,98.09a2.36,2.36,0,1,0-2.36-2.36A2.36,2.36,0,0,0,67.08,98.09Z"/><path class="cls-1" d="M76.63,98.38A2.65,2.65,0,1,0,74,95.73,2.65,2.65,0,0,0,76.63,98.38Z"/><path class="cls-1" d="M86.18,98.64a2.91,2.91,0,1,0-2.91-2.91A2.91,2.91,0,0,0,86.18,98.64Z"/><path class="cls-1" d="M95.73,98.88a3.15,3.15,0,1,0-3.15-3.15A3.15,3.15,0,0,0,95.73,98.88Z"/><path class="cls-1" d="M105.28,99.07a3.34,3.34,0,1,0-3.34-3.34A3.34,3.34,0,0,0,105.28,99.07Z"/><path class="cls-1" d="M114.82,99.25a3.52,3.52,0,1,0-3.52-3.52A3.53,3.53,0,0,0,114.82,99.25Z"/><path class="cls-1" d="M124.37,99.38a3.65,3.65,0,1,0-3.65-3.65A3.65,3.65,0,0,0,124.37,99.38Z"/><path class="cls-1" d="M133.92,99.46a3.73,3.73,0,1,0-3.73-3.73A3.74,3.74,0,0,0,133.92,99.46Z"/><path class="cls-1" d="M143.47,99.52a3.79,3.79,0,1,0-3.78-3.79A3.79,3.79,0,0,0,143.47,99.52Z"/><path class="cls-1" d="M153,99.46a3.73,3.73,0,1,0-3.73-3.73A3.73,3.73,0,0,0,153,99.46Z"/><path class="cls-1" d="M162.57,99.38a3.65,3.65,0,1,0-3.65-3.65A3.65,3.65,0,0,0,162.57,99.38Z"/><path class="cls-1" d="M172.12,99.25a3.52,3.52,0,1,0-3.52-3.52A3.53,3.53,0,0,0,172.12,99.25Z"/><path class="cls-1" d="M181.67,99.12a3.39,3.39,0,1,0-3.39-3.39A3.39,3.39,0,0,0,181.67,99.12Z"/><path class="cls-1" d="M191.22,98.91A3.18,3.18,0,1,0,188,95.73,3.18,3.18,0,0,0,191.22,98.91Z"/><path class="cls-1" d="M200.77,98.67a2.94,2.94,0,1,0-2.94-2.94A2.94,2.94,0,0,0,200.77,98.67Z"/><path class="cls-1" d="M210.32,98.4a2.68,2.68,0,1,0-2.68-2.67A2.67,2.67,0,0,0,210.32,98.4Z"/><path class="cls-1" d="M219.86,98.11a2.38,2.38,0,1,0-2.38-2.38A2.38,2.38,0,0,0,219.86,98.11Z"/><path class="cls-1" d="M229.41,97.82a2.09,2.09,0,1,0-2.09-2.09A2.09,2.09,0,0,0,229.41,97.82Z"/><path class="cls-1" d="M239,97.5a1.78,1.78,0,1,0-1.77-1.77A1.78,1.78,0,0,0,239,97.5Z"/><path class="cls-1" d="M248.51,97.16a1.43,1.43,0,1,0-1.43-1.43A1.43,1.43,0,0,0,248.51,97.16Z"/><path class="cls-1" d="M258.06,96.79a1.06,1.06,0,1,0,0-2.12,1.06,1.06,0,1,0,0,2.12Z"/><path class="cls-1" d="M267.61,96.44a.72.72,0,1,0-.72-.71A.71.71,0,0,0,267.61,96.44Z"/><path class="cls-1" d="M277.16,96.07a.34.34,0,0,0,.34-.34.35.35,0,0,0-.34-.35.35.35,0,0,0-.35.35A.35.35,0,0,0,277.16,96.07Z"/><path class="cls-1" d="M.24,105.3a0,0,0,0,0,0,0s0,0,0,0a0,0,0,0,0,0,0S.22,105.3.24,105.3Z"/><path class="cls-1" d="M9.79,105.7a.43.43,0,0,0,0-.85.43.43,0,1,0,0,.85Z"/><path class="cls-1" d="M19.34,106.1a.82.82,0,1,0,0-1.64.82.82,0,1,0,0,1.64Z"/><path class="cls-1" d="M28.88,106.47a1.19,1.19,0,1,0-1.19-1.19A1.19,1.19,0,0,0,28.88,106.47Z"/><path class="cls-1" d="M38.43,106.81a1.54,1.54,0,1,0-1.53-1.53A1.54,1.54,0,0,0,38.43,106.81Z"/><path class="cls-1" d="M48,107.16a1.88,1.88,0,1,0-1.88-1.88A1.88,1.88,0,0,0,48,107.16Z"/><path class="cls-1" d="M57.53,107.5a2.23,2.23,0,1,0-2.22-2.22A2.23,2.23,0,0,0,57.53,107.5Z"/><path class="cls-1" d="M67.08,107.82a2.55,2.55,0,1,0-2.54-2.54A2.54,2.54,0,0,0,67.08,107.82Z"/><path class="cls-1" d="M76.63,108.08a2.81,2.81,0,1,0-2.81-2.8A2.8,2.8,0,0,0,76.63,108.08Z"/><path class="cls-1" d="M86.18,108.38a3.1,3.1,0,1,0-3.1-3.1A3.1,3.1,0,0,0,86.18,108.38Z"/><path class="cls-1" d="M95.73,108.61a3.34,3.34,0,1,0-3.34-3.33A3.33,3.33,0,0,0,95.73,108.61Z"/><path class="cls-1" d="M105.28,108.85a3.58,3.58,0,1,0-3.58-3.57A3.57,3.57,0,0,0,105.28,108.85Z"/><path class="cls-1" d="M114.82,109a3.76,3.76,0,1,0-3.75-3.76A3.77,3.77,0,0,0,114.82,109Z"/><path class="cls-1" d="M124.37,109.2a3.92,3.92,0,1,0-3.91-3.92A3.92,3.92,0,0,0,124.37,109.2Z"/><path class="cls-1" d="M133.92,109.28a4,4,0,1,0-4-4A4,4,0,0,0,133.92,109.28Z"/><path class="cls-1" d="M143.47,109.33a4,4,0,1,0-4.05-4A4.05,4.05,0,0,0,143.47,109.33Z"/><path class="cls-1" d="M153,109.3a4,4,0,1,0-4-4A4,4,0,0,0,153,109.3Z"/><path class="cls-1" d="M162.57,109.2a3.92,3.92,0,1,0-3.92-3.92A3.93,3.93,0,0,0,162.57,109.2Z"/><path class="cls-1" d="M172.12,109.06a3.79,3.79,0,1,0-3.79-3.78A3.79,3.79,0,0,0,172.12,109.06Z"/><path class="cls-1" d="M181.67,108.88a3.6,3.6,0,1,0-3.6-3.6A3.6,3.6,0,0,0,181.67,108.88Z"/><path class="cls-1" d="M191.22,108.67a3.39,3.39,0,1,0-3.39-3.39A3.39,3.39,0,0,0,191.22,108.67Z"/><path class="cls-1" d="M200.77,108.43a3.15,3.15,0,1,0-3.16-3.15A3.15,3.15,0,0,0,200.77,108.43Z"/><path class="cls-1" d="M210.32,108.14a2.86,2.86,0,1,0-2.86-2.86A2.86,2.86,0,0,0,210.32,108.14Z"/><path class="cls-1" d="M219.86,107.85a2.57,2.57,0,1,0-2.56-2.57A2.57,2.57,0,0,0,219.86,107.85Z"/><path class="cls-1" d="M229.41,107.53a2.25,2.25,0,1,0-2.25-2.25A2.25,2.25,0,0,0,229.41,107.53Z"/><path class="cls-1" d="M239,107.18a1.91,1.91,0,1,0-1.9-1.9A1.91,1.91,0,0,0,239,107.18Z"/><path class="cls-1" d="M248.51,106.87a1.59,1.59,0,1,0-1.59-1.59A1.59,1.59,0,0,0,248.51,106.87Z"/><path class="cls-1" d="M258.06,106.49a1.22,1.22,0,1,0-1.22-1.21A1.22,1.22,0,0,0,258.06,106.49Z"/><path class="cls-1" d="M267.61,106.12a.85.85,0,1,0-.85-.84A.85.85,0,0,0,267.61,106.12Z"/><path class="cls-1" d="M277.16,105.73a.45.45,0,1,0-.45-.45A.45.45,0,0,0,277.16,105.73Z"/><path class="cls-1" d="M286.71,105.33a0,0,0,0,0,.05,0,.06.06,0,0,0-.05-.06.06.06,0,0,0-.06.06A.06.06,0,0,0,286.71,105.33Z"/><path class="cls-1" d="M.24,114.93a.09.09,0,0,0,.1-.1.1.1,0,0,0-.1-.11.11.11,0,0,0-.11.11A.1.1,0,0,0,.24,114.93Z"/><path class="cls-1" d="M9.79,115.36a.53.53,0,0,0,.53-.53.53.53,0,0,0-.53-.53.52.52,0,0,0-.53.53A.53.53,0,0,0,9.79,115.36Z"/><path class="cls-1" d="M19.34,115.73a.9.9,0,1,0,0-1.8.9.9,0,1,0,0,1.8Z"/><path class="cls-1" d="M28.88,116.1a1.27,1.27,0,1,0-1.27-1.27A1.27,1.27,0,0,0,28.88,116.1Z"/><path class="cls-1" d="M38.43,116.47a1.65,1.65,0,1,0-1.64-1.64A1.64,1.64,0,0,0,38.43,116.47Z"/><path class="cls-1" d="M48,116.84a2,2,0,1,0-2-2A2,2,0,0,0,48,116.84Z"/><path class="cls-1" d="M57.53,117.18a2.36,2.36,0,1,0-2.36-2.35A2.36,2.36,0,0,0,57.53,117.18Z"/><path class="cls-1" d="M67.08,117.5a2.68,2.68,0,1,0-2.67-2.67A2.67,2.67,0,0,0,67.08,117.5Z"/><path class="cls-1" d="M76.63,117.79a3,3,0,1,0-3-3A3,3,0,0,0,76.63,117.79Z"/><path class="cls-1" d="M86.18,118.11a3.29,3.29,0,1,0-3.29-3.28A3.28,3.28,0,0,0,86.18,118.11Z"/><path class="cls-1" d="M95.73,118.35a3.53,3.53,0,1,0-3.52-3.52A3.53,3.53,0,0,0,95.73,118.35Z"/><path class="cls-1" d="M105.28,118.59a3.76,3.76,0,1,0-3.76-3.76A3.77,3.77,0,0,0,105.28,118.59Z"/><path class="cls-1" d="M114.82,118.8a4,4,0,1,0-4-4A4,4,0,0,0,114.82,118.8Z"/><path class="cls-1" d="M124.37,119a4.13,4.13,0,1,0-4.13-4.13A4.12,4.12,0,0,0,124.37,119Z"/><path class="cls-1" d="M133.92,119.06a4.24,4.24,0,1,0-4.23-4.23A4.23,4.23,0,0,0,133.92,119.06Z"/><path class="cls-1" d="M143.47,119.12a4.29,4.29,0,1,0-4.29-4.29A4.29,4.29,0,0,0,143.47,119.12Z"/><path class="cls-1" d="M153,119.06a4.24,4.24,0,1,0-4.24-4.23A4.23,4.23,0,0,0,153,119.06Z"/><path class="cls-1" d="M162.57,119a4.16,4.16,0,1,0-4.16-4.15A4.15,4.15,0,0,0,162.57,119Z"/><path class="cls-1" d="M172.12,118.8a4,4,0,1,0-4-4A4,4,0,0,0,172.12,118.8Z"/><path class="cls-1" d="M181.67,118.61a3.79,3.79,0,1,0-3.79-3.78A3.79,3.79,0,0,0,181.67,118.61Z"/><path class="cls-1" d="M191.22,118.37a3.55,3.55,0,1,0-3.55-3.54A3.53,3.53,0,0,0,191.22,118.37Z"/><path class="cls-1" d="M200.77,118.11a3.29,3.29,0,1,0-3.29-3.28A3.28,3.28,0,0,0,200.77,118.11Z"/><path class="cls-1" d="M210.32,117.84a3,3,0,1,0-3-3A3,3,0,0,0,210.32,117.84Z"/><path class="cls-1" d="M219.86,117.53a2.71,2.71,0,1,0-2.7-2.7A2.7,2.7,0,0,0,219.86,117.53Z"/><path class="cls-1" d="M229.41,117.21a2.39,2.39,0,1,0-2.38-2.38A2.39,2.39,0,0,0,229.41,117.21Z"/><path class="cls-1" d="M239,116.86a2,2,0,1,0-2-2A2,2,0,0,0,239,116.86Z"/><path class="cls-1" d="M248.51,116.52a1.7,1.7,0,1,0-1.69-1.69A1.7,1.7,0,0,0,248.51,116.52Z"/><path class="cls-1" d="M258.06,116.15a1.33,1.33,0,1,0-1.32-1.32A1.32,1.32,0,0,0,258.06,116.15Z"/><path class="cls-1" d="M267.61,115.75a.93.93,0,1,0-.93-.92A.93.93,0,0,0,267.61,115.75Z"/><path class="cls-1" d="M277.16,115.38a.56.56,0,1,0-.56-.55A.55.55,0,0,0,277.16,115.38Z"/><path class="cls-1" d="M286.71,115a.16.16,0,1,0,0-.31.16.16,0,0,0-.16.16A.16.16,0,0,0,286.71,115Z"/><path class="cls-1" d="M.24,124.56a.18.18,0,0,0,.18-.18.18.18,0,0,0-.18-.19.19.19,0,1,0,0,.37Z"/><path class="cls-1" d="M9.79,125a.59.59,0,1,0-.59-.58A.58.58,0,0,0,9.79,125Z"/><path class="cls-1" d="M19.34,125.35a1,1,0,1,0-1-1A1,1,0,0,0,19.34,125.35Z"/><path class="cls-1" d="M28.88,125.75a1.38,1.38,0,1,0-1.37-1.37A1.37,1.37,0,0,0,28.88,125.75Z"/><path class="cls-1" d="M38.43,126.1a1.73,1.73,0,1,0-1.72-1.72A1.73,1.73,0,0,0,38.43,126.1Z"/><path class="cls-1" d="M48,126.47a2.1,2.1,0,1,0-2.09-2.09A2.09,2.09,0,0,0,48,126.47Z"/><path class="cls-1" d="M57.53,126.81a2.44,2.44,0,1,0-2.43-2.43A2.43,2.43,0,0,0,57.53,126.81Z"/><path class="cls-1" d="M67.08,127.13a2.76,2.76,0,1,0-2.75-2.75A2.75,2.75,0,0,0,67.08,127.13Z"/><path class="cls-1" d="M76.63,127.45a3.08,3.08,0,1,0-3.07-3.07A3.07,3.07,0,0,0,76.63,127.45Z"/><path class="cls-1" d="M86.18,127.76a3.39,3.39,0,1,0-3.39-3.38A3.38,3.38,0,0,0,86.18,127.76Z"/><path class="cls-1" d="M95.73,128a3.66,3.66,0,1,0-3.66-3.65A3.65,3.65,0,0,0,95.73,128Z"/><path class="cls-1" d="M105.28,128.29a3.92,3.92,0,1,0-3.92-3.91A3.91,3.91,0,0,0,105.28,128.29Z"/><path class="cls-1" d="M114.82,128.5a4.13,4.13,0,1,0-4.13-4.12A4.12,4.12,0,0,0,114.82,128.5Z"/><path class="cls-1" d="M124.37,128.69a4.32,4.32,0,1,0-4.31-4.31A4.31,4.31,0,0,0,124.37,128.69Z"/><path class="cls-1" d="M133.92,128.82a4.45,4.45,0,1,0-4.45-4.44A4.44,4.44,0,0,0,133.92,128.82Z"/><path class="cls-1" d="M143.47,128.88a4.51,4.51,0,1,0-4.5-4.5A4.5,4.5,0,0,0,143.47,128.88Z"/><path class="cls-1" d="M153,128.82a4.45,4.45,0,1,0-4.45-4.44A4.44,4.44,0,0,0,153,128.82Z"/><path class="cls-1" d="M162.57,128.72a4.35,4.35,0,1,0-4.34-4.34A4.34,4.34,0,0,0,162.57,128.72Z"/><path class="cls-1" d="M172.12,128.53a4.16,4.16,0,1,0-4.16-4.15A4.16,4.16,0,0,0,172.12,128.53Z"/><path class="cls-1" d="M181.67,128.29a3.92,3.92,0,1,0-3.92-3.91A3.92,3.92,0,0,0,181.67,128.29Z"/><path class="cls-1" d="M191.22,128.06a3.69,3.69,0,1,0-3.68-3.68A3.68,3.68,0,0,0,191.22,128.06Z"/><path class="cls-1" d="M200.77,127.76a3.39,3.39,0,1,0-3.39-3.38A3.38,3.38,0,0,0,200.77,127.76Z"/><path class="cls-1" d="M210.32,127.5a3.13,3.13,0,1,0-3.13-3.12A3.12,3.12,0,0,0,210.32,127.5Z"/><path class="cls-1" d="M219.86,127.18a2.81,2.81,0,1,0-2.8-2.8A2.8,2.8,0,0,0,219.86,127.18Z"/><path class="cls-1" d="M229.41,126.86a2.49,2.49,0,1,0-2.49-2.48A2.48,2.48,0,0,0,229.41,126.86Z"/><path class="cls-1" d="M239,126.49a2.12,2.12,0,1,0-2.12-2.11A2.11,2.11,0,0,0,239,126.49Z"/><path class="cls-1" d="M248.51,126.15a1.78,1.78,0,1,0-1.77-1.77A1.77,1.77,0,0,0,248.51,126.15Z"/><path class="cls-1" d="M258.06,125.78a1.41,1.41,0,1,0-1.4-1.4A1.4,1.4,0,0,0,258.06,125.78Z"/><path class="cls-1" d="M267.61,125.38a1,1,0,1,0-1-1A1,1,0,0,0,267.61,125.38Z"/><path class="cls-1" d="M277.16,125a.64.64,0,0,0,0-1.27.64.64,0,1,0,0,1.27Z"/><path class="cls-1" d="M286.71,124.61a.23.23,0,0,0,.23-.23.24.24,0,1,0-.23.23Z"/><path class="cls-1" d="M.24,134.16a.24.24,0,1,0,0-.47.24.24,0,1,0,0,.47Z"/><path class="cls-1" d="M9.79,134.56a.64.64,0,1,0-.64-.64A.64.64,0,0,0,9.79,134.56Z"/><path class="cls-1" d="M19.34,135a1,1,0,1,0-1-1A1,1,0,0,0,19.34,135Z"/><path class="cls-1" d="M28.88,135.33a1.41,1.41,0,1,0-1.4-1.41A1.41,1.41,0,0,0,28.88,135.33Z"/><path class="cls-1" d="M38.43,135.7a1.78,1.78,0,1,0-1.77-1.78A1.78,1.78,0,0,0,38.43,135.7Z"/><path class="cls-1" d="M48,136.07a2.15,2.15,0,1,0-2.14-2.15A2.15,2.15,0,0,0,48,136.07Z"/><path class="cls-1" d="M57.53,136.41A2.49,2.49,0,1,0,55,133.92,2.49,2.49,0,0,0,57.53,136.41Z"/><path class="cls-1" d="M67.08,136.76a2.84,2.84,0,1,0-2.83-2.84A2.84,2.84,0,0,0,67.08,136.76Z"/><path class="cls-1" d="M76.63,137.08a3.16,3.16,0,1,0-3.15-3.16A3.16,3.16,0,0,0,76.63,137.08Z"/><path class="cls-1" d="M86.18,137.39a3.47,3.47,0,1,0-3.47-3.47A3.47,3.47,0,0,0,86.18,137.39Z"/><path class="cls-1" d="M95.73,137.66A3.74,3.74,0,1,0,92,133.92,3.73,3.73,0,0,0,95.73,137.66Z"/><path class="cls-1" d="M105.28,137.92a4,4,0,1,0-4-4A4,4,0,0,0,105.28,137.92Z"/><path class="cls-1" d="M114.82,138.16a4.24,4.24,0,1,0-4.23-4.24A4.24,4.24,0,0,0,114.82,138.16Z"/><path class="cls-1" d="M124.37,138.37a4.45,4.45,0,1,0-4.45-4.45A4.45,4.45,0,0,0,124.37,138.37Z"/><path class="cls-1" d="M133.92,138.53a4.61,4.61,0,1,0-4.6-4.61A4.6,4.6,0,0,0,133.92,138.53Z"/><path class="cls-1" d="M143.47,138.61a4.69,4.69,0,1,0-4.68-4.69A4.69,4.69,0,0,0,143.47,138.61Z"/><path class="cls-1" d="M153,138.56a4.64,4.64,0,1,0-4.63-4.64A4.63,4.63,0,0,0,153,138.56Z"/><path class="cls-1" d="M162.57,138.4a4.48,4.48,0,1,0-4.48-4.48A4.48,4.48,0,0,0,162.57,138.4Z"/><path class="cls-1" d="M172.12,138.19a4.27,4.27,0,1,0-4.26-4.27A4.27,4.27,0,0,0,172.12,138.19Z"/><path class="cls-1" d="M181.67,138a4,4,0,1,0-4-4A4,4,0,0,0,181.67,138Z"/><path class="cls-1" d="M191.22,137.71a3.79,3.79,0,1,0-3.79-3.79A3.79,3.79,0,0,0,191.22,137.71Z"/><path class="cls-1" d="M200.77,137.39a3.47,3.47,0,1,0-3.47-3.47A3.46,3.46,0,0,0,200.77,137.39Z"/><path class="cls-1" d="M210.32,137.1a3.18,3.18,0,1,0-3.18-3.18A3.17,3.17,0,0,0,210.32,137.1Z"/><path class="cls-1" d="M219.86,136.78a2.86,2.86,0,1,0-2.86-2.86A2.86,2.86,0,0,0,219.86,136.78Z"/><path class="cls-1" d="M229.41,136.47a2.55,2.55,0,1,0-2.54-2.55A2.54,2.54,0,0,0,229.41,136.47Z"/><circle class="cls-1" cx="238.96" cy="133.92" r="2.17"/><path class="cls-1" d="M248.51,135.75a1.83,1.83,0,1,0-1.83-1.83A1.83,1.83,0,0,0,248.51,135.75Z"/><path class="cls-1" d="M258.06,135.38a1.46,1.46,0,1,0-1.46-1.46A1.46,1.46,0,0,0,258.06,135.38Z"/><path class="cls-1" d="M267.61,135a1.06,1.06,0,1,0-1.06-1.06A1.06,1.06,0,0,0,267.61,135Z"/><path class="cls-1" d="M277.16,134.61a.69.69,0,0,0,.69-.69.69.69,0,0,0-1.38,0A.69.69,0,0,0,277.16,134.61Z"/><path class="cls-1" d="M286.71,134.19a.27.27,0,1,0-.27-.27A.27.27,0,0,0,286.71,134.19Z"/><path class="cls-1" d="M.24,143.71a.24.24,0,0,0,0-.48.24.24,0,0,0,0,.48Z"/><path class="cls-1" d="M9.79,144.13a.66.66,0,1,0,0-1.32.66.66,0,1,0,0,1.32Z"/><path class="cls-1" d="M19.34,144.53a1.06,1.06,0,1,0-1.06-1.06A1.06,1.06,0,0,0,19.34,144.53Z"/><path class="cls-1" d="M28.88,144.9a1.43,1.43,0,1,0-1.43-1.43A1.43,1.43,0,0,0,28.88,144.9Z"/><path class="cls-1" d="M38.43,145.27a1.8,1.8,0,1,0-1.8-1.8A1.79,1.79,0,0,0,38.43,145.27Z"/><path class="cls-1" d="M48,145.64a2.17,2.17,0,1,0-2.17-2.17A2.17,2.17,0,0,0,48,145.64Z"/><path class="cls-1" d="M57.53,146A2.52,2.52,0,1,0,55,143.47,2.52,2.52,0,0,0,57.53,146Z"/><path class="cls-1" d="M67.08,146.33a2.86,2.86,0,1,0-2.86-2.86A2.86,2.86,0,0,0,67.08,146.33Z"/><path class="cls-1" d="M76.63,146.65a3.18,3.18,0,1,0-3.18-3.18A3.18,3.18,0,0,0,76.63,146.65Z"/><path class="cls-1" d="M86.18,146.94a3.47,3.47,0,1,0-3.47-3.47A3.47,3.47,0,0,0,86.18,146.94Z"/><path class="cls-1" d="M95.73,147.26a3.79,3.79,0,1,0-3.79-3.79A3.79,3.79,0,0,0,95.73,147.26Z"/><path class="cls-1" d="M105.28,147.52a4.05,4.05,0,1,0-4.06-4.05A4.05,4.05,0,0,0,105.28,147.52Z"/><path class="cls-1" d="M114.82,147.76a4.29,4.29,0,1,0-4.28-4.29A4.29,4.29,0,0,0,114.82,147.76Z"/><path class="cls-1" d="M124.37,148a4.5,4.5,0,1,0-4.5-4.5A4.5,4.5,0,0,0,124.37,148Z"/><path class="cls-1" d="M133.92,148.16a4.69,4.69,0,1,0-4.68-4.69A4.69,4.69,0,0,0,133.92,148.16Z"/><path class="cls-1" d="M143.47,148.27a4.8,4.8,0,1,0-4.79-4.8A4.79,4.79,0,0,0,143.47,148.27Z"/><path class="cls-1" d="M153,148.16a4.69,4.69,0,1,0-4.69-4.69A4.69,4.69,0,0,0,153,148.16Z"/><path class="cls-1" d="M162.57,148a4.53,4.53,0,1,0-4.53-4.53A4.53,4.53,0,0,0,162.57,148Z"/><path class="cls-1" d="M172.12,147.79a4.32,4.32,0,1,0-4.32-4.32A4.32,4.32,0,0,0,172.12,147.79Z"/><path class="cls-1" d="M181.67,147.52a4.05,4.05,0,1,0-4-4.05A4.05,4.05,0,0,0,181.67,147.52Z"/><path class="cls-1" d="M191.22,147.26a3.79,3.79,0,1,0-3.79-3.79A3.79,3.79,0,0,0,191.22,147.26Z"/><path class="cls-1" d="M200.77,147a3.52,3.52,0,1,0-3.53-3.52A3.52,3.52,0,0,0,200.77,147Z"/><path class="cls-1" d="M210.32,146.68a3.21,3.21,0,1,0-3.21-3.21A3.21,3.21,0,0,0,210.32,146.68Z"/><path class="cls-1" d="M219.86,146.36a2.89,2.89,0,1,0-2.88-2.89A2.89,2.89,0,0,0,219.86,146.36Z"/><path class="cls-1" d="M229.41,146a2.57,2.57,0,1,0-2.57-2.57A2.57,2.57,0,0,0,229.41,146Z"/><path class="cls-1" d="M239,145.67a2.2,2.2,0,1,0-2.2-2.2A2.19,2.19,0,0,0,239,145.67Z"/><path class="cls-1" d="M248.51,145.33a1.86,1.86,0,1,0-1.85-1.86A1.85,1.85,0,0,0,248.51,145.33Z"/><path class="cls-1" d="M258.06,144.93a1.46,1.46,0,1,0-1.46-1.46A1.46,1.46,0,0,0,258.06,144.93Z"/><path class="cls-1" d="M267.61,144.56a1.09,1.09,0,1,0-1.09-1.09A1.08,1.08,0,0,0,267.61,144.56Z"/><path class="cls-1" d="M277.16,144.16a.69.69,0,1,0-.69-.69A.69.69,0,0,0,277.16,144.16Z"/><path class="cls-1" d="M286.71,143.76a.29.29,0,0,0,0-.58.29.29,0,1,0,0,.58Z"/><path class="cls-1" d="M.24,153.26a.24.24,0,1,0,0-.48.24.24,0,1,0,0,.48Z"/><path class="cls-1" d="M9.79,153.66a.64.64,0,0,0,.63-.64.63.63,0,0,0-.63-.63.64.64,0,0,0-.64.63A.64.64,0,0,0,9.79,153.66Z"/><path class="cls-1" d="M19.34,154.05a1,1,0,1,0-1-1A1,1,0,0,0,19.34,154.05Z"/><path class="cls-1" d="M28.88,154.43a1.41,1.41,0,1,0-1.4-1.41A1.41,1.41,0,0,0,28.88,154.43Z"/><path class="cls-1" d="M38.43,154.8A1.78,1.78,0,1,0,36.66,153,1.78,1.78,0,0,0,38.43,154.8Z"/><path class="cls-1" d="M48,155.17A2.15,2.15,0,1,0,45.84,153,2.15,2.15,0,0,0,48,155.17Z"/><path class="cls-1" d="M57.53,155.51A2.49,2.49,0,1,0,55,153,2.49,2.49,0,0,0,57.53,155.51Z"/><path class="cls-1" d="M67.08,155.85A2.83,2.83,0,1,0,64.25,153,2.83,2.83,0,0,0,67.08,155.85Z"/><path class="cls-1" d="M76.63,156.17A3.15,3.15,0,1,0,73.48,153,3.15,3.15,0,0,0,76.63,156.17Z"/><path class="cls-1" d="M86.18,156.49A3.47,3.47,0,1,0,82.71,153,3.47,3.47,0,0,0,86.18,156.49Z"/><path class="cls-1" d="M95.73,156.76A3.74,3.74,0,1,0,92,153,3.74,3.74,0,0,0,95.73,156.76Z"/><path class="cls-1" d="M105.28,157.05a4,4,0,1,0-4-4A4,4,0,0,0,105.28,157.05Z"/><path class="cls-1" d="M114.82,157.26a4.24,4.24,0,1,0-4.23-4.24A4.24,4.24,0,0,0,114.82,157.26Z"/><path class="cls-1" d="M124.37,157.47a4.45,4.45,0,1,0-4.45-4.45A4.45,4.45,0,0,0,124.37,157.47Z"/><path class="cls-1" d="M133.92,157.66a4.64,4.64,0,1,0-4.63-4.64A4.64,4.64,0,0,0,133.92,157.66Z"/><path class="cls-1" d="M143.47,157.71a4.69,4.69,0,1,0-4.68-4.69A4.69,4.69,0,0,0,143.47,157.71Z"/><path class="cls-1" d="M153,157.66a4.64,4.64,0,1,0-4.63-4.64A4.63,4.63,0,0,0,153,157.66Z"/><path class="cls-1" d="M162.57,157.5a4.48,4.48,0,1,0-4.48-4.48A4.49,4.49,0,0,0,162.57,157.5Z"/><path class="cls-1" d="M172.12,157.31a4.29,4.29,0,1,0-4.29-4.29A4.29,4.29,0,0,0,172.12,157.31Z"/><path class="cls-1" d="M181.67,157.07a4.05,4.05,0,1,0-4-4A4.05,4.05,0,0,0,181.67,157.07Z"/><path class="cls-1" d="M191.22,156.81a3.79,3.79,0,1,0-3.79-3.79A3.79,3.79,0,0,0,191.22,156.81Z"/><path class="cls-1" d="M200.77,156.52a3.5,3.5,0,1,0-3.5-3.5A3.5,3.5,0,0,0,200.77,156.52Z"/><path class="cls-1" d="M210.32,156.23a3.21,3.21,0,1,0-3.21-3.21A3.21,3.21,0,0,0,210.32,156.23Z"/><path class="cls-1" d="M219.86,155.91A2.89,2.89,0,1,0,217,153,2.89,2.89,0,0,0,219.86,155.91Z"/><path class="cls-1" d="M229.41,155.56a2.54,2.54,0,1,0-2.54-2.54A2.53,2.53,0,0,0,229.41,155.56Z"/><path class="cls-1" d="M239,155.19a2.17,2.17,0,1,0-2.17-2.17A2.17,2.17,0,0,0,239,155.19Z"/><path class="cls-1" d="M248.51,154.85a1.83,1.83,0,1,0-1.83-1.83A1.83,1.83,0,0,0,248.51,154.85Z"/><path class="cls-1" d="M258.06,154.48A1.46,1.46,0,1,0,256.6,153,1.46,1.46,0,0,0,258.06,154.48Z"/><path class="cls-1" d="M267.61,154.08a1.06,1.06,0,1,0-1.06-1.06A1.06,1.06,0,0,0,267.61,154.08Z"/><path class="cls-1" d="M277.16,153.71a.69.69,0,1,0-.69-.69A.69.69,0,0,0,277.16,153.71Z"/><path class="cls-1" d="M286.71,153.31a.29.29,0,1,0,0-.58.29.29,0,1,0,0,.58Z"/><path class="cls-1" d="M.24,162.76a.19.19,0,0,0,.18-.19.18.18,0,0,0-.18-.18.19.19,0,0,0-.19.18A.2.2,0,0,0,.24,162.76Z"/><path class="cls-1" d="M9.79,163.18a.61.61,0,1,0,0-1.22.61.61,0,0,0,0,1.22Z"/><path class="cls-1" d="M19.34,163.58a1,1,0,1,0-1-1A1,1,0,0,0,19.34,163.58Z"/><path class="cls-1" d="M28.88,164a1.38,1.38,0,1,0-1.37-1.38A1.38,1.38,0,0,0,28.88,164Z"/><path class="cls-1" d="M38.43,164.32a1.75,1.75,0,1,0-1.74-1.75A1.75,1.75,0,0,0,38.43,164.32Z"/><path class="cls-1" d="M48,164.66a2.09,2.09,0,1,0-2.09-2.09A2.08,2.08,0,0,0,48,164.66Z"/><path class="cls-1" d="M57.53,165a2.44,2.44,0,1,0-2.43-2.44A2.44,2.44,0,0,0,57.53,165Z"/><path class="cls-1" d="M67.08,165.35a2.78,2.78,0,1,0-2.78-2.78A2.77,2.77,0,0,0,67.08,165.35Z"/><path class="cls-1" d="M76.63,165.67a3.1,3.1,0,1,0-3.1-3.1A3.1,3.1,0,0,0,76.63,165.67Z"/><path class="cls-1" d="M86.18,166a3.39,3.39,0,1,0-3.39-3.39A3.39,3.39,0,0,0,86.18,166Z"/><path class="cls-1" d="M95.73,166.23a3.66,3.66,0,1,0-3.66-3.66A3.65,3.65,0,0,0,95.73,166.23Z"/><path class="cls-1" d="M105.28,166.49a3.92,3.92,0,1,0-3.92-3.92A3.92,3.92,0,0,0,105.28,166.49Z"/><path class="cls-1" d="M114.82,166.73a4.16,4.16,0,1,0-4.15-4.16A4.16,4.16,0,0,0,114.82,166.73Z"/><path class="cls-1" d="M124.37,166.91a4.34,4.34,0,1,0-4.34-4.34A4.34,4.34,0,0,0,124.37,166.91Z"/><path class="cls-1" d="M133.92,167.05a4.48,4.48,0,1,0-4.47-4.48A4.48,4.48,0,0,0,133.92,167.05Z"/><path class="cls-1" d="M143.47,167.1a4.53,4.53,0,1,0-4.53-4.53A4.53,4.53,0,0,0,143.47,167.1Z"/><path class="cls-1" d="M153,167.05a4.48,4.48,0,1,0-4.47-4.48A4.49,4.49,0,0,0,153,167.05Z"/><path class="cls-1" d="M162.57,166.94a4.37,4.37,0,1,0-4.37-4.37A4.37,4.37,0,0,0,162.57,166.94Z"/><path class="cls-1" d="M172.12,166.76a4.19,4.19,0,1,0-4.18-4.19A4.19,4.19,0,0,0,172.12,166.76Z"/><path class="cls-1" d="M181.67,166.52a3.95,3.95,0,1,0-3.95-4A3.94,3.94,0,0,0,181.67,166.52Z"/><path class="cls-1" d="M191.22,166.28a3.71,3.71,0,1,0-3.71-3.71A3.71,3.71,0,0,0,191.22,166.28Z"/><path class="cls-1" d="M200.77,166a3.42,3.42,0,1,0-3.42-3.42A3.42,3.42,0,0,0,200.77,166Z"/><path class="cls-1" d="M210.32,165.69a3.12,3.12,0,1,0-3.13-3.12A3.12,3.12,0,0,0,210.32,165.69Z"/><path class="cls-1" d="M219.86,165.38a2.81,2.81,0,1,0-2.8-2.81A2.81,2.81,0,0,0,219.86,165.38Z"/><path class="cls-1" d="M229.41,165.06a2.49,2.49,0,1,0-2.49-2.49A2.48,2.48,0,0,0,229.41,165.06Z"/><path class="cls-1" d="M239,164.71a2.14,2.14,0,1,0-2.14-2.14A2.14,2.14,0,0,0,239,164.71Z"/><path class="cls-1" d="M248.51,164.35a1.78,1.78,0,1,0-1.77-1.78A1.78,1.78,0,0,0,248.51,164.35Z"/><path class="cls-1" d="M258.06,164a1.4,1.4,0,1,0-1.4-1.4A1.39,1.39,0,0,0,258.06,164Z"/><path class="cls-1" d="M267.61,163.6a1,1,0,1,0-1-1A1,1,0,0,0,267.61,163.6Z"/><path class="cls-1" d="M277.16,163.21a.64.64,0,0,0,0-1.28.64.64,0,1,0,0,1.28Z"/><path class="cls-1" d="M286.71,162.81a.24.24,0,1,0-.24-.24A.23.23,0,0,0,286.71,162.81Z"/><path class="cls-1" d="M.24,172.25a.13.13,0,1,0,0-.26.13.13,0,0,0,0,.26Z"/><path class="cls-1" d="M9.79,172.65a.53.53,0,1,0,0-1.06.53.53,0,1,0,0,1.06Z"/><path class="cls-1" d="M19.34,173.05a.93.93,0,1,0-.93-.93A.93.93,0,0,0,19.34,173.05Z"/><path class="cls-1" d="M28.88,173.42a1.3,1.3,0,1,0-1.29-1.3A1.3,1.3,0,0,0,28.88,173.42Z"/><path class="cls-1" d="M38.43,173.76a1.64,1.64,0,1,0-1.64-1.64A1.63,1.63,0,0,0,38.43,173.76Z"/><path class="cls-1" d="M48,174.13a2,2,0,1,0-2-2A2,2,0,0,0,48,174.13Z"/><path class="cls-1" d="M57.53,174.48a2.36,2.36,0,1,0-2.36-2.36A2.36,2.36,0,0,0,57.53,174.48Z"/><path class="cls-1" d="M67.08,174.82a2.7,2.7,0,1,0-2.7-2.7A2.7,2.7,0,0,0,67.08,174.82Z"/><path class="cls-1" d="M76.63,175.11a3,3,0,1,0-3-3A3,3,0,0,0,76.63,175.11Z"/><path class="cls-1" d="M86.18,175.4a3.28,3.28,0,1,0-3.29-3.28A3.28,3.28,0,0,0,86.18,175.4Z"/><path class="cls-1" d="M95.73,175.64a3.52,3.52,0,1,0-3.52-3.52A3.53,3.53,0,0,0,95.73,175.64Z"/><path class="cls-1" d="M105.28,175.91a3.79,3.79,0,1,0-3.79-3.79A3.79,3.79,0,0,0,105.28,175.91Z"/><path class="cls-1" d="M114.82,176.09a4,4,0,1,0-4-4A4,4,0,0,0,114.82,176.09Z"/><path class="cls-1" d="M124.37,176.28a4.16,4.16,0,1,0-4.15-4.16A4.16,4.16,0,0,0,124.37,176.28Z"/><path class="cls-1" d="M133.92,176.38a4.26,4.26,0,1,0-4.26-4.26A4.27,4.27,0,0,0,133.92,176.38Z"/><path class="cls-1" d="M143.47,176.44a4.32,4.32,0,1,0-4.31-4.32A4.32,4.32,0,0,0,143.47,176.44Z"/><path class="cls-1" d="M153,176.41a4.29,4.29,0,1,0-4.29-4.29A4.29,4.29,0,0,0,153,176.41Z"/><path class="cls-1" d="M162.57,176.3a4.18,4.18,0,1,0-4.18-4.18A4.18,4.18,0,0,0,162.57,176.3Z"/><path class="cls-1" d="M172.12,176.12a4,4,0,1,0-4-4A4,4,0,0,0,172.12,176.12Z"/><path class="cls-1" d="M181.67,175.91a3.79,3.79,0,1,0-3.79-3.79A3.79,3.79,0,0,0,181.67,175.91Z"/><path class="cls-1" d="M191.22,175.7a3.58,3.58,0,1,0-3.58-3.58A3.58,3.58,0,0,0,191.22,175.7Z"/><path class="cls-1" d="M200.77,175.43a3.31,3.31,0,1,0-3.31-3.31A3.31,3.31,0,0,0,200.77,175.43Z"/><path class="cls-1" d="M210.32,175.14a3,3,0,1,0-3-3A3,3,0,0,0,210.32,175.14Z"/><path class="cls-1" d="M219.86,174.82a2.7,2.7,0,1,0-2.7-2.7A2.7,2.7,0,0,0,219.86,174.82Z"/><path class="cls-1" d="M229.41,174.5a2.38,2.38,0,1,0-2.38-2.38A2.38,2.38,0,0,0,229.41,174.5Z"/><path class="cls-1" d="M239,174.16a2,2,0,1,0-2-2A2,2,0,0,0,239,174.16Z"/><path class="cls-1" d="M248.51,173.82a1.7,1.7,0,1,0-1.69-1.7A1.7,1.7,0,0,0,248.51,173.82Z"/><path class="cls-1" d="M258.06,173.44a1.32,1.32,0,1,0-1.32-1.32A1.32,1.32,0,0,0,258.06,173.44Z"/><path class="cls-1" d="M267.61,173.07a1,1,0,1,0-1-.95A.94.94,0,0,0,267.61,173.07Z"/><path class="cls-1" d="M277.16,172.68a.56.56,0,1,0-.56-.56A.56.56,0,0,0,277.16,172.68Z"/><path class="cls-1" d="M286.71,172.28a.16.16,0,1,0,0-.32.16.16,0,1,0,0,.32Z"/><path class="cls-1" d="M.24,181.69a0,0,0,0,0,0,0s0,0,0,0a0,0,0,0,0,0,0S.22,181.69.24,181.69Z"/><path class="cls-1" d="M9.79,182.09a.43.43,0,0,0,0-.85.43.43,0,1,0,0,.85Z"/><path class="cls-1" d="M19.34,182.49a.82.82,0,1,0-.82-.82A.82.82,0,0,0,19.34,182.49Z"/><path class="cls-1" d="M28.88,182.86a1.19,1.19,0,1,0-1.19-1.19A1.19,1.19,0,0,0,28.88,182.86Z"/><path class="cls-1" d="M38.43,183.21a1.54,1.54,0,1,0-1.53-1.54A1.54,1.54,0,0,0,38.43,183.21Z"/><path class="cls-1" d="M48,183.58a1.91,1.91,0,1,0-1.9-1.91A1.91,1.91,0,0,0,48,183.58Z"/><path class="cls-1" d="M57.53,183.89a2.22,2.22,0,1,0-2.22-2.22A2.22,2.22,0,0,0,57.53,183.89Z"/><path class="cls-1" d="M67.08,184.21a2.54,2.54,0,1,0-2.54-2.54A2.54,2.54,0,0,0,67.08,184.21Z"/><path class="cls-1" d="M76.63,184.5a2.83,2.83,0,1,0-2.83-2.83A2.83,2.83,0,0,0,76.63,184.5Z"/><path class="cls-1" d="M86.18,184.79a3.13,3.13,0,1,0-3.13-3.12A3.12,3.12,0,0,0,86.18,184.79Z"/><path class="cls-1" d="M95.73,185.06a3.39,3.39,0,1,0-3.39-3.39A3.39,3.39,0,0,0,95.73,185.06Z"/><path class="cls-1" d="M105.28,185.27a3.6,3.6,0,1,0-3.61-3.6A3.6,3.6,0,0,0,105.28,185.27Z"/><path class="cls-1" d="M114.82,185.46a3.79,3.79,0,1,0-3.78-3.79A3.79,3.79,0,0,0,114.82,185.46Z"/><path class="cls-1" d="M124.37,185.59a3.92,3.92,0,1,0-3.91-3.92A3.92,3.92,0,0,0,124.37,185.59Z"/><path class="cls-1" d="M133.92,185.69a4,4,0,1,0-4-4A4,4,0,0,0,133.92,185.69Z"/><path class="cls-1" d="M143.47,185.72a4,4,0,1,0-4.05-4.05A4,4,0,0,0,143.47,185.72Z"/><path class="cls-1" d="M153,185.72a4,4,0,1,0-4.05-4.05A4,4,0,0,0,153,185.72Z"/><path class="cls-1" d="M162.57,185.61a3.95,3.95,0,1,0-3.95-3.94A3.93,3.93,0,0,0,162.57,185.61Z"/><path class="cls-1" d="M172.12,185.46a3.79,3.79,0,1,0-3.79-3.79A3.79,3.79,0,0,0,172.12,185.46Z"/><path class="cls-1" d="M181.67,185.3a3.63,3.63,0,1,0-3.63-3.63A3.64,3.64,0,0,0,181.67,185.3Z"/><path class="cls-1" d="M191.22,185.06a3.39,3.39,0,1,0-3.39-3.39A3.39,3.39,0,0,0,191.22,185.06Z"/><path class="cls-1" d="M200.77,184.82a3.15,3.15,0,1,0-3.16-3.15A3.15,3.15,0,0,0,200.77,184.82Z"/><path class="cls-1" d="M210.32,184.55a2.89,2.89,0,1,0-2.89-2.88A2.88,2.88,0,0,0,210.32,184.55Z"/><path class="cls-1" d="M219.86,184.24a2.57,2.57,0,1,0-2.56-2.57A2.57,2.57,0,0,0,219.86,184.24Z"/><path class="cls-1" d="M229.41,183.92a2.25,2.25,0,1,0-2.25-2.25A2.25,2.25,0,0,0,229.41,183.92Z"/><path class="cls-1" d="M239,183.6a1.93,1.93,0,1,0-1.93-1.93A1.92,1.92,0,0,0,239,183.6Z"/><path class="cls-1" d="M248.51,183.26a1.59,1.59,0,1,0-1.59-1.59A1.59,1.59,0,0,0,248.51,183.26Z"/><path class="cls-1" d="M258.06,182.89a1.22,1.22,0,1,0-1.22-1.22A1.22,1.22,0,0,0,258.06,182.89Z"/><path class="cls-1" d="M267.61,182.52a.85.85,0,1,0-.85-.85A.85.85,0,0,0,267.61,182.52Z"/><path class="cls-1" d="M277.16,182.14a.48.48,0,1,0-.48-.47A.47.47,0,0,0,277.16,182.14Z"/><path class="cls-1" d="M286.71,181.75a.09.09,0,0,0,.08-.08.08.08,0,0,0-.08-.08.07.07,0,0,0-.08.08A.08.08,0,0,0,286.71,181.75Z"/><path class="cls-1" d="M9.79,191.51a.29.29,0,1,0-.29-.29A.29.29,0,0,0,9.79,191.51Z"/><path class="cls-1" d="M19.34,191.91a.69.69,0,0,0,0-1.38.69.69,0,0,0,0,1.38Z"/><path class="cls-1" d="M28.88,192.28a1.06,1.06,0,1,0-1.05-1.06A1.06,1.06,0,0,0,28.88,192.28Z"/><path class="cls-1" d="M38.43,192.62a1.4,1.4,0,1,0-1.4-1.4A1.41,1.41,0,0,0,38.43,192.62Z"/><path class="cls-1" d="M48,193a1.75,1.75,0,1,0-1.74-1.75A1.75,1.75,0,0,0,48,193Z"/><path class="cls-1" d="M57.53,193.28a2.07,2.07,0,1,0-2.06-2.06A2.07,2.07,0,0,0,57.53,193.28Z"/><path class="cls-1" d="M67.08,193.6a2.39,2.39,0,1,0-2.38-2.38A2.37,2.37,0,0,0,67.08,193.6Z"/><path class="cls-1" d="M76.63,193.89A2.68,2.68,0,1,0,74,191.22,2.66,2.66,0,0,0,76.63,193.89Z"/><path class="cls-1" d="M86.18,194.16a2.94,2.94,0,1,0-2.94-2.94A2.94,2.94,0,0,0,86.18,194.16Z"/><path class="cls-1" d="M95.73,194.4a3.18,3.18,0,1,0-3.18-3.18A3.18,3.18,0,0,0,95.73,194.4Z"/><path class="cls-1" d="M105.28,194.61a3.39,3.39,0,1,0-3.39-3.39A3.39,3.39,0,0,0,105.28,194.61Z"/><path class="cls-1" d="M114.82,194.77a3.55,3.55,0,1,0-3.54-3.55A3.54,3.54,0,0,0,114.82,194.77Z"/><path class="cls-1" d="M124.37,194.9a3.68,3.68,0,1,0-3.68-3.68A3.69,3.69,0,0,0,124.37,194.9Z"/><path class="cls-1" d="M133.92,195a3.79,3.79,0,1,0-3.78-3.78A3.79,3.79,0,0,0,133.92,195Z"/><path class="cls-1" d="M143.47,195a3.79,3.79,0,1,0-3.78-3.78A3.79,3.79,0,0,0,143.47,195Z"/><path class="cls-1" d="M153,195a3.79,3.79,0,1,0-3.79-3.78A3.79,3.79,0,0,0,153,195Z"/><path class="cls-1" d="M162.57,194.92a3.71,3.71,0,1,0-3.71-3.7A3.7,3.7,0,0,0,162.57,194.92Z"/><circle class="cls-1" cx="172.12" cy="191.22" r="3.57"/><path class="cls-1" d="M181.67,194.61a3.39,3.39,0,1,0-3.39-3.39A3.39,3.39,0,0,0,181.67,194.61Z"/><path class="cls-1" d="M191.22,194.42a3.21,3.21,0,1,0-3.21-3.2A3.2,3.2,0,0,0,191.22,194.42Z"/><path class="cls-1" d="M200.77,194.16a2.94,2.94,0,1,0-2.94-2.94A2.94,2.94,0,0,0,200.77,194.16Z"/><path class="cls-1" d="M210.32,193.92a2.7,2.7,0,1,0-2.71-2.7A2.7,2.7,0,0,0,210.32,193.92Z"/><path class="cls-1" d="M219.86,193.63a2.41,2.41,0,1,0-2.41-2.41A2.4,2.4,0,0,0,219.86,193.63Z"/><path class="cls-1" d="M229.41,193.31a2.09,2.09,0,1,0-2.09-2.09A2.09,2.09,0,0,0,229.41,193.31Z"/><path class="cls-1" d="M239,193a1.78,1.78,0,1,0-1.77-1.77A1.78,1.78,0,0,0,239,193Z"/><circle class="cls-1" cx="248.51" cy="191.22" r="1.46"/><path class="cls-1" d="M258.06,192.3a1.09,1.09,0,1,0-1.08-1.08A1.08,1.08,0,0,0,258.06,192.3Z"/><path class="cls-1" d="M267.61,192a.74.74,0,1,0-.74-.74A.74.74,0,0,0,267.61,192Z"/><path class="cls-1" d="M277.16,191.56a.34.34,0,0,0,.34-.34.35.35,0,0,0-.34-.35.35.35,0,0,0-.35.35A.35.35,0,0,0,277.16,191.56Z"/><path class="cls-1" d="M9.79,200.93a.17.17,0,0,0,.16-.16.16.16,0,0,0-.16-.16.16.16,0,0,0-.16.16A.16.16,0,0,0,9.79,200.93Z"/><path class="cls-1" d="M19.34,201.3a.52.52,0,0,0,.52-.53.52.52,0,0,0-.52-.53.53.53,0,0,0-.54.53A.54.54,0,0,0,19.34,201.3Z"/><path class="cls-1" d="M28.88,201.67a.9.9,0,1,0-.9-.9A.9.9,0,0,0,28.88,201.67Z"/><path class="cls-1" d="M38.43,202a1.25,1.25,0,1,0-1.24-1.24A1.25,1.25,0,0,0,38.43,202Z"/><path class="cls-1" d="M48,202.35a1.59,1.59,0,1,0-1.59-1.58A1.59,1.59,0,0,0,48,202.35Z"/><path class="cls-1" d="M57.53,202.65a1.88,1.88,0,1,0-1.88-1.88A1.88,1.88,0,0,0,57.53,202.65Z"/><path class="cls-1" d="M67.08,202.94a2.17,2.17,0,1,0-2.17-2.17A2.17,2.17,0,0,0,67.08,202.94Z"/><path class="cls-1" d="M76.63,203.23a2.47,2.47,0,1,0-2.46-2.46A2.46,2.46,0,0,0,76.63,203.23Z"/><path class="cls-1" d="M86.18,203.47a2.7,2.7,0,1,0-2.7-2.7A2.7,2.7,0,0,0,86.18,203.47Z"/><path class="cls-1" d="M95.73,203.71a2.94,2.94,0,1,0-2.94-2.94A2.94,2.94,0,0,0,95.73,203.71Z"/><path class="cls-1" d="M105.28,203.92a3.15,3.15,0,1,0-3.15-3.15A3.15,3.15,0,0,0,105.28,203.92Z"/><path class="cls-1" d="M114.82,204.05a3.29,3.29,0,1,0-3.28-3.28A3.28,3.28,0,0,0,114.82,204.05Z"/><path class="cls-1" d="M124.37,204.16a3.39,3.39,0,1,0-3.39-3.39A3.39,3.39,0,0,0,124.37,204.16Z"/><path class="cls-1" d="M133.92,204.24a3.47,3.47,0,1,0-3.47-3.47A3.47,3.47,0,0,0,133.92,204.24Z"/><path class="cls-1" d="M143.47,204.29a3.53,3.53,0,1,0-3.52-3.52A3.52,3.52,0,0,0,143.47,204.29Z"/><path class="cls-1" d="M153,204.26a3.5,3.5,0,1,0-3.49-3.49A3.5,3.5,0,0,0,153,204.26Z"/><path class="cls-1" d="M162.57,204.18a3.42,3.42,0,1,0-3.42-3.41A3.42,3.42,0,0,0,162.57,204.18Z"/><path class="cls-1" d="M172.12,204.08a3.31,3.31,0,1,0-3.31-3.31A3.31,3.31,0,0,0,172.12,204.08Z"/><path class="cls-1" d="M181.67,203.92a3.15,3.15,0,1,0-3.15-3.15A3.15,3.15,0,0,0,181.67,203.92Z"/><path class="cls-1" d="M191.22,203.71a2.94,2.94,0,1,0-2.94-2.94A2.94,2.94,0,0,0,191.22,203.71Z"/><path class="cls-1" d="M200.77,203.49a2.73,2.73,0,1,0-2.73-2.72A2.72,2.72,0,0,0,200.77,203.49Z"/><path class="cls-1" d="M210.32,203.26a2.49,2.49,0,1,0-2.49-2.49A2.49,2.49,0,0,0,210.32,203.26Z"/><path class="cls-1" d="M219.86,203a2.23,2.23,0,1,0-2.22-2.22A2.22,2.22,0,0,0,219.86,203Z"/><path class="cls-1" d="M229.41,202.67a1.91,1.91,0,1,0-1.9-1.9A1.9,1.9,0,0,0,229.41,202.67Z"/><path class="cls-1" d="M239,202.35a1.59,1.59,0,1,0-1.59-1.58A1.59,1.59,0,0,0,239,202.35Z"/><path class="cls-1" d="M248.51,202a1.27,1.27,0,1,0-1.27-1.27A1.27,1.27,0,0,0,248.51,202Z"/><path class="cls-1" d="M258.06,201.69a.93.93,0,1,0-.93-.92A.93.93,0,0,0,258.06,201.69Z"/><path class="cls-1" d="M267.61,201.32a.56.56,0,0,0,0-1.11.56.56,0,1,0,0,1.11Z"/><path class="cls-1" d="M277.16,201a.22.22,0,0,0,.21-.21.21.21,0,0,0-.21-.21.21.21,0,0,0-.21.21A.21.21,0,0,0,277.16,201Z"/><path class="cls-1" d="M19.34,210.66a.35.35,0,0,0,.34-.34.35.35,0,1,0-.69,0A.35.35,0,0,0,19.34,210.66Z"/><path class="cls-1" d="M28.88,211a.72.72,0,1,0-.71-.71A.71.71,0,0,0,28.88,211Z"/><path class="cls-1" d="M38.43,211.37a1.06,1.06,0,1,0-1.06-1.05A1.05,1.05,0,0,0,38.43,211.37Z"/><path class="cls-1" d="M48,211.69a1.38,1.38,0,1,0-1.37-1.37A1.38,1.38,0,0,0,48,211.69Z"/><path class="cls-1" d="M57.53,212a1.67,1.67,0,1,0-1.67-1.66A1.66,1.66,0,0,0,57.53,212Z"/><path class="cls-1" d="M67.08,212.28a2,2,0,1,0-2-2A2,2,0,0,0,67.08,212.28Z"/><path class="cls-1" d="M76.63,212.54a2.23,2.23,0,1,0-2.23-2.22A2.22,2.22,0,0,0,76.63,212.54Z"/><path class="cls-1" d="M86.18,212.78a2.47,2.47,0,1,0-2.46-2.46A2.46,2.46,0,0,0,86.18,212.78Z"/><path class="cls-1" d="M95.73,213a2.68,2.68,0,1,0-2.68-2.67A2.68,2.68,0,0,0,95.73,213Z"/><path class="cls-1" d="M105.28,213.18a2.86,2.86,0,1,0-2.86-2.86A2.86,2.86,0,0,0,105.28,213.18Z"/><path class="cls-1" d="M114.82,213.33a3,3,0,1,0-3-3A3,3,0,0,0,114.82,213.33Z"/><path class="cls-1" d="M124.37,213.44a3.13,3.13,0,1,0-3.12-3.12A3.13,3.13,0,0,0,124.37,213.44Z"/><path class="cls-1" d="M133.92,213.49a3.18,3.18,0,1,0-3.17-3.17A3.17,3.17,0,0,0,133.92,213.49Z"/><path class="cls-1" d="M143.47,213.52a3.21,3.21,0,1,0-3.2-3.2A3.21,3.21,0,0,0,143.47,213.52Z"/><path class="cls-1" d="M153,213.52a3.21,3.21,0,1,0-3.2-3.2A3.2,3.2,0,0,0,153,213.52Z"/><path class="cls-1" d="M162.57,213.44a3.13,3.13,0,1,0-3.12-3.12A3.12,3.12,0,0,0,162.57,213.44Z"/><path class="cls-1" d="M172.12,213.33a3,3,0,1,0-3-3A3,3,0,0,0,172.12,213.33Z"/><path class="cls-1" d="M181.67,213.2a2.89,2.89,0,1,0-2.89-2.88A2.88,2.88,0,0,0,181.67,213.2Z"/><path class="cls-1" d="M191.22,213a2.71,2.71,0,1,0-2.7-2.7A2.7,2.7,0,0,0,191.22,213Z"/><path class="cls-1" d="M200.77,212.8a2.49,2.49,0,1,0-2.49-2.48A2.48,2.48,0,0,0,200.77,212.8Z"/><path class="cls-1" d="M210.32,212.57a2.26,2.26,0,1,0-2.26-2.25A2.25,2.25,0,0,0,210.32,212.57Z"/><path class="cls-1" d="M219.86,212.3a2,2,0,1,0-2-2A2,2,0,0,0,219.86,212.3Z"/><path class="cls-1" d="M229.41,212a1.73,1.73,0,1,0-1.72-1.72A1.72,1.72,0,0,0,229.41,212Z"/><path class="cls-1" d="M239,211.72a1.41,1.41,0,1,0-1.4-1.4A1.4,1.4,0,0,0,239,211.72Z"/><path class="cls-1" d="M248.51,211.37a1.06,1.06,0,1,0-1.06-1.05A1.05,1.05,0,0,0,248.51,211.37Z"/><path class="cls-1" d="M258.06,211.06a.74.74,0,0,0,.74-.74.74.74,0,1,0-1.48,0A.74.74,0,0,0,258.06,211.06Z"/><path class="cls-1" d="M267.61,210.71a.39.39,0,0,0,.4-.39.4.4,0,1,0-.8,0A.39.39,0,0,0,267.61,210.71Z"/><path class="cls-1" d="M277.16,210.34a0,0,0,0,0,0,0s0,0,0,0a0,0,0,0,0,0,0S277.14,210.34,277.16,210.34Z"/><path class="cls-1" d="M19.34,220a.16.16,0,1,0,0-.31.16.16,0,0,0-.16.16A.16.16,0,0,0,19.34,220Z"/><path class="cls-1" d="M28.88,220.34a.48.48,0,1,0-.47-.47A.47.47,0,0,0,28.88,220.34Z"/><path class="cls-1" d="M38.43,220.68a.81.81,0,0,0,.82-.81.82.82,0,1,0-.82.81Z"/><path class="cls-1" d="M48,221a1.14,1.14,0,1,0-1.14-1.13A1.14,1.14,0,0,0,48,221Z"/><path class="cls-1" d="M57.53,221.29a1.43,1.43,0,1,0-1.43-1.42A1.43,1.43,0,0,0,57.53,221.29Z"/><path class="cls-1" d="M67.08,221.59a1.73,1.73,0,1,0-1.72-1.72A1.72,1.72,0,0,0,67.08,221.59Z"/><path class="cls-1" d="M76.63,221.82a2,2,0,1,0-2-1.95A2,2,0,0,0,76.63,221.82Z"/><path class="cls-1" d="M86.18,222A2.17,2.17,0,1,0,84,219.87,2.17,2.17,0,0,0,86.18,222Z"/><path class="cls-1" d="M95.73,222.25a2.39,2.39,0,1,0-2.39-2.38A2.39,2.39,0,0,0,95.73,222.25Z"/><path class="cls-1" d="M105.28,222.43a2.57,2.57,0,1,0-2.57-2.56A2.56,2.56,0,0,0,105.28,222.43Z"/><path class="cls-1" d="M114.82,222.56a2.7,2.7,0,1,0-2.7-2.69A2.7,2.7,0,0,0,114.82,222.56Z"/><path class="cls-1" d="M124.37,222.67a2.81,2.81,0,1,0-2.8-2.8A2.8,2.8,0,0,0,124.37,222.67Z"/><path class="cls-1" d="M133.92,222.72a2.86,2.86,0,1,0-2.86-2.85A2.86,2.86,0,0,0,133.92,222.72Z"/><path class="cls-1" d="M143.47,222.75a2.89,2.89,0,1,0-2.88-2.88A2.88,2.88,0,0,0,143.47,222.75Z"/><path class="cls-1" d="M153,222.75a2.89,2.89,0,1,0-2.88-2.88A2.89,2.89,0,0,0,153,222.75Z"/><path class="cls-1" d="M162.57,222.67a2.81,2.81,0,1,0-2.81-2.8A2.8,2.8,0,0,0,162.57,222.67Z"/><path class="cls-1" d="M172.12,222.56a2.7,2.7,0,1,0-2.7-2.69A2.69,2.69,0,0,0,172.12,222.56Z"/><path class="cls-1" d="M181.67,222.43a2.57,2.57,0,1,0-2.57-2.56A2.57,2.57,0,0,0,181.67,222.43Z"/><path class="cls-1" d="M191.22,222.27a2.41,2.41,0,1,0-2.41-2.4A2.4,2.4,0,0,0,191.22,222.27Z"/><path class="cls-1" d="M200.77,222.09a2.23,2.23,0,1,0-2.23-2.22A2.23,2.23,0,0,0,200.77,222.09Z"/><path class="cls-1" d="M210.32,221.85a2,2,0,1,0-2-2A2,2,0,0,0,210.32,221.85Z"/><path class="cls-1" d="M219.86,221.59a1.73,1.73,0,1,0-1.72-1.72A1.73,1.73,0,0,0,219.86,221.59Z"/><path class="cls-1" d="M229.41,221.32a1.46,1.46,0,1,0-1.45-1.45A1.45,1.45,0,0,0,229.41,221.32Z"/><path class="cls-1" d="M239,221a1.17,1.17,0,1,0-1.16-1.16A1.16,1.16,0,0,0,239,221Z"/><path class="cls-1" d="M248.51,220.74a.88.88,0,1,0-.87-.87A.87.87,0,0,0,248.51,220.74Z"/><path class="cls-1" d="M258.06,220.39a.53.53,0,1,0-.53-.52A.52.52,0,0,0,258.06,220.39Z"/><path class="cls-1" d="M267.61,220.05a.18.18,0,0,0,.18-.18.18.18,0,0,0-.18-.19.19.19,0,1,0,0,.37Z"/><path class="cls-1" d="M28.88,229.68a.27.27,0,1,0,0-.53.27.27,0,0,0,0,.53Z"/><path class="cls-1" d="M38.43,230a.6.6,0,0,0,.59-.59.59.59,0,0,0-.59-.58.58.58,0,0,0-.58.58A.59.59,0,0,0,38.43,230Z"/><path class="cls-1" d="M48,230.29a.88.88,0,1,0-.87-.88A.87.87,0,0,0,48,230.29Z"/><path class="cls-1" d="M57.53,230.58a1.17,1.17,0,1,0-1.16-1.17A1.17,1.17,0,0,0,57.53,230.58Z"/><path class="cls-1" d="M67.08,230.84a1.43,1.43,0,1,0-1.43-1.43A1.43,1.43,0,0,0,67.08,230.84Z"/><path class="cls-1" d="M76.63,231.08A1.67,1.67,0,1,0,75,229.41,1.67,1.67,0,0,0,76.63,231.08Z"/><path class="cls-1" d="M86.18,231.32a1.91,1.91,0,1,0-1.91-1.91A1.91,1.91,0,0,0,86.18,231.32Z"/><path class="cls-1" d="M95.73,231.51a2.1,2.1,0,1,0-2.09-2.1A2.1,2.1,0,0,0,95.73,231.51Z"/><path class="cls-1" d="M105.28,231.66a2.25,2.25,0,1,0-2.25-2.25A2.25,2.25,0,0,0,105.28,231.66Z"/><path class="cls-1" d="M114.82,231.8a2.39,2.39,0,1,0-2.38-2.39A2.39,2.39,0,0,0,114.82,231.8Z"/><path class="cls-1" d="M124.37,231.9a2.49,2.49,0,1,0-2.49-2.49A2.48,2.48,0,0,0,124.37,231.9Z"/><path class="cls-1" d="M133.92,232a2.55,2.55,0,1,0-2.54-2.55A2.55,2.55,0,0,0,133.92,232Z"/><path class="cls-1" d="M143.47,232a2.57,2.57,0,1,0-2.57-2.57A2.57,2.57,0,0,0,143.47,232Z"/><path class="cls-1" d="M153,232a2.55,2.55,0,1,0-2.54-2.55A2.55,2.55,0,0,0,153,232Z"/><path class="cls-1" d="M162.57,231.9a2.49,2.49,0,1,0-2.49-2.49A2.49,2.49,0,0,0,162.57,231.9Z"/><path class="cls-1" d="M172.12,231.8a2.39,2.39,0,1,0-2.38-2.39A2.38,2.38,0,0,0,172.12,231.8Z"/><path class="cls-1" d="M181.67,231.66a2.25,2.25,0,1,0-2.25-2.25A2.25,2.25,0,0,0,181.67,231.66Z"/><path class="cls-1" d="M191.22,231.51a2.1,2.1,0,1,0-2.1-2.1A2.1,2.1,0,0,0,191.22,231.51Z"/><path class="cls-1" d="M200.77,231.32a1.91,1.91,0,1,0-1.91-1.91A1.9,1.9,0,0,0,200.77,231.32Z"/><path class="cls-1" d="M210.32,231.13a1.72,1.72,0,1,0-1.73-1.72A1.72,1.72,0,0,0,210.32,231.13Z"/><path class="cls-1" d="M219.86,230.87a1.46,1.46,0,1,0-1.45-1.46A1.46,1.46,0,0,0,219.86,230.87Z"/><path class="cls-1" d="M229.41,230.61a1.2,1.2,0,1,0-1.19-1.2A1.19,1.19,0,0,0,229.41,230.61Z"/><path class="cls-1" d="M239,230.34a.93.93,0,1,0-.93-.93A.93.93,0,0,0,239,230.34Z"/><path class="cls-1" d="M248.51,230a.61.61,0,0,0,.61-.61.61.61,0,1,0-1.22,0A.61.61,0,0,0,248.51,230Z"/><path class="cls-1" d="M258.06,229.71a.3.3,0,1,0-.29-.3A.29.29,0,0,0,258.06,229.71Z"/><path class="cls-1" d="M38.43,239.28a.32.32,0,1,0,0-.63.32.32,0,0,0,0,.63Z"/><path class="cls-1" d="M48,239.57a.61.61,0,0,0,.61-.61.61.61,0,0,0-.61-.61.62.62,0,0,0-.61.61A.61.61,0,0,0,48,239.57Z"/><path class="cls-1" d="M57.53,239.84a.88.88,0,1,0,0-1.75.88.88,0,0,0,0,1.75Z"/><path class="cls-1" d="M67.08,240.1A1.14,1.14,0,1,0,65.94,239,1.14,1.14,0,0,0,67.08,240.1Z"/><path class="cls-1" d="M76.63,240.34A1.38,1.38,0,1,0,75.25,239,1.38,1.38,0,0,0,76.63,240.34Z"/><path class="cls-1" d="M86.18,240.55A1.59,1.59,0,1,0,84.59,239,1.59,1.59,0,0,0,86.18,240.55Z"/><path class="cls-1" d="M95.73,240.74A1.78,1.78,0,1,0,94,239,1.78,1.78,0,0,0,95.73,240.74Z"/><path class="cls-1" d="M105.28,240.87a1.91,1.91,0,1,0-1.91-1.91A1.9,1.9,0,0,0,105.28,240.87Z"/><path class="cls-1" d="M114.82,241a2,2,0,1,0-2-2A2,2,0,0,0,114.82,241Z"/><path class="cls-1" d="M124.37,241.08a2.12,2.12,0,1,0-2.11-2.12A2.12,2.12,0,0,0,124.37,241.08Z"/><path class="cls-1" d="M133.92,241.13a2.17,2.17,0,1,0-2.17-2.17A2.17,2.17,0,0,0,133.92,241.13Z"/><path class="cls-1" d="M143.47,241.16a2.2,2.2,0,1,0-2.2-2.2A2.19,2.19,0,0,0,143.47,241.16Z"/><path class="cls-1" d="M153,241.13a2.17,2.17,0,1,0-2.17-2.17A2.17,2.17,0,0,0,153,241.13Z"/><path class="cls-1" d="M162.57,241.11a2.15,2.15,0,1,0-2.14-2.15A2.14,2.14,0,0,0,162.57,241.11Z"/><path class="cls-1" d="M172.12,241a2,2,0,1,0-2-2A2,2,0,0,0,172.12,241Z"/><path class="cls-1" d="M181.67,240.89a1.93,1.93,0,1,0-1.94-1.93A1.93,1.93,0,0,0,181.67,240.89Z"/><path class="cls-1" d="M191.22,240.74a1.78,1.78,0,1,0-1.78-1.78A1.78,1.78,0,0,0,191.22,240.74Z"/><path class="cls-1" d="M200.77,240.55a1.59,1.59,0,1,0-1.59-1.59A1.59,1.59,0,0,0,200.77,240.55Z"/><path class="cls-1" d="M210.32,240.37a1.41,1.41,0,1,0-1.41-1.41A1.41,1.41,0,0,0,210.32,240.37Z"/><path class="cls-1" d="M219.86,240.13A1.17,1.17,0,1,0,218.7,239,1.17,1.17,0,0,0,219.86,240.13Z"/><path class="cls-1" d="M229.41,239.89a.93.93,0,1,0,0-1.85.93.93,0,0,0,0,1.85Z"/><path class="cls-1" d="M239,239.6a.64.64,0,1,0,0-1.27.64.64,0,0,0,0,1.27Z"/><path class="cls-1" d="M248.51,239.31a.35.35,0,0,0,.34-.35.34.34,0,0,0-.68,0A.35.35,0,0,0,248.51,239.31Z"/><path class="cls-1" d="M258.06,239a0,0,0,0,0,0,0s0,0,0,0,0,0,0,0A0,0,0,0,0,258.06,239Z"/><path class="cls-1" d="M38.43,248.54a0,0,0,0,0,0,0s0,0,0,0l0,0S38.42,248.54,38.43,248.54Z"/><path class="cls-1" d="M48,248.83a.32.32,0,0,0,.32-.32.32.32,0,0,0-.32-.32.33.33,0,0,0-.32.32A.32.32,0,0,0,48,248.83Z"/><path class="cls-1" d="M57.53,249.09a.58.58,0,1,0-.58-.58A.58.58,0,0,0,57.53,249.09Z"/><path class="cls-1" d="M67.08,249.33a.82.82,0,1,0-.82-.82A.82.82,0,0,0,67.08,249.33Z"/><path class="cls-1" d="M76.63,249.57a1.06,1.06,0,1,0-1.06-1.06A1.06,1.06,0,0,0,76.63,249.57Z"/><path class="cls-1" d="M86.18,249.78a1.27,1.27,0,1,0-1.27-1.27A1.27,1.27,0,0,0,86.18,249.78Z"/><path class="cls-1" d="M95.73,249.94a1.43,1.43,0,1,0-1.43-1.43A1.43,1.43,0,0,0,95.73,249.94Z"/><path class="cls-1" d="M105.28,250.1a1.59,1.59,0,1,0-1.59-1.59A1.59,1.59,0,0,0,105.28,250.1Z"/><path class="cls-1" d="M114.82,250.21a1.7,1.7,0,1,0-1.69-1.7A1.7,1.7,0,0,0,114.82,250.21Z"/><path class="cls-1" d="M124.37,250.29a1.78,1.78,0,1,0-1.77-1.78A1.78,1.78,0,0,0,124.37,250.29Z"/><path class="cls-1" d="M133.92,250.34a1.83,1.83,0,1,0-1.82-1.83A1.83,1.83,0,0,0,133.92,250.34Z"/><path class="cls-1" d="M143.47,250.37a1.86,1.86,0,1,0-1.85-1.86A1.86,1.86,0,0,0,143.47,250.37Z"/><path class="cls-1" d="M153,250.34a1.83,1.83,0,1,0-1.83-1.83A1.83,1.83,0,0,0,153,250.34Z"/><path class="cls-1" d="M162.57,250.29a1.78,1.78,0,1,0-1.77-1.78A1.78,1.78,0,0,0,162.57,250.29Z"/><path class="cls-1" d="M172.12,250.21a1.7,1.7,0,1,0-1.7-1.7A1.7,1.7,0,0,0,172.12,250.21Z"/><path class="cls-1" d="M181.67,250.1a1.59,1.59,0,1,0-1.59-1.59A1.59,1.59,0,0,0,181.67,250.1Z"/><path class="cls-1" d="M191.22,250a1.46,1.46,0,1,0-1.46-1.46A1.45,1.45,0,0,0,191.22,250Z"/><path class="cls-1" d="M200.77,249.78a1.27,1.27,0,1,0-1.27-1.27A1.27,1.27,0,0,0,200.77,249.78Z"/><path class="cls-1" d="M210.32,249.57a1.06,1.06,0,1,0-1.06-1.06A1.05,1.05,0,0,0,210.32,249.57Z"/><path class="cls-1" d="M219.86,249.38a.87.87,0,1,0-.87-.87A.87.87,0,0,0,219.86,249.38Z"/><path class="cls-1" d="M229.41,249.12a.61.61,0,0,0,.61-.61.61.61,0,0,0-.61-.61.62.62,0,0,0-.61.61A.61.61,0,0,0,229.41,249.12Z"/><path class="cls-1" d="M239,248.86a.35.35,0,0,0,.35-.35.35.35,0,0,0-.35-.34.34.34,0,0,0-.34.34A.35.35,0,0,0,239,248.86Z"/><path class="cls-1" d="M248.51,248.56a.05.05,0,1,0,0-.05A0,0,0,0,0,248.51,248.56Z"/><path class="cls-1" d="M48,258.09a0,0,0,0,0,0,0,0,0,0,0,0,0,0s0,0,0,0S48,258.09,48,258.09Z"/><path class="cls-1" d="M57.53,258.32a.26.26,0,1,0-.26-.26A.26.26,0,0,0,57.53,258.32Z"/><path class="cls-1" d="M67.08,258.56a.5.5,0,1,0-.5-.5A.5.5,0,0,0,67.08,258.56Z"/><path class="cls-1" d="M76.63,258.77a.71.71,0,0,0,.71-.71.71.71,0,1,0-1.42,0A.71.71,0,0,0,76.63,258.77Z"/><path class="cls-1" d="M86.18,259a.9.9,0,1,0-.9-.9A.9.9,0,0,0,86.18,259Z"/><path class="cls-1" d="M95.73,259.12a1.06,1.06,0,1,0-1.06-1.06A1.07,1.07,0,0,0,95.73,259.12Z"/><path class="cls-1" d="M105.28,259.28a1.22,1.22,0,1,0-1.22-1.22A1.22,1.22,0,0,0,105.28,259.28Z"/><path class="cls-1" d="M114.82,259.39a1.33,1.33,0,1,0-1.32-1.33A1.33,1.33,0,0,0,114.82,259.39Z"/><path class="cls-1" d="M124.37,259.46a1.4,1.4,0,1,0-1.4-1.4A1.4,1.4,0,0,0,124.37,259.46Z"/><path class="cls-1" d="M133.92,259.52a1.46,1.46,0,1,0-1.45-1.46A1.46,1.46,0,0,0,133.92,259.52Z"/><path class="cls-1" d="M143.47,259.52a1.46,1.46,0,1,0-1.45-1.46A1.46,1.46,0,0,0,143.47,259.52Z"/><path class="cls-1" d="M153,259.52a1.46,1.46,0,1,0-1.46-1.46A1.46,1.46,0,0,0,153,259.52Z"/><path class="cls-1" d="M162.57,259.46a1.4,1.4,0,1,0-1.4-1.4A1.4,1.4,0,0,0,162.57,259.46Z"/><path class="cls-1" d="M172.12,259.39a1.33,1.33,0,1,0-1.33-1.33A1.33,1.33,0,0,0,172.12,259.39Z"/><path class="cls-1" d="M181.67,259.28a1.22,1.22,0,1,0-1.22-1.22A1.22,1.22,0,0,0,181.67,259.28Z"/><path class="cls-1" d="M191.22,259.15a1.09,1.09,0,1,0-1.09-1.09A1.08,1.08,0,0,0,191.22,259.15Z"/><path class="cls-1" d="M200.77,259a.93.93,0,1,0-.93-.93A.93.93,0,0,0,200.77,259Z"/><path class="cls-1" d="M210.32,258.8a.74.74,0,1,0-.75-.74A.74.74,0,0,0,210.32,258.8Z"/><path class="cls-1" d="M219.86,258.59a.53.53,0,1,0,0-1.06.53.53,0,0,0,0,1.06Z"/><path class="cls-1" d="M229.41,258.35a.29.29,0,1,0-.29-.29A.29.29,0,0,0,229.41,258.35Z"/><path class="cls-1" d="M239,258.09a0,0,0,0,0,0,0,0,0,0,0,0,0,0s0,0,0,0S239,258.09,239,258.09Z"/><path class="cls-1" d="M67.08,267.77a.16.16,0,1,0-.16-.16A.16.16,0,0,0,67.08,267.77Z"/><path class="cls-1" d="M76.63,268a.38.38,0,0,0,.37-.37.37.37,0,0,0-.37-.37.36.36,0,0,0-.37.37A.37.37,0,0,0,76.63,268Z"/><path class="cls-1" d="M86.18,268.16a.55.55,0,0,0,.55-.55.56.56,0,1,0-1.11,0A.55.55,0,0,0,86.18,268.16Z"/><path class="cls-1" d="M95.73,268.32a.72.72,0,1,0-.72-.71A.71.71,0,0,0,95.73,268.32Z"/><path class="cls-1" d="M105.28,268.46a.85.85,0,1,0-.85-.85A.85.85,0,0,0,105.28,268.46Z"/><path class="cls-1" d="M114.82,268.54a.93.93,0,1,0-.92-.93A.93.93,0,0,0,114.82,268.54Z"/><path class="cls-1" d="M124.37,268.61a1,1,0,1,0-1-1A1,1,0,0,0,124.37,268.61Z"/><path class="cls-1" d="M133.92,268.67a1.06,1.06,0,1,0-1.06-1.06A1.06,1.06,0,0,0,133.92,268.67Z"/><path class="cls-1" d="M143.47,268.69a1.09,1.09,0,1,0-1.08-1.08A1.08,1.08,0,0,0,143.47,268.69Z"/><path class="cls-1" d="M153,268.67a1.06,1.06,0,1,0-1.06-1.06A1.06,1.06,0,0,0,153,268.67Z"/><path class="cls-1" d="M162.57,268.64a1,1,0,1,0-1-1A1,1,0,0,0,162.57,268.64Z"/><path class="cls-1" d="M172.12,268.56a1,1,0,1,0-1-.95A.95.95,0,0,0,172.12,268.56Z"/><path class="cls-1" d="M181.67,268.46a.85.85,0,0,0,0-1.7.85.85,0,1,0,0,1.7Z"/><path class="cls-1" d="M191.22,268.35a.74.74,0,1,0-.74-.74A.74.74,0,0,0,191.22,268.35Z"/><path class="cls-1" d="M200.77,268.16a.55.55,0,0,0,.55-.55.56.56,0,1,0-1.11,0A.55.55,0,0,0,200.77,268.16Z"/><path class="cls-1" d="M210.32,268a.4.4,0,0,0,0-.8.4.4,0,0,0,0,.8Z"/><path class="cls-1" d="M219.86,267.79a.18.18,0,0,0,.19-.18.19.19,0,1,0-.37,0A.18.18,0,0,0,219.86,267.79Z"/><path class="cls-1" d="M86.18,277.34a.18.18,0,0,0,.18-.18.19.19,0,0,0-.18-.19.2.2,0,0,0-.19.19A.19.19,0,0,0,86.18,277.34Z"/><path class="cls-1" d="M95.73,277.5a.34.34,0,0,0,.34-.34.35.35,0,0,0-.34-.35.35.35,0,0,0-.35.35A.35.35,0,0,0,95.73,277.5Z"/><path class="cls-1" d="M105.28,277.61a.45.45,0,1,0,0-.9.45.45,0,1,0,0,.9Z"/><path class="cls-1" d="M114.82,277.72a.56.56,0,1,0-.55-.56A.56.56,0,0,0,114.82,277.72Z"/><path class="cls-1" d="M124.37,277.79a.64.64,0,0,0,.64-.63.64.64,0,0,0-.64-.64.64.64,0,0,0-.63.64A.63.63,0,0,0,124.37,277.79Z"/><path class="cls-1" d="M133.92,277.85a.69.69,0,1,0-.69-.69A.69.69,0,0,0,133.92,277.85Z"/><path class="cls-1" d="M143.47,277.85a.69.69,0,1,0-.69-.69A.69.69,0,0,0,143.47,277.85Z"/><path class="cls-1" d="M153,277.85a.69.69,0,1,0-.69-.69A.69.69,0,0,0,153,277.85Z"/><path class="cls-1" d="M162.57,277.79a.64.64,0,0,0,.64-.63.64.64,0,0,0-1.28,0A.64.64,0,0,0,162.57,277.79Z"/><path class="cls-1" d="M172.12,277.72a.56.56,0,0,0,0-1.12.56.56,0,0,0,0,1.12Z"/><path class="cls-1" d="M181.67,277.63a.48.48,0,1,0-.48-.47A.47.47,0,0,0,181.67,277.63Z"/><path class="cls-1" d="M191.22,277.5a.34.34,0,0,0,.34-.34.35.35,0,0,0-.34-.35.35.35,0,0,0-.35.35A.35.35,0,0,0,191.22,277.5Z"/><path class="cls-1" d="M200.77,277.37a.22.22,0,0,0,.21-.21.21.21,0,0,0-.21-.21.21.21,0,0,0-.22.21A.22.22,0,0,0,200.77,277.37Z"/><path class="cls-1" d="M210.32,277.19s0,0,0,0,0,0,0,0a0,0,0,0,0,0,0A0,0,0,0,0,210.32,277.19Z"/><path class="cls-1" d="M105.28,286.76a0,0,0,0,0,0-.05.06.06,0,0,0,0-.06.06.06,0,0,0-.06.06A.06.06,0,0,0,105.28,286.76Z"/><path class="cls-1" d="M114.82,286.87a.16.16,0,0,0,.16-.16.16.16,0,0,0-.16-.16.16.16,0,0,0-.15.16A.16.16,0,0,0,114.82,286.87Z"/><path class="cls-1" d="M124.37,286.94a.24.24,0,1,0-.23-.23A.23.23,0,0,0,124.37,286.94Z"/><path class="cls-1" d="M133.92,287a.27.27,0,1,0-.26-.26A.27.27,0,0,0,133.92,287Z"/><path class="cls-1" d="M143.47,287a.29.29,0,0,0,.29-.29.29.29,0,1,0-.58,0A.29.29,0,0,0,143.47,287Z"/><path class="cls-1" d="M153,287a.29.29,0,0,0,.29-.29.29.29,0,1,0-.58,0A.29.29,0,0,0,153,287Z"/><path class="cls-1" d="M162.57,286.94a.24.24,0,1,0-.24-.23A.23.23,0,0,0,162.57,286.94Z"/><path class="cls-1" d="M172.12,286.87a.16.16,0,0,0,.16-.16.16.16,0,0,0-.32,0A.16.16,0,0,0,172.12,286.87Z"/><path class="cls-1" d="M181.67,286.79a.09.09,0,0,0,.08-.08.08.08,0,0,0-.08-.08.07.07,0,0,0-.08.08A.08.08,0,0,0,181.67,286.79Z"/></g></g></svg>